<svg xmlns="http://www.w3.org/2000/svg" viewBox="0 0 172.86 178.37"><defs><style>.cls-1{fill:#5aa0f1;}.cls-2{fill:#4d89e2;}.cls-3{fill:#3a66b4;}.cls-4{fill:#d6f7ee;}.cls-5{fill:#9dd3e4;}.cls-6{fill:#252735;}</style></defs><g id="Layer_2" data-name="Layer 2"><g id="OBJECT"><path class="cls-1" d="M59.78,158.62A80.12,80.12,0,0,1,8.73,84V45.58a2.73,2.73,0,0,1,2.12-2.67l22.36-5.24V18.56a2.74,2.74,0,0,1,2.36-2.71l50.86-7V0l-52,7.2a11.47,11.47,0,0,0-9.9,11.36V30.75L8.85,34.41A11.48,11.48,0,0,0,0,45.58V84a88.87,88.87,0,0,0,56.61,82.8l29.82,11.61V169Z"/><path class="cls-2" d="M164,34.41l-15.62-3.66V18.56a11.47,11.47,0,0,0-9.9-11.36L86.43,0V8.81l50.85,7a2.75,2.75,0,0,1,2.37,2.71V37.67L162,42.91a2.73,2.73,0,0,1,2.12,2.67V84a80.15,80.15,0,0,1-51,74.66L86.43,169v9.37l29.82-11.61A88.87,88.87,0,0,0,172.86,84V45.58A11.48,11.48,0,0,0,164,34.41Z"/><path class="cls-2" d="M33.21,18.56V37.67L10.85,42.91a2.73,2.73,0,0,0-2.12,2.67V84a80.12,80.12,0,0,0,51.05,74.66L86.43,169V8.81l-50.86,7A2.74,2.74,0,0,0,33.21,18.56Z"/><path class="cls-3" d="M86.43,164.31V169l26.65-10.38A80.15,80.15,0,0,0,164.13,84V45.58A2.73,2.73,0,0,0,162,42.91l-22.36-5.24V18.56a2.75,2.75,0,0,0-2.37-2.71l-50.85-7v155.5Z"/><rect class="cls-4" x="48.45" y="77.57" width="75.95" height="50.63"/><rect class="cls-5" x="58.06" y="70.02" width="9.6" height="7.56"/><rect class="cls-5" x="103.89" y="70.02" width="9.6" height="7.56"/><path class="cls-4" d="M113.49,62.51a27.72,27.72,0,0,0-55.43,0V70h9.6V62.51a18.12,18.12,0,0,1,36.23,0V70h9.6Z"/><path class="cls-6" d="M93,96.2a6.56,6.56,0,1,0-10.13,5.5l-3,14.45H93L90,101.7A6.53,6.53,0,0,0,93,96.2Z"/></g></g></svg>