<svg xmlns="http://www.w3.org/2000/svg" viewBox="0 0 170.48 221.41"><defs><style>.cls-1{fill:#d79b7f;}.cls-2{fill:#2b0e09;}.cls-3{fill:#cd4954;}.cls-4{fill:#7f3232;}.cls-5{fill:#8aac91;}.cls-6{fill:#ed9a80;}.cls-7{fill:#044443;}.cls-8{fill:#fff;}.cls-9{fill:#471d0a;}.cls-10{fill:#fff3e9;}.cls-11{fill:#59724e;}</style></defs><g id="Layer_2" data-name="Layer 2"><g id="Design"><rect class="cls-1" x="87.07" y="152.5" width="49.71" height="55.93" rx="5.8"/><path class="cls-2" d="M131,208.48c-6.28,0-18.9.16-25.17.27-4.19.08-8.38.09-12.58.12a6.27,6.27,0,0,1-6.58-6.2v-3.15c.13-12.58.33-25.16.24-37.74v-3.15a6.11,6.11,0,0,1,6-6.4L118,152l12.58,0a6.34,6.34,0,0,1,5.75,3c1.23,1.65.88,4.49.93,6.41,0,12.11-.2,25.56-.38,37.74l0,3.15a6,6,0,0,1-5.91,6.17Zm0-.1a5.79,5.79,0,0,0,5.7-6.07l0-3.15c-.21-12.2-.39-25.61-.37-37.74-.06-1.66.28-4.42-.79-5.86a5.38,5.38,0,0,0-4.86-2.53L118,153l-25.17-.2a5.64,5.64,0,0,0-5.61,5.85l0,3.15c-.11,13.62.18,27.26.26,40.88A5.45,5.45,0,0,0,93.23,208c4.2,0,8.39,0,12.58.12,6.27.1,18.9.26,25.17.26Z" transform="translate(0 0)"/><path class="cls-3" d="M82.06,198.79s3.33,2.54,4.19,10-5.8,2.4-13,8.61-17,4-18.25-.29a9,9,0,0,1,1.49-3.7c2.55-3.56,5.49-4.86,8.24-6.91,2.16-1.61,4.92-4.49,6.89-10a44.41,44.41,0,0,1,10.48,2.28Z" transform="translate(0 0)"/><path class="cls-2" d="M82.08,198.75c3.19,2.77,4.33,7.17,4.64,11.27.14,2.86-1.91,3.79-4.34,4.07a21.43,21.43,0,0,0-5.81,1.51c-1.89.79-3.38,2.25-5.1,3.32A15.79,15.79,0,0,1,59.53,221c-2-.56-4.44-1.7-5-4,.67-4.77,5.09-7.84,8.8-10.24a17.37,17.37,0,0,0,4.73-4.55,25.23,25.23,0,0,0,3.12-5.9.37.37,0,0,1,.39-.24,40.63,40.63,0,0,1,10.47,2.63Zm0,.08a49.32,49.32,0,0,0-10.5-1.94l.4-.25a25.18,25.18,0,0,1-3,6.19c-2.47,4-7.1,5.76-10.33,8.83a14.28,14.28,0,0,0-2.09,2.52,9.22,9.22,0,0,0-1.15,3V217c1.56,3.78,6.7,4.39,10.32,3.82a14.45,14.45,0,0,0,5.6-2.24c1.7-1.13,3.11-2.72,5-3.61a18.78,18.78,0,0,1,6-1.76c2.06-.31,3.77-.76,3.68-3.21-.21-3.89-1.12-8.23-3.88-11.18Z" transform="translate(0 0)"/><path class="cls-4" d="M98.75,47.87s-14.24,2.41-15.91,8.54S71.33,98.58,71.33,98.58s7.24,1.3,10.58-2,11.63-31,11.63-31Z" transform="translate(0 0)"/><path class="cls-2" d="M98.71,47.9c-5.21,1.46-11.86,2.87-15.07,7.6A51.34,51.34,0,0,0,82,61c-.66,2.52-1.38,5-2.07,7.53-2.94,10-5.85,20-8.37,30.1l-.21-.34c3.56.37,8.14.45,10.56-2.55,3.27-5.55,5-12,7.18-18C92,69.25,95.93,56.49,98.71,47.9Zm.07-.06c-2.43,9-5.7,21.59-8.68,30.21-2.19,6.17-4,12.61-7.46,18.25-2.73,3.26-7.53,3.09-11.36,2.54a.26.26,0,0,1-.21-.34c3-10,5.54-20.07,8.09-30.17.68-2.51,1.32-5,2-7.54A46.11,46.11,0,0,1,83,55.11a10.74,10.74,0,0,1,4.55-3.89,35.8,35.8,0,0,1,11.28-3.38Z" transform="translate(0 0)"/><path class="cls-5" d="M59.37,147.66l4.87,23.2q3.12,13.24,6.25,26.47a6.81,6.81,0,0,0,3.08,4.14c2.62,1.46,6.29.84,8.86-1.7,0,0,1.81-31.17-1-49.68-.72-4.75-1.76-8.66-3.22-11C71,127.64,59.37,147.66,59.37,147.66Z" transform="translate(0 0)"/><path class="cls-2" d="M59.42,147.67c2.5,10.37,4.85,21.74,7.37,32.07,1.25,5.34,2.42,10.7,3.6,16.06.36,2.65,1.79,5.34,4.55,6,2.56.88,5.8-.62,7.32-2.08a350.79,350.79,0,0,0-.63-43.26c-.54-5.26-1.11-10.81-3.1-15.73-5.15-11.71-15.24.81-19.11,6.9Zm-.1,0c3.87-7.05,14.18-19.53,20.05-7.26,1.87,4.18,2.43,8.82,3,13.31s.78,9.06.9,13.55c.34,10.85-.08,21.7-.7,32.53-4.56,4.68-11.71,3-12.7-3.85-1.34-5.33-2.7-10.65-4-16-2.55-10.33-4.65-21.79-6.61-32.29Z" transform="translate(0 0)"/><path class="cls-5" d="M64.79,119.92c4.65-1.49,17.89.43,31.19,3l2.78-4.59,28.73-2.24s9.48,21,4.29,34.41a4.87,4.87,0,0,1-4.86,3.28,55.85,55.85,0,0,1-23.07,0c-16.42-3.6-23.8-8.54-32.3-10.24-5.07-1-5.68,7.34-8.11,13.17-3.9,9.4-12.33,21.91-32.64,33.75-2.39-1.23-4.11-2.25-5.26-3l-2.65-1.67h0S54.33,123.3,64.79,119.92Z" transform="translate(0 0)"/><path class="cls-2" d="M64.78,119.88c5.14-1.2,10.51-.2,15.69.33,5.21.68,10.39,1.55,15.55,2.51l-.25.11,2.75-4.62a.28.28,0,0,1,.22-.14l14.36-1.23,14.36-1.17a.44.44,0,0,1,.44.26,83.52,83.52,0,0,1,3.46,9.9c1.85,6.7,3,13.82,1.77,20.75a17.54,17.54,0,0,1-1.6,5A5.21,5.21,0,0,1,127,154c-10,2.13-20.39,1.14-30.13-1.78a148.19,148.19,0,0,1-14.42-4.89c-2.37-.9-4.74-1.81-7.15-2.54-1.75-.41-3.58-1.26-5.39-.88-2.88,1.28-3.38,5-4.34,7.74A46.57,46.57,0,0,1,63,158.88c-6.46,14-18.78,24.39-31.89,32.06a.5.5,0,0,1-.5,0c-2.28-1.3-5.78-3.22-7.94-4.68a.51.51,0,0,1-.19-.66c3-5.85,6-11.67,9.17-17.42s6.35-11.47,9.71-17.11c5-8.43,10.18-16.87,16.26-24.62,2.09-2.45,4.16-5.28,7.21-6.58Zm0,.09c-9.19,4.13-26.65,38.35-32.38,48.67-3.06,5.79-6.13,11.58-9.08,17.43l-.18-.67c2.15,1.43,5.59,3.34,7.87,4.62h-.51c13-7.61,25.16-17.68,31.67-31.5,2.45-4.47,2.59-10,5.78-14.09,1.93-2.27,5.07-.81,7.44-.17s4.81,1.68,7.17,2.6c14.06,5.62,29.1,10.28,44.29,6.72a4.72,4.72,0,0,0,4.22-2.24,17.59,17.59,0,0,0,1.46-4.87c1.12-6.83-.18-13.82-2-20.42a80.72,80.72,0,0,0-3.46-9.76l.44.26c-7.18.56-21.57,1.59-28.75,2.09l.23-.14-2.83,4.56a.23.23,0,0,1-.25.11c-5.14-1-10.3-2-15.49-2.76-5.15-.58-10.51-1.6-15.63-.45Z" transform="translate(0 0)"/><path class="cls-4" d="M87.83,51.65c5.71-4.32,14.08-3.91,24.75-3.36,5.33.27,10,1.14,13.56,4.21a14,14,0,0,1,1.94,2.07q1.15,18.2,1.71,37.38.44,15.72.42,30.8a74,74,0,0,1-24.52,2.64,73.07,73.07,0,0,1-15.19-2.53,254.61,254.61,0,0,1-6.36-33.67,158.71,158.71,0,0,1-1.31-19" transform="translate(0 0)"/><path class="cls-2" d="M87.8,51.61c5.85-4.47,13.75-4,20.72-3.87s15.34.35,19.91,6.57c.9,17,1.43,34.32,1.75,51.38l.38,17.06a.33.33,0,0,1-.24.33,72.79,72.79,0,0,1-20,2.92,71.56,71.56,0,0,1-20-2.64A.51.51,0,0,1,90,123,231,231,0,0,1,84.8,96.8a171.7,171.7,0,0,1-2-26.6.05.05,0,0,1,.1,0A225.57,225.57,0,0,0,88,109.78c.91,4.34,1.91,8.66,3,13l-.37-.37a75.66,75.66,0,0,0,9.78,2,74.84,74.84,0,0,0,29.71-1.94l-.25.33-.09-17c.2-16.77-1.61-35.18-2-50.86-4.45-6-12.42-6.07-19.24-6.4s-14.88-.66-20.69,3.17Z" transform="translate(0 0)"/><path class="cls-4" d="M119.09,67.64c4,11.71,16.81,33.17,18.95,34.52,2.6,1.64,8.28.49,7.83-5.07s-14.8-46.71-23-46.34" transform="translate(0 0)"/><path class="cls-2" d="M119.14,67.63c3.25,8,7.49,15.61,11.74,23.15,2.16,3.7,4.16,7.66,6.92,10.92,2.36,2.08,6.92.75,7.64-2.38a6.54,6.54,0,0,0,0-3.11,128.07,128.07,0,0,0-3.94-12.34c-1.49-4.06-3.09-8.09-4.76-12.08-2.59-5.92-5.16-11.93-8.92-17.21-1.28-1.59-2.71-3.63-4.92-3.78a.05.05,0,0,1,0-.1c7.71.41,17,25.92,19.48,32.86A96.76,96.76,0,0,1,146,96.11c.45,2.17-.16,4.75-2.13,6s-4.57,1.35-6.3-.13c-5.51-6.74-9.71-14.47-13.61-22.23-1.76-3.84-4-8.22-4.82-12.1Z" transform="translate(0 0)"/><path class="cls-6" d="M99.15,112.81c1.88.15,2.07-4,6.22-6.22,2.68-1.45,4.45-.7,6.36-2.56a7.66,7.66,0,0,0,2-4.4,92.65,92.65,0,0,1,11.61,2.53,70.54,70.54,0,0,0,7.75,1.86,23.82,23.82,0,0,0,3.93.51c6-.17,8.93-3.41,8.5-6.74C145,93,125.51,89.35,109.3,95.62c-3.49,1.35-12.74,4.94-13.26,11C95.8,109.44,97.52,112.68,99.15,112.81Z" transform="translate(0 0)"/><path class="cls-2" d="M99.16,112.76a1.31,1.31,0,0,0,1.08-.53c.82-1,1.34-2.24,2.17-3.26a10.57,10.57,0,0,1,6.73-3.85c2.55-.59,3.93-3.09,4.23-5.55a.41.41,0,0,1,.46-.34A74.4,74.4,0,0,1,126.07,102c4,1.07,8,2.51,12.14,2.32,2.95-.25,6.36-1.68,7.09-4.81a3.15,3.15,0,0,0-.5-2.78c-5.07-4.58-17.28-4.27-23.81-3.45-6.87.84-25.51,5.74-24.83,14.54.23,1.86,1,4.43,3,5Zm0,.1a3.5,3.5,0,0,1-2.29-2A7.58,7.58,0,0,1,98,102c8.44-8.47,23.93-11.12,35.44-9.83,3.45.47,11.71,1.72,12.36,5.82.3,5.36-6.36,7.36-10.7,6.59-7.24-1-14.15-3.47-21.37-4.5l.47-.34a7.57,7.57,0,0,1-2.46,4.76c-1.38,1.27-3.34,1.21-5,1.75a10,10,0,0,0-5.64,5c-.47.69-1,1.69-1.95,1.62Z" transform="translate(0 0)"/><path class="cls-6" d="M108.68,40.25l.38,8.77s-5.38,6.47-10.23.44l-.44-10.22Z" transform="translate(0 0)"/><path class="cls-2" d="M108.71,40.22c.38,2.82.67,5.87.79,8.78a.41.41,0,0,1-.1.3c-3,3.42-8.05,4.12-10.84.17-.34-3.39-.56-6.8-.71-10.21a.54.54,0,0,1,.51-.56c3.45.36,7,.93,10.35,1.52Zm-.07.07c-3.53-.11-6.86-.23-10.31-.52l.59-.56c.08,3.15.36,7.56.13,10.08,2.79,4.07,6.91,2.76,9.66-.56l-.1.31c-.13-2.94-.07-5.74,0-8.75Z" transform="translate(0 0)"/><polygon class="cls-7" points="96.35 125.11 50.98 125.11 37.33 91.18 82.63 91.18 96.35 125.11"/><path class="cls-2" d="M96.39,125.15c-13.47.13-32.13.59-45.41.33a.35.35,0,0,1-.33-.23c-3.17-8.29-6.72-17.36-10.07-25.52l-3.5-8.45a.27.27,0,0,1,.25-.37c15.1-.18,30.2-.3,45.3-.24a.52.52,0,0,1,.47.32c2.32,5.73,4.5,11.49,6.73,17.2l6.56,17Zm-.08-.06c-4.2-9.9-10.12-24-14.15-33.72l.47.32c-15.1.07-30.2,0-45.3-.24l.26-.37,3.32,8.52c3.21,8.2,7,17.22,10.4,25.38l-.33-.22c13.07-.2,32.06.14,45.33.33Z" transform="translate(0 0)"/><polygon class="cls-7" points="50.45 123.79 110.36 123.79 110.36 125.11 50.98 125.11 50.45 123.79"/><path class="cls-2" d="M50.41,123.77c13.94-.32,31-.45,44.93-.15,5,.06,10,0,15-.08a.25.25,0,0,1,.25.25s0,1.32,0,1.33a.28.28,0,0,1-.27.28q-7.43.13-14.86.19c-14.84.12-29.69,0-44.53-.38a.08.08,0,0,1-.08-.06l-.49-1.38Zm.08,0,.57,1.27L51,125q7.43-.23,14.84-.31,14.85-.23,29.69-.07,7.42,0,14.85.19l-.28.28,0-1.32.26.25c-5-.08-10-.14-14.94-.08-13.93.31-31,.15-44.93-.15Z" transform="translate(0 0)"/><path class="cls-8" d="M62.43,108.15A1.57,1.57,0,0,1,64,106a3.09,3.09,0,0,1,2.78,2.16,1.57,1.57,0,0,1-1.54,2.16A3.1,3.1,0,0,1,62.43,108.15Z" transform="translate(0 0)"/><path class="cls-2" d="M62.38,108.16c-.51-1.37.31-2.94,1.95-2.56A4.87,4.87,0,0,1,67,108.07a2,2,0,0,1-2.18,2.75,3.26,3.26,0,0,1-2.46-2.66Zm.1,0c.35,1.2,2.68,2.13,3.64,1.33a1.86,1.86,0,0,0-.41-2.61c-1.12-.83-3.69-.56-3.23,1.28Z" transform="translate(0 0)"/><path class="cls-6" d="M83,28.79A41.19,41.19,0,0,0,85.36,37c2.29,5.52,5.64,9.68,9.3,10.31a10.2,10.2,0,0,0,4-.42,23,23,0,0,0,10-5.07,18.6,18.6,0,0,0,2.78-2.93c8-10.57.62-31-9.72-35a15,15,0,0,0-7.87-.73,7.84,7.84,0,0,0-.89.2,12.41,12.41,0,0,0-2.94,1.32A15,15,0,0,0,86,8.56c-2.42,3.17-3.52,7.58-3.64,12.29A39.53,39.53,0,0,0,83,28.79Z" transform="translate(0 0)"/><path class="cls-2" d="M83,28.78c1.21,6.71,6.38,20.56,15.16,17.8,6-1.28,12-4.83,14.79-10.5,4.86-10-1.33-28.2-12.1-32-7.8-2.59-14.72,2.21-17.15,9.69a31.06,31.06,0,0,0-.7,15Zm-.1,0c-1.29-7.37-1.47-16.06,3.85-22,5.31-6.42,15.73-5.5,20.87.66,6.63,7.56,9.57,19.31,5.64,28.75-2.16,4.7-6.51,8.11-11.21,10.09-2.43.82-5,1.82-7.65,1.4-7.21-2-10.2-12.39-11.5-18.92Z" transform="translate(0 0)"/><path class="cls-9" d="M85.15,4.27a11.2,11.2,0,0,1,7.2-2C96.42-.38,103.11.85,103.91,1a19.69,19.69,0,0,1,11.27,7.07c12.16,15.11,1.67,34.87-.76,36.16-3.13,1.66-8.7,2.36-8.7,1.47,1.28-6.4.59-17-.91-20.09-1.68-3.45-5.52-2-9.8-5.58a17.56,17.56,0,0,1-4.91-7.21,28.14,28.14,0,0,0-7.75,8.1C79.36,14.48,80.8,7.53,85.15,4.27Z" transform="translate(0 0)"/><path class="cls-2" d="M85.12,4.23A11.15,11.15,0,0,1,92.3,2.15C95,.47,98.22.23,101.28.39A19.55,19.55,0,0,1,116.8,9.56c5.38,7.78,5.32,18.12,2.27,26.75-1.12,2.86-2.17,5.95-4.48,8.09a16.57,16.57,0,0,1-8.51,2c-.31-.07-.71-.23-.69-.69a53.64,53.64,0,0,0,.1-15.08c-.88-8.66-4-5.68-9.69-9.31A17,17,0,0,1,89.64,13l.73.25a29.57,29.57,0,0,0-7.77,7.88.31.31,0,0,1-.53-.06c-2.45-5.5-2-13,3.05-16.83Zm.06.08c-5,3.84-5.19,11.23-2.54,16.49l-.55-.05a28.82,28.82,0,0,1,7.75-8.34.49.49,0,0,1,.67.14,16.61,16.61,0,0,0,5.87,7.86c6.21,3.62,9.07.84,10.06,10.05a51,51,0,0,1-.39,15.31v-.06c0-.09,0-.1,0-.07l.18.06a16.27,16.27,0,0,0,8.13-1.7c2.2-2,3.33-5.07,4.41-7.8,3.1-8.54,2.66-18.61-2.68-26.16A19.92,19.92,0,0,0,101.24.93c-3-.27-6.19-.16-8.83,1.4a11.3,11.3,0,0,0-7.23,2Z" transform="translate(0 0)"/><path class="cls-6" d="M104.2,27.82a3.28,3.28,0,0,1,1.26-2.27,3,3,0,0,1,2.25-.56c1.81.5,2.69,4,2,6.7-.41,1.66-1.7,4.17-3.42,4.12a2.41,2.41,0,0,1-1.75-.94" transform="translate(0 0)"/><path class="cls-2" d="M104.15,27.81a3,3,0,0,1,3.7-3.21c1.78.89,2,3,2.36,4.67.39,2.53-.56,6-3.32,6.86a2.32,2.32,0,0,1-2.38-1.23.05.05,0,0,1,.08-.07c2.39,2,4-1.19,4.65-3.15a7.16,7.16,0,0,0,0-4.81,2.27,2.27,0,0,0-3.64-.94,3.72,3.72,0,0,0-1.36,1.89.05.05,0,0,1-.1,0Z" transform="translate(0 0)"/><path class="cls-3" d="M.06,193.17c4.19-6.11,9.47-2.85,13.68-6,2.61-1.94,7.78-3.12,10.5-4,2.54,3.64,4.81,5.68,9.69,5.45.42,1.73.76,5-.74,9.81-2.32,7.43-6.49-.17-16,2.68S-.53,197.71.06,193.17Z" transform="translate(0 0)"/><path class="cls-2" d="M0,193.15a8.65,8.65,0,0,1,5.27-4.07c2.2-.63,4.5-.53,6.49-1.29,2.06-1,3.59-2.37,5.94-3,2.12-.77,4.31-1.29,6.43-1.92a.31.31,0,0,1,.35.12c1.55,2.43,3.57,4.79,6.53,5.3a12.69,12.69,0,0,0,2.89.17.17.17,0,0,1,.18.13c.9,3.19.38,11.77-2.89,13.42-1.6.64-3.32-.07-4.83-.39a17.91,17.91,0,0,0-5.94-.59c-2.06.13-4,1-6,1.19a16.28,16.28,0,0,1-6.29-.54c-3.75-1.14-8.42-4.08-8.09-8.51Zm.09,0c.05,4.2,4.63,6.69,8.22,7.67a15.92,15.92,0,0,0,5.95.34c2-.23,4-1.1,6.06-1.24,3.17-.42,6.21.85,9.21,1.35,2.17.33,3-1.92,3.48-3.65a17.58,17.58,0,0,0,.72-9l.18.13c-4.28.36-7.65-2-10-5.45l.37.12c-2.12.76-4.26,1.36-6.32,2.12s-3.9,2.09-6,3c-2.23.8-4.52.6-6.63,1.08a9,9,0,0,0-5.32,3.55Z" transform="translate(0 0)"/><path class="cls-9" d="M104.88,25.21c-6.68-1.84-13.34-3.17-19.7-.44A4.61,4.61,0,0,1,84,21.58a24.59,24.59,0,0,0-.2,3.83,27.75,27.75,0,0,0-2.62,1.45,26.6,26.6,0,0,1-1.6-10.2,20.59,20.59,0,0,1,.64-5.31c1.83-6.21,4.86-8.58,12-9.25,0,0,10-4.82,19.32,2.28" transform="translate(0 0)"/><path class="cls-2" d="M105,24.72c-6.51-1.79-13.5-3.16-20-.44l.48.13a4.43,4.43,0,0,1-1-2.83.5.5,0,0,0-1,0,24.52,24.52,0,0,0-.2,3.83l.24-.43c-.89.44-1.77.92-2.61,1.44l.73.3a24.6,24.6,0,0,1-1.51-7.14,28.29,28.29,0,0,1,.27-6.88C81,9.78,82.3,6.58,84.82,4.82a11.62,11.62,0,0,1,4-1.68,21.91,21.91,0,0,1,2.67-.46,4,4,0,0,0,1.1-.2l.19-.08.48-.19c.42-.15.84-.29,1.27-.41a20.33,20.33,0,0,1,4-.74,18.53,18.53,0,0,1,12.74,3.75c.51.39,1-.48.5-.87A19.88,19.88,0,0,0,92.42,1.45a3.16,3.16,0,0,1-.5.22c.17,0-.32,0-.39,0l-.69.08c-.47.06-.94.14-1.4.23a13.52,13.52,0,0,0-4.54,1.6c-2.68,1.59-4.15,4.34-5.05,7.23a23.52,23.52,0,0,0-.75,7.88A26.16,26.16,0,0,0,80.69,27a.5.5,0,0,0,.73.3A29.05,29.05,0,0,1,84,25.84a.48.48,0,0,0,.25-.43,24.52,24.52,0,0,1,.2-3.83h-1a5.43,5.43,0,0,0,1.34,3.54.48.48,0,0,0,.48.13c6.31-2.66,13.08-1.31,19.44.44a.5.5,0,0,0,.26-1Z" transform="translate(0 0)"/><path class="cls-10" d="M101.08,57.42l-.11,0-.22.09a.78.78,0,0,0-.27.24.72.72,0,0,0-.12.21.73.73,0,0,0-.08.36l0,.25.09.23a.75.75,0,0,0,.24.26.76.76,0,0,0,.32.17l.11,0a1.14,1.14,0,0,0,.52,0A1,1,0,0,0,102,59l.15-.2a.93.93,0,0,0,.14-.49.81.81,0,0,0-.09-.37.69.69,0,0,0-.2-.31,1,1,0,0,0-.42-.25.92.92,0,0,0-.52,0Z" transform="translate(0 0)"/><path class="cls-10" d="M100.3,65.15a0,0,0,0,1,0,0l.19-.15,0,0,.23-.1h-.09l-.23.1a.81.81,0,0,0-.27.25.45.45,0,0,0-.12.21.82.82,0,0,0-.09.38l0,.25.1.23a.78.78,0,0,0,.24.27.77.77,0,0,0,.33.18h0l.13,0h.15l.26,0h0a1.6,1.6,0,0,0,.23-.1h0l0,0,.21-.16,0,0a.83.83,0,0,0,.2-.32.75.75,0,0,0,.08-.37.8.8,0,0,0-.08-.37.79.79,0,0,0-.2-.31l-.2-.15a.92.92,0,0,0-.49-.13l-.25,0a1,1,0,0,0-.43.25Z" transform="translate(0 0)"/><path class="cls-10" d="M100.51,73.17l0,0,.18-.14a.05.05,0,0,1,0,0h1l-.12,0a.5.5,0,0,0-.24-.06.74.74,0,0,0-.39,0l-.23.1a.72.72,0,0,0-.27.25l-.08.1,0,0,.15-.2,0,0,.19-.15h0l-.19.15h0l.18-.14h0a1,1,0,0,0-.32.32.87.87,0,0,0-.13.46.82.82,0,0,0,.13.46.92.92,0,0,0,.32.33h0l.22.09h0l.25,0h0l.27,0h0l.12,0,.12,0a.27.27,0,0,0,.1-.08.49.49,0,0,0,.18-.17.53.53,0,0,0,.12-.22.61.61,0,0,0,0-.12.5.5,0,0,0,0-.12.57.57,0,0,0,0-.26.45.45,0,0,0-.07-.25.61.61,0,0,0,0-.12l.1.74v0h0l0-.25h0v0h0s0-.08,0-.12l0-.12h0a.89.89,0,0,0-.63-.63.82.82,0,0,0-.49,0,1,1,0,0,0-.4.23Z" transform="translate(0 0)"/><path class="cls-11" d="M148.06,195.55a7.18,7.18,0,0,0,3.3-7.11l-.21-5.51c-.09-2.38-.16-4.85.8-7,.78-1.76,2.19-3.22,2.75-5.06.85-2.81-.48-5.85-.14-8.77s2.13-5.15,3.64-7.53,2.82-5.21,2.05-7.92c-.65-2.24-2.68-4.19-2.31-6.5a1.9,1.9,0,0,0-1.6,1.29,8.5,8.5,0,0,0-.38,2.14,9.74,9.74,0,0,1-2.42,5.42c-1.56,1.68-3.87,2.88-4.49,5.09-.29,1-.15,2.16-.4,3.22-.42,1.73-1.82,3-3.06,4.29s-2.44,2.88-2.27,4.66c.14,1.35,1.05,2.49,1.48,3.78.68,2,.11,4.24-.67,6.23s-1.76,3.95-1.94,6.07.5,4.37.21,6.53c-.26,1.88-1.23,3.84-.44,5.57a4.06,4.06,0,0,0,2.9,2.08,11.65,11.65,0,0,0,3.68,0" transform="translate(0 0)"/><path class="cls-2" d="M148.2,195.69a9.64,9.64,0,0,0,3.11-4.05,9,9,0,0,0,.23-3c0-1.11-.09-2.23-.13-3.34a47.67,47.67,0,0,1-.07-6.21,10,10,0,0,1,.84-3.32,22.19,22.19,0,0,1,1.43-2.39,8.68,8.68,0,0,0,1.54-5.14c-.08-2.06-.66-4.1-.41-6.16.48-4,3.76-6.83,5.21-10.41a7.63,7.63,0,0,0,.22-5.89c-.76-1.84-2.31-3.56-2-5.68a.2.2,0,0,0-.19-.19c-2.27.18-2,3.21-2.34,4.77a10.46,10.46,0,0,1-3.62,5.5c-1.45,1.23-2.95,2.5-3.23,4.49-.18,1.31-.09,2.57-.76,3.76a12.41,12.41,0,0,1-2.11,2.57c-1.42,1.44-3,3.24-2.71,5.43a11.35,11.35,0,0,0,1.16,2.9,6.69,6.69,0,0,1,.45,3.95c-.41,2.43-1.7,4.57-2.39,6.91a10.64,10.64,0,0,0-.42,3.5c.06,1.29.28,2.56.29,3.85a23.74,23.74,0,0,1-.7,4.17,4.36,4.36,0,0,0,.43,3.19c1.42,2.18,4.29,2,6.55,1.77.26,0,.27-.43,0-.41-2.13.19-5.1.41-6.3-1.82a5,5,0,0,1-.08-3.46,15.16,15.16,0,0,0,.53-3.21c0-2.43-.62-4.74,0-7.15.59-2.22,1.77-4.23,2.31-6.47a8.75,8.75,0,0,0,.23-3.1,8.63,8.63,0,0,0-1-2.75,4.65,4.65,0,0,1-.63-3.44,7.54,7.54,0,0,1,1.87-2.95c1.28-1.38,2.86-2.69,3.32-4.61.27-1.14.08-2.35.47-3.47a6.11,6.11,0,0,1,1.7-2.36c1.55-1.45,3.19-2.63,4.15-4.59a10.32,10.32,0,0,0,1-3.13c.17-1.23.16-3.33,1.85-3.45l-.19-.25c-.22,1.61.55,3,1.29,4.37a10,10,0,0,1,1.08,2.55,6.67,6.67,0,0,1-.09,3.14c-1,3.77-4.05,6.5-5.25,10.16a12.54,12.54,0,0,0-.2,5.65c.26,2.08.45,4.12-.54,6.05-.83,1.63-2,3-2.59,4.8a17.23,17.23,0,0,0-.47,5.68c.08,2.41.3,4.85.22,7.26a5.92,5.92,0,0,1-1.06,3.31,16,16,0,0,1-2.22,2.36c-.2.18.09.46.28.28Z" transform="translate(0 0)"/><path class="cls-11" d="M139.18,197.79c1.36-1.83.86-4.45-.2-6.46s-2.64-3.75-3.46-5.87c-1-2.58-.83-5.6-2.27-8s-4.06-3.59-5.13-6-.42-5.55-2.35-7.27c-.6-.54-1.37-.85-2-1.37-1.17-1-1.52-2.66-2-4.12s-1.46-3-3-3.25a15.59,15.59,0,0,1,.47,5.48,12.71,12.71,0,0,0-.1,3.84c.32,1.46,1.35,2.65,2,4a14.41,14.41,0,0,1,1.43,6,10,10,0,0,0,.56,3.59A19.91,19.91,0,0,0,125,181c2.55,3.86,1.11,9.47,3.9,13.17a7,7,0,0,0,7.26,2.48" transform="translate(0 0)"/><path class="cls-2" d="M139.32,197.87c2.12-2.84.09-6.43-1.57-8.92a16,16,0,0,1-2.47-5,41.15,41.15,0,0,0-1.21-5.25,10.14,10.14,0,0,0-2.68-3.68,11.31,11.31,0,0,1-3.15-3.83,31.19,31.19,0,0,1-.91-4.5,5,5,0,0,0-2.43-3.36,4.9,4.9,0,0,1-2-2.15c-.4-.86-.62-1.79-1-2.67-.54-1.44-1.47-2.95-3.09-3.24a.23.23,0,0,0-.28.27,16.53,16.53,0,0,1,.4,5.9,8.06,8.06,0,0,0,.57,5,23.64,23.64,0,0,1,2.32,4.67,39.1,39.1,0,0,1,.68,5.6,6.08,6.08,0,0,0,.54,2,16.13,16.13,0,0,0,1.53,2.15,10.32,10.32,0,0,1,1.66,4.16c.55,2.87.47,6,2,8.59a7.07,7.07,0,0,0,8,3.3.19.19,0,0,0-.1-.37,7,7,0,0,1-7.68-3.48c-1.33-2.55-1.23-5.57-1.8-8.34a10.36,10.36,0,0,0-1.43-3.76c-.41-.62-.92-1.18-1.34-1.8a5.62,5.62,0,0,1-.92-2.62,41.63,41.63,0,0,0-.53-5,14.55,14.55,0,0,0-2-4.44,7.38,7.38,0,0,1-1.12-2.57,12.61,12.61,0,0,1,.14-3.3,16.26,16.26,0,0,0-.47-5.77l-.28.27c3.33.57,2.76,5.42,4.92,7.3.61.53,1.38.84,2,1.37a4.22,4.22,0,0,1,1.18,2c.4,1.42.41,2.91.82,4.33.86,3,3.76,4.28,5.35,6.73a13.38,13.38,0,0,1,1.55,4.9,14.93,14.93,0,0,0,1.56,4.74c1.73,3.05,5.41,6.92,3,10.61-.12.17.15.32.27.16Z" transform="translate(0 0)"/><path class="cls-11" d="M151.88,196a3.4,3.4,0,0,0,2.32-3.1,31.88,31.88,0,0,0-.2-4.14,9.55,9.55,0,0,1,3.19-7.2,32.25,32.25,0,0,0,2.69-2.24,6.06,6.06,0,0,0,1.58-4.29c0-1.17-.43-2.31-.58-3.47a3.93,3.93,0,0,1,.84-3.3c1.31-1.31,3.6-.82,5.17-1.81s1.88-2.71,2.07-4.37.28-3.44,1.29-4.77a13.88,13.88,0,0,1-5.78,3.41c-1.8.54-4,.9-4.77,2.58-.47,1-.33,2.15-.71,3.17-1.15,3.09-6.05,2.86-7.82,5.65-1,1.58-.67,3.64-1,5.48-.7,3.47-3.85,5.93-5.17,9.22a9.52,9.52,0,0,0,1.47,9.39" transform="translate(0 0)"/><path class="cls-2" d="M151.92,196.16a3.31,3.31,0,0,0,2.34-2.52c.45-1.67-.07-3.39-.06-5.08a9.39,9.39,0,0,1,1.39-4.78,14.24,14.24,0,0,1,3.53-3.48,6.6,6.6,0,0,0,2.42-3.8c.34-1.64-.19-3.16-.42-4.77a4.63,4.63,0,0,1,.25-2.63,2.81,2.81,0,0,1,1.87-1.42c1.31-.37,2.77-.32,3.92-1.12,3-2.07,1.38-6.47,3.29-9.13.15-.21-.18-.45-.36-.28a13.37,13.37,0,0,1-5.29,3.25c-1.47.48-3.15.69-4.39,1.69a3.4,3.4,0,0,0-1.18,1.92,10.55,10.55,0,0,1-.62,2.79,6.26,6.26,0,0,1-3.27,2.36,12.41,12.41,0,0,0-3.61,2c-1.25,1.13-1.48,2.75-1.6,4.35a11.79,11.79,0,0,1-.46,3,10.93,10.93,0,0,1-1.24,2.49c-1,1.51-2.13,2.88-3,4.44a9.8,9.8,0,0,0,.84,11c.19.24.52-.1.33-.33a9.41,9.41,0,0,1-.78-10.45c1.67-3,4.3-5.34,4.67-8.89.19-1.81.05-3.81,1.47-5.18a11.13,11.13,0,0,1,3.54-2,7.74,7.74,0,0,0,3.13-2,4,4,0,0,0,.79-1.82,6.56,6.56,0,0,1,.68-2.69c1.08-1.59,3.44-1.75,5.12-2.35a14.59,14.59,0,0,0,5.2-3.23l-.35-.27c-1.84,2.5-.53,6.21-2.66,8.53-1.82,2-5.51.56-6.55,3.55-.53,1.54,0,3.11.27,4.64a6.08,6.08,0,0,1-1.25,5.1c-1,1.2-2.47,1.93-3.53,3.09a9.76,9.76,0,0,0-2.1,3.67,13.41,13.41,0,0,0-.25,5.28c.15,1.78-.07,4.23-2.16,4.77a.17.17,0,0,0,.09.33Z" transform="translate(0 0)"/><path class="cls-11" d="M141.83,199.67c1.82-2.5,3.74-5.54,2.74-8.47a19.7,19.7,0,0,0-1.11-2.26,9.48,9.48,0,0,1-.94-4.65c.13-2.34,1.12-4.72.4-6.95a18.24,18.24,0,0,0-2.21-3.68,9.89,9.89,0,0,1-1.34-6.42,9.69,9.69,0,0,0,.24-3.5c-.32-1.3-1.41-2.24-2.24-3.3a9.74,9.74,0,0,1-2.06-5.78c0-1.84.39-3.91-.75-5.37-1.44-1.84-4.76-1.71-5.67-3.87-.28-.66-.5-1.63-1.22-1.59s-.78,1.23-.55,2a23.67,23.67,0,0,1,1,6.42,19.44,19.44,0,0,0,.4,5.23,26.16,26.16,0,0,0,1.29,2.92,14.22,14.22,0,0,1,1,8.19,8.6,8.6,0,0,0-.24,3.89,13.08,13.08,0,0,0,1.49,2.58c2.21,3.82.12,8.74,1.16,13,.4,1.65,1.26,3.19,1.36,4.88a10.87,10.87,0,0,0,.2,3.13,3.74,3.74,0,0,0,2.68,2.16,11.18,11.18,0,0,0,3.56.1" transform="translate(0 0)"/><path class="cls-2" d="M142,199.77a14.71,14.71,0,0,0,2.94-5.7,5.82,5.82,0,0,0-.1-2.72,25.38,25.38,0,0,0-1.36-2.89,9.08,9.08,0,0,1-.75-3.52,20.46,20.46,0,0,1,.45-3.66,10.42,10.42,0,0,0,.16-3.1,6.81,6.81,0,0,0-1.16-2.76,22.8,22.8,0,0,1-1.74-2.72,9.61,9.61,0,0,1-.92-3.52,16.6,16.6,0,0,1,.33-3.52,4.56,4.56,0,0,0-.36-2.82,12.09,12.09,0,0,0-1.72-2.25,10,10,0,0,1-1.69-2.93,9.62,9.62,0,0,1-.55-3.28,27.84,27.84,0,0,0,0-3,4.11,4.11,0,0,0-2.64-3.51c-1.35-.62-3.18-1-3.83-2.49-.25-.55-.4-1.4-1-1.65a.85.85,0,0,0-1.12.51,3.06,3.06,0,0,0,.11,2,26.05,26.05,0,0,1,.74,3.7c.28,2.27-.05,4.61.39,6.85a12.68,12.68,0,0,0,1.21,3.13,15,15,0,0,1,1.18,3.39,14.09,14.09,0,0,1,.29,3.55c-.05,1.2-.35,2.35-.51,3.53a4.72,4.72,0,0,0,.37,2.87c.49,1,1.23,1.77,1.64,2.78,1.58,3.93-.29,8.31.78,12.35.29,1.1.77,2.15,1.06,3.26a21.72,21.72,0,0,1,.25,3.6,3.9,3.9,0,0,0,3.47,3.35,12.61,12.61,0,0,0,3.19,0c.3,0,.3-.48,0-.46-2,.14-4.63.3-5.81-1.67-.6-1-.36-2.17-.39-3.26a9.77,9.77,0,0,0-.66-3,16.7,16.7,0,0,1-.87-3,15.5,15.5,0,0,1-.13-3.12,41,41,0,0,0,.12-5.86,8.83,8.83,0,0,0-.65-2.57,27.16,27.16,0,0,0-1.45-2.42,5,5,0,0,1-.34-3.57,19.86,19.86,0,0,0,.41-3.07,14.58,14.58,0,0,0-1.11-6c-.42-1-1-2-1.35-3a11.11,11.11,0,0,1-.45-3.44,30.52,30.52,0,0,0-.54-6.4c-.11-.53-.25-1.06-.4-1.58a4.52,4.52,0,0,1-.29-1.31c0-.46.25-1.2.86-.76.35.25.47.81.62,1.19,1.18,2.9,5.6,2.14,6.35,5.44.41,1.83-.09,3.75.27,5.61a10.8,10.8,0,0,0,2.57,5,5.9,5.9,0,0,1,1.58,2.57,11.43,11.43,0,0,1-.3,3.54,10.15,10.15,0,0,0,1,5.66c1,1.92,2.68,3.38,2.79,5.65s-.73,4.24-.65,6.4a9.47,9.47,0,0,0,.57,2.93c.34.93.87,1.75,1.28,2.64,1,2.09.28,4.31-.78,6.21a25.27,25.27,0,0,1-1.72,2.63c-.15.21.2.41.35.2Z" transform="translate(0 0)"/><path class="cls-3" d="M130.28,192.13h22.79a4.13,4.13,0,0,1,4,5l-4.1,19a4.14,4.14,0,0,1-4,3.26H134.48a4.14,4.14,0,0,1-4-3.24l-4.2-19A4.14,4.14,0,0,1,130.28,192.13Z" transform="translate(0 0)"/><path class="cls-2" d="M130.28,192.08c3.69,0,9-.12,12.78-.26,3.19-.1,6.39-.15,9.58-.13a4.55,4.55,0,0,1,4.74,5.7c-1.51,6.17-2.9,12.48-4.11,18.72a4.6,4.6,0,0,1-5,3.71l-1.59,0c-2.12,0-7.54.09-9.59.1h-1.6A4.89,4.89,0,0,1,130,216.6c-1.07-4.7-2-9.38-2.93-14.11-.19-1-.71-3.73-.89-4.71a4.38,4.38,0,0,1,4.09-5.7Zm0,.1a4.05,4.05,0,0,0-4,4,17.94,17.94,0,0,0,.66,3.09l.78,3.1c1.2,4.62,2.23,9.31,3.29,14a3.65,3.65,0,0,0,3,2.58c.79.1,2.27,0,3.12.06,2,0,7.49.07,9.59.1l1.59,0A4,4,0,0,0,152.8,216c.82-3.54,1.7-7.36,2.42-10.92q.66-3.12,1.24-6.26a10.61,10.61,0,0,0,.36-3.05c-.8-3.89-4.33-3.16-7.37-3.22-6.14,0-13-.38-19.17-.38Z" transform="translate(0 0)"/><path class="cls-2" d="M165.18,163.37a5.62,5.62,0,0,1-2.42,1.57,8.05,8.05,0,0,0-2.37,1.21c-1.65,1.39-2,3.66-2.39,5.67a11.79,11.79,0,0,1-1.1,3.67,8.63,8.63,0,0,1-2.53,2.68,25.84,25.84,0,0,0-2.56,1.83,5.26,5.26,0,0,0-1.39,2.73,37.94,37.94,0,0,0-.55,4.13c-.17,1.59-.42,3.21-.49,4.81,0,.26.43.33.47.06.45-2.57.55-5.23.83-7.83a5.75,5.75,0,0,1,1.35-3.54,21,21,0,0,1,2.7-2,10,10,0,0,0,2.24-2.16,8.32,8.32,0,0,0,1.26-3.1c.47-2.14.55-4.66,2.17-6.33a7.83,7.83,0,0,1,3-1.57,3.61,3.61,0,0,0,2.13-1.63c.08-.18-.15-.41-.31-.23Z" transform="translate(0 0)"/><path class="cls-2" d="M156.22,152.18c-1.51,2-3.09,3.93-4.54,6a6.77,6.77,0,0,0-1.31,2.71,13.48,13.48,0,0,0,.13,3.53A10.19,10.19,0,0,1,149,170.9a7.53,7.53,0,0,0-1.34,2.57c-.19,1.08.19,2.16.05,3.24-.27,2.24-1.72,4.28-1.12,6.6.09.37.67.21.57-.16-.54-2,.6-4,1-5.88a18.18,18.18,0,0,0,0-3.13,5.19,5.19,0,0,1,1.3-2.86,10.13,10.13,0,0,0,1.7-5.73c0-1.11-.22-2.2-.29-3.31a5.37,5.37,0,0,1,.94-3.38c.69-1.08,1.5-2.09,2.23-3.13s1.56-2.29,2.36-3.43c.09-.13-.12-.25-.22-.12Z" transform="translate(0 0)"/><path class="cls-2" d="M131.51,151a25.82,25.82,0,0,1,.76,4.53c.1,1.45-.06,2.88-.09,4.33a8.9,8.9,0,0,0,.72,3.88A10.44,10.44,0,0,1,134,168a9.79,9.79,0,0,1-1,4,3.91,3.91,0,0,0,.06,3.45,15.3,15.3,0,0,0,2.1,3.17c.42.5.89,1,1.26,1.49a5,5,0,0,1,.76,2c.57,3.26.61,6.6,1.23,9.86a.25.25,0,0,0,.48-.07c-.12-3-.6-6-.95-8.93a6.94,6.94,0,0,0-1.09-3.38c-.8-1.08-1.77-2-2.52-3.13a9.88,9.88,0,0,1-1.06-1.87,2.94,2.94,0,0,1,.17-2.44,11.22,11.22,0,0,0,1.05-3.39,8.61,8.61,0,0,0-.49-4c-.24-.64-.56-1.24-.79-1.88a7.62,7.62,0,0,1-.41-2.41c0-1.61.2-3.2.11-4.81a16.57,16.57,0,0,0-.95-4.77.25.25,0,0,0-.48.13Z" transform="translate(0 0)"/><path class="cls-2" d="M121.65,163.46A6.35,6.35,0,0,0,123,166a10.64,10.64,0,0,1,1.65,2.77,18.87,18.87,0,0,1,.86,6.56,7,7,0,0,0,.48,2.93,7.36,7.36,0,0,0,1.59,2,10.39,10.39,0,0,1,1.82,2,4.74,4.74,0,0,1,.5,3,13.75,13.75,0,0,0-.13,3.33,4.21,4.21,0,0,0,.51,1.44,3.77,3.77,0,0,1,.78,1.8c0,.29.42.28.45,0,.1-1-.53-1.72-.9-2.63a7.42,7.42,0,0,1-.23-3.15,9.66,9.66,0,0,0-.14-2.89,5,5,0,0,0-1.25-2.12c-.61-.67-1.33-1.25-1.92-1.94a5.1,5.1,0,0,1-1.15-3.18,31.38,31.38,0,0,0-.63-6.41,11.37,11.37,0,0,0-1.29-3.12,19.06,19.06,0,0,1-1.86-3.17.25.25,0,0,0-.49.14Z" transform="translate(0 0)"/><path class="cls-2" d="M155.58,204.8a13.59,13.59,0,0,0-1.74-3.52,4.71,4.71,0,0,0-2.37-2.08c-2.64-.72-3.72,2.68-5.17,4.09a6.1,6.1,0,0,1-3.65,1.71,3.2,3.2,0,0,1-3.12-1.85,6.1,6.1,0,0,0-2-2.34,4.67,4.67,0,0,0-2.86-.56,4.39,4.39,0,0,0-2.77,1.48,3.21,3.21,0,0,1-1.73,1.21,2.78,2.78,0,0,1-2.09-.47c-.3-.18-.66.26-.38.5a3,3,0,0,0,2.73.59c1.19-.3,1.66-1.32,2.59-2a3.9,3.9,0,0,1,3-.63,4,4,0,0,1,2.63,2,5.73,5.73,0,0,0,2,2.32,4.44,4.44,0,0,0,3.19.09,6.77,6.77,0,0,0,2.8-1.63c1-.91,1.44-2.17,2.36-3.1a2.47,2.47,0,0,1,2.16-.85,3.32,3.32,0,0,1,1.67,1.21,15.67,15.67,0,0,1,2.41,4c.07.16.33.05.28-.12Z" transform="translate(0 0)"/><path class="cls-2" d="M154.53,209.38a3.35,3.35,0,0,0-3.61-2.84c-2.36.09-4.18,1.84-6.11,3a5.87,5.87,0,0,1-3.37,1,4.85,4.85,0,0,1-3-1.32c-1.18-1.12-1.72-3.82-3.83-3.45-2.54.45-2.65,4-5,4.58a.26.26,0,0,0,.14.49c1.9-.49,2.36-2.59,3.66-3.8a1.83,1.83,0,0,1,3,.26,16.66,16.66,0,0,0,1.44,2.17,5.48,5.48,0,0,0,4.7,1.65c2.19-.32,3.84-1.93,5.69-3a5.07,5.07,0,0,1,3.66-.82,2.78,2.78,0,0,1,2.25,2.19c0,.24.45.19.43-.06Z" transform="translate(0 0)"/><path class="cls-2" d="M88.94,16.91a33.42,33.42,0,0,0-.4,3.32,10.11,10.11,0,0,0,0,1.65A3,3,0,0,0,89,23.37c.14.16.36,0,.38-.16a2.32,2.32,0,0,0-.15-.73c-.06-.28-.11-.55-.15-.83A13.13,13.13,0,0,1,89,20.11,23.93,23.93,0,0,1,89.27,17c0-.18-.3-.23-.33,0Z" transform="translate(0 0)"/><path class="cls-2" d="M99.28,15c1.25,3.1,2.48,6.3,2.38,9.7a.34.34,0,0,0,.68,0c0-3.48-1.37-6.71-2.74-9.84-.08-.18-.4,0-.32.14Z" transform="translate(0 0)"/><path class="cls-2" d="M117.26,22.36a33.34,33.34,0,0,1,0,8.11,36,36,0,0,1-.76,4.12c-.34,1.34-.84,2.62-1.22,3.94-.05.19.24.32.33.14a20.06,20.06,0,0,0,1.24-3.87,33.49,33.49,0,0,0,.72-4.1,34,34,0,0,0-.09-8.37c0-.13-.24-.1-.23,0Z" transform="translate(0 0)"/><path class="cls-2" d="M111.58,39c-.18.63-.38,1.25-.61,1.86-.11.3-.23.6-.35.91-.07.15-.14.31-.2.46a1.85,1.85,0,0,0-.18.44c0,.14.17.31.29.16a3.2,3.2,0,0,0,.41-.9c.12-.31.24-.61.34-.92.23-.63.42-1.28.6-1.93a.16.16,0,0,0-.3-.08Z" transform="translate(0 0)"/><path class="cls-2" d="M112.05,48.38a8.51,8.51,0,0,1-7.61,5.85,8.68,8.68,0,0,1-8-5.49c-.17-.44-.88-.26-.71.2A8.89,8.89,0,0,0,110,52.53a8.53,8.53,0,0,0,2.69-4c.12-.39-.48-.55-.61-.16Z" transform="translate(0 0)"/><path class="cls-2" d="M144,99.45a6.11,6.11,0,0,1-1,1.29,6.2,6.2,0,0,1-.62.53l-.33.22c-.13.09-.27.16-.32.32a.18.18,0,0,0,.12.22.53.53,0,0,0,.43-.15,3.18,3.18,0,0,0,.37-.27,7,7,0,0,0,.63-.59,6.67,6.67,0,0,0,1-1.41c.09-.18-.16-.33-.26-.16Z" transform="translate(0 0)"/><path class="cls-2" d="M82.76,106.57c.89,2.63,1.79,5.26,2.73,7.87.45,1.27.91,2.54,1.37,3.81s.88,2.6,1.43,3.84c.1.23.47.07.4-.17-.39-1.28-.92-2.54-1.38-3.8s-1-2.61-1.42-3.92c-.93-2.57-1.87-5.14-2.79-7.72-.08-.21-.42-.13-.34.09Z" transform="translate(0 0)"/><path class="cls-2" d="M129.73,119.13a7.47,7.47,0,0,1-1,.43,5.25,5.25,0,0,1-.52.17,1,1,0,0,0-.49.24.14.14,0,0,0,.05.19.9.9,0,0,0,.58,0l.52-.19a9,9,0,0,0,1-.49.17.17,0,0,0-.17-.3Z" transform="translate(0 0)"/><path class="cls-2" d="M125.34,120.57c-2.39.24-4.77.5-7.16.7s-4.8.27-7.2.43a.19.19,0,0,0,0,.37c2.44,0,4.9-.21,7.32-.43s4.72-.49,7.06-.9c.1,0,.08-.18,0-.17Z" transform="translate(0 0)"/><path class="cls-2" d="M84.7,209.34c-1.58,1.63-3.89,1.9-6,2.21a15.52,15.52,0,0,0-5.91,2c-3.54,2.12-7,5.69-11.48,5.35a8.52,8.52,0,0,1-5.82-3.14c-.23-.26-.68.09-.48.38a8.12,8.12,0,0,0,4.8,3.17,9.41,9.41,0,0,0,6.06-.78,38.33,38.33,0,0,0,5.81-3.7A16.22,16.22,0,0,1,78.22,212c2.36-.39,4.94-.65,6.64-2.53.1-.1-.06-.26-.16-.16Z" transform="translate(0 0)"/><path class="cls-2" d="M63.65,213.85a3.48,3.48,0,0,0-.63-1.28,6.55,6.55,0,0,0-2-2c-.4-.27-.78-.56-1.2-.8a.2.2,0,0,0-.2.34,6.16,6.16,0,0,1,1.11.78c.16.15.3.32.45.48s.31.35.46.53a11.07,11.07,0,0,1,.76,1,9.78,9.78,0,0,0,.75,1.18c.21.24.52,0,.49-.29Z" transform="translate(0 0)"/><path class="cls-2" d="M68,211.22a6.17,6.17,0,0,0-1.5-2.58,6,6,0,0,0-1.18-.94,5.19,5.19,0,0,0-.66-.35,1.89,1.89,0,0,0-.71-.25c-.18,0-.33.26-.17.39a3,3,0,0,0,.63.28c.21.1.42.21.62.33a6.1,6.1,0,0,1,1.1.87,5.73,5.73,0,0,1,1.45,2.36c.09.27.5.16.42-.11Z" transform="translate(0 0)"/><path class="cls-2" d="M71.45,206.74a5.12,5.12,0,0,0-1.39-1.83,5.65,5.65,0,0,0-1-.66,1.79,1.79,0,0,0-1.15-.34.23.23,0,0,0-.1.38,1.39,1.39,0,0,0,.49.28,4.54,4.54,0,0,1,.45.21,5.12,5.12,0,0,1,.87.59A5.37,5.37,0,0,1,71,207c.17.32.62,0,.47-.27Z" transform="translate(0 0)"/><path class="cls-2" d="M32.81,198.32c-4.31.87-8.49-1.33-12.79-1.21-2.24,0-4.35,1-6.58,1S9,197.05,7.1,196,3,193.81,2.26,191.64c-.08-.24-.5-.22-.47.06.22,1.9,1.87,3.06,3.39,4a19.62,19.62,0,0,0,6.24,2.77,9.78,9.78,0,0,0,3.24.09c1.23-.17,2.42-.54,3.64-.77a19.48,19.48,0,0,1,7.25.44,17.85,17.85,0,0,0,7.31.3.09.09,0,0,0,0-.17Z" transform="translate(0 0)"/><path class="cls-2" d="M20.41,190.35a6.08,6.08,0,0,0-1-2.75,9.1,9.1,0,0,0-.87-1.17,3.15,3.15,0,0,0-1.08-.94c-.2-.07-.31.17-.25.33a3.43,3.43,0,0,0,.4.54c.13.16.27.32.39.49A11.49,11.49,0,0,1,18.7,188a24.68,24.68,0,0,1,1,2.45.37.37,0,0,0,.4.26.37.37,0,0,0,.31-.36Z" transform="translate(0 0)"/><path class="cls-2" d="M16.1,191.7a4.49,4.49,0,0,0-.61-2.68,5.51,5.51,0,0,0-.76-1c-.29-.29-.66-.68-1.1-.61a.21.21,0,0,0-.14.26c.1.35.5.54.75.79a4.33,4.33,0,0,1,1.3,3.21c0,.36.53.35.56,0Z" transform="translate(0 0)"/><path class="cls-2" d="M9.81,192.36a4.64,4.64,0,0,0-.53-1.79,5.65,5.65,0,0,0-1.2-1.38.18.18,0,0,0-.25.26,4.51,4.51,0,0,1,.91,1.4,6.39,6.39,0,0,1,.5,1.59c0,.32.6.25.57-.08Z" transform="translate(0 0)"/><path class="cls-2" d="M60.16,128c-.45.5-.88,1-1.31,1.53l-.59.75-.31.42a1.29,1.29,0,0,0-.24.43c0,.08.08.17.16.12a1.14,1.14,0,0,0,.3-.32c.09-.14.18-.27.28-.4q.28-.42.6-.81c.41-.54.83-1.06,1.27-1.57.09-.1-.06-.26-.16-.15Z" transform="translate(0 0)"/><path class="cls-2" d="M67.78,173.48c.54,1.91,1,3.83,1.48,5.76.21.95.41,1.9.6,2.86s.32,2,.58,3a.15.15,0,0,0,.29,0,40.8,40.8,0,0,0-1.16-5.76q-.69-2.94-1.56-5.85a.12.12,0,0,0-.23.06Z" transform="translate(0 0)"/><path class="cls-2" d="M99.11,190q-.28,3.24-.35,6.5c0,1.06,0,2.12,0,3.19a20.19,20.19,0,0,0,.15,3.11c0,.21.34.14.35-.05a31,31,0,0,0-.09-3.19c0-1.06,0-2.12,0-3.19,0-2.12.12-4.25.29-6.37,0-.21-.31-.21-.33,0Z" transform="translate(0 0)"/><path class="cls-2" d="M96.05,199.45c-.11,1.15-.16,2.29-.17,3.44,0,.58,0,1.15,0,1.72a6.42,6.42,0,0,0,.14,1.64.2.2,0,0,0,.4-.05,11.08,11.08,0,0,0-.14-1.72c0-.55-.08-1.1-.09-1.65,0-1.13,0-2.26.08-3.38,0-.16-.23-.15-.24,0Z" transform="translate(0 0)"/></g></g></svg>