<svg width="171" height="222" viewBox="0 0 171 222" fill="none" xmlns="http://www.w3.org/2000/svg">
<g clip-path="url(#clip0_51_2)">
<path d="M130.98 152.5H92.8701C89.6668 152.5 87.0701 155.097 87.0701 158.3V202.63C87.0701 205.833 89.6668 208.43 92.8701 208.43H130.98C134.183 208.43 136.78 205.833 136.78 202.63V158.3C136.78 155.097 134.183 152.5 130.98 152.5Z" fill="#E7B39B"/>
<path d="M131 208.48C124.72 208.48 112.1 208.64 105.83 208.75C101.64 208.83 97.4499 208.84 93.2499 208.87C92.4067 208.912 91.5637 208.783 90.7715 208.491C89.9793 208.199 89.2543 207.75 88.6398 207.171C88.0253 206.592 87.5341 205.895 87.1956 205.122C86.8571 204.348 86.6783 203.514 86.6699 202.67V199.52C86.7999 186.94 86.9999 174.36 86.9099 161.78V158.63C86.871 157.813 86.9966 156.996 87.2792 156.228C87.5619 155.461 87.9959 154.757 88.5555 154.16C89.1151 153.564 89.7889 153.085 90.5369 152.754C91.2849 152.422 92.0919 152.244 92.9099 152.23L118 152H130.58C131.72 151.936 132.856 152.181 133.868 152.709C134.88 153.237 135.73 154.029 136.33 155C137.56 156.65 137.21 159.49 137.26 161.41C137.26 173.52 137.06 186.97 136.88 199.15V202.3C136.903 203.095 136.767 203.886 136.481 204.628C136.195 205.37 135.765 206.047 135.215 206.621C134.665 207.195 134.007 207.654 133.278 207.972C132.549 208.289 131.765 208.459 130.97 208.47L131 208.48ZM131 208.38C131.777 208.369 132.544 208.202 133.254 207.888C133.965 207.574 134.606 207.121 135.137 206.554C135.669 205.988 136.082 205.32 136.35 204.591C136.619 203.862 136.738 203.086 136.7 202.31V199.16C136.49 186.96 136.31 173.55 136.33 161.42C136.27 159.76 136.61 157 135.54 155.56C135.031 154.742 134.311 154.075 133.456 153.63C132.601 153.185 131.642 152.978 130.68 153.03L118 153L92.8299 152.8C92.0738 152.804 91.3261 152.959 90.6312 153.257C89.9364 153.556 89.3087 153.991 88.7853 154.536C88.2619 155.082 87.8537 155.728 87.5847 156.434C87.3158 157.141 87.1918 157.895 87.2199 158.65V161.8C87.1099 175.42 87.3999 189.06 87.4799 202.68C87.4962 203.411 87.6593 204.131 87.9595 204.797C88.2597 205.463 88.6909 206.063 89.2273 206.559C89.7638 207.055 90.3946 207.439 91.0822 207.686C91.7698 207.934 92.5002 208.041 93.2299 208C97.4299 208 101.62 208 105.81 208.12C112.08 208.22 124.71 208.38 130.98 208.38H131Z" fill="#2B0E09"/>
<path d="M82.06 198.79C82.06 198.79 85.39 201.33 86.25 208.79C87.11 216.25 80.45 211.19 73.25 217.4C66.05 223.61 56.25 221.4 55 217.11C55.2137 215.781 55.7228 214.516 56.49 213.41C59.04 209.85 61.98 208.55 64.73 206.5C66.89 204.89 69.65 202.01 71.62 196.5C75.1926 196.834 78.7116 197.599 82.1 198.78L82.06 198.79Z" fill="#DF848C"/>
<path d="M82.08 198.75C85.27 201.52 86.41 205.92 86.72 210.02C86.86 212.88 84.81 213.81 82.38 214.09C80.3821 214.318 78.4263 214.827 76.57 215.6C74.68 216.39 73.19 217.85 71.47 218.92C69.7149 220.036 67.7566 220.794 65.7075 221.151C63.6585 221.508 61.5591 221.457 59.53 221C57.53 220.44 55.09 219.3 54.53 217C55.2 212.23 59.62 209.16 63.33 206.76C65.1815 205.558 66.7868 204.014 68.06 202.21C69.3567 200.39 70.4059 198.406 71.18 196.31C71.2087 196.232 71.2627 196.166 71.3334 196.123C71.4042 196.079 71.4875 196.061 71.57 196.07C75.1615 196.477 78.6825 197.362 82.04 198.7L82.08 198.75ZM82.08 198.83C78.6606 197.805 75.1399 197.155 71.58 196.89L71.98 196.64C71.2679 198.831 70.2585 200.914 68.98 202.83C66.51 206.83 61.88 208.59 58.65 211.66C57.8591 212.417 57.1578 213.263 56.56 214.18C56.0041 215.105 55.6148 216.12 55.41 217.18V217C56.97 220.78 62.11 221.39 65.73 220.82C67.7335 220.476 69.6417 219.712 71.33 218.58C73.03 217.45 74.44 215.86 76.33 214.97C78.2176 214.052 80.2457 213.457 82.33 213.21C84.39 212.9 86.1 212.45 86.01 210C85.8 206.11 84.89 201.77 82.13 198.82L82.08 198.83Z" fill="#2B0E09"/>
<path d="M98.7501 47.8701C98.7501 47.8701 84.5101 50.2801 82.8401 56.4101C81.1701 62.5401 71.3301 98.5801 71.3301 98.5801C71.3301 98.5801 78.5701 99.8801 81.9101 96.5801C85.2501 93.2801 93.5401 65.5801 93.5401 65.5801L98.7501 47.8701Z" fill="#7EA9D6"/>
<path d="M98.7101 47.9001C93.5001 49.3601 86.8501 50.7701 83.6401 55.5001C82.9913 57.3014 82.4438 59.1376 82.0001 61.0001C81.3401 63.5201 80.6201 66.0001 79.9301 68.5301C76.9901 78.5301 74.0801 88.5301 71.5601 98.6301L71.3501 98.2901C74.9101 98.6601 79.4901 98.7401 81.9101 95.7401C85.1801 90.1901 86.9101 83.7401 89.0901 77.7401C92.0001 69.2501 95.9301 56.4901 98.7101 47.9001ZM98.7801 47.8401C96.3501 56.8401 93.0801 69.4301 90.1001 78.0501C87.9101 84.2201 86.1001 90.6601 82.6401 96.3001C79.9101 99.5601 75.1101 99.3901 71.2801 98.8401C71.2423 98.8347 71.2062 98.8211 71.1743 98.8003C71.1424 98.7794 71.1155 98.7517 71.0954 98.7193C71.0754 98.6869 71.0627 98.6504 71.0584 98.6125C71.054 98.5746 71.058 98.5362 71.0701 98.5001C74.0701 88.5001 76.6101 78.4301 79.1601 68.3301C79.8401 65.8201 80.4801 63.3301 81.1601 60.7901C81.6501 58.859 82.2647 56.9617 83.0001 55.1101C84.1175 53.4084 85.6954 52.0593 87.5501 51.2201C91.0978 49.4785 94.9093 48.3364 98.8301 47.8401H98.7801Z" fill="#2B0E09"/>
<path d="M59.3701 147.66L64.2401 170.86C66.3201 179.687 68.4034 188.51 70.4901 197.33C70.934 199.061 72.0401 200.548 73.5701 201.47C76.1901 202.93 79.8601 202.31 82.4301 199.77C82.4301 199.77 84.2401 168.6 81.4301 150.09C80.7101 145.34 79.6701 141.43 78.2101 139.09C71.0001 127.64 59.3701 147.66 59.3701 147.66Z" fill="#8AAC91"/>
<path d="M59.42 147.67C61.92 158.04 64.27 169.41 66.79 179.74C68.04 185.08 69.21 190.44 70.39 195.8C70.75 198.45 72.18 201.14 74.94 201.8C77.5 202.68 80.74 201.18 82.26 199.72C82.9403 185.301 82.7299 170.853 81.63 156.46C81.09 151.2 80.52 145.65 78.53 140.73C73.38 129.02 63.29 141.54 59.42 147.63V147.67ZM59.32 147.67C63.19 140.62 73.5 128.14 79.37 140.41C81.24 144.59 81.8 149.23 82.37 153.72C82.94 158.21 83.15 162.78 83.27 167.27C83.61 178.12 83.19 188.97 82.57 199.8C78.01 204.48 70.86 202.8 69.87 195.95C68.53 190.62 67.17 185.3 65.87 179.95C63.32 169.62 61.22 158.16 59.26 147.66L59.32 147.67Z" fill="#2B0E09"/>
<path d="M64.7899 119.92C69.4399 118.43 82.6799 120.35 95.9799 122.92L98.7599 118.33L127.49 116.09C127.49 116.09 136.97 137.09 131.78 150.5C131.436 151.5 130.776 152.362 129.899 152.953C129.022 153.545 127.976 153.835 126.92 153.78C119.314 155.386 111.456 155.386 103.85 153.78C87.4299 150.18 80.0499 145.24 71.5499 143.54C66.4799 142.54 65.8699 150.88 63.4399 156.71C59.5399 166.11 51.1099 178.62 30.7999 190.46C28.4099 189.23 26.6899 188.21 25.5399 187.46L22.8899 185.79C22.8899 185.79 54.3299 123.3 64.7899 119.92Z" fill="#8AAC91"/>
<path d="M64.7799 119.88C69.9199 118.68 75.2899 119.68 80.4699 120.21C85.6799 120.89 90.8599 121.76 96.0199 122.72L95.7699 122.83L98.5199 118.21C98.5425 118.171 98.5743 118.137 98.6126 118.113C98.6509 118.089 98.6946 118.074 98.7399 118.07L113.1 116.84L127.46 115.67C127.551 115.662 127.643 115.683 127.722 115.73C127.8 115.776 127.863 115.846 127.9 115.93C129.259 119.154 130.415 122.461 131.36 125.83C133.21 132.53 134.36 139.65 133.13 146.58C132.85 148.318 132.311 150.003 131.53 151.58C131.048 152.34 130.378 152.963 129.584 153.387C128.79 153.811 127.9 154.022 127 154C117 156.13 106.61 155.14 96.8699 152.22C91.9826 150.838 87.1696 149.206 82.4499 147.33C80.0799 146.43 77.7099 145.52 75.2999 144.79C73.5499 144.38 71.7199 143.53 69.9099 143.91C67.0299 145.19 66.5299 148.91 65.5699 151.65C64.9136 154.127 64.054 156.545 62.9999 158.88C56.5399 172.88 44.2199 183.27 31.1099 190.94C31.0339 190.984 30.9477 191.007 30.8599 191.007C30.7721 191.007 30.6859 190.984 30.6099 190.94C28.3299 189.64 24.8299 187.72 22.6699 186.26C22.5617 186.193 22.4823 186.089 22.4472 185.967C22.412 185.845 22.4237 185.714 22.4799 185.6C25.4799 179.75 28.4799 173.93 31.6499 168.18C34.8199 162.43 37.9999 156.71 41.3599 151.07C46.3599 142.64 51.5399 134.2 57.6199 126.45C59.7099 124 61.7799 121.17 64.8299 119.87L64.7799 119.88ZM64.7799 119.97C55.5899 124.1 38.1299 158.32 32.3999 168.64C29.3399 174.43 26.2699 180.22 23.3199 186.07L23.1399 185.4C25.2899 186.83 28.7299 188.74 31.0099 190.02H30.4999C43.4999 182.41 55.6599 172.34 62.1699 158.52C64.6199 154.05 64.7599 148.52 67.9499 144.43C69.8799 142.16 73.0199 143.62 75.3899 144.26C77.7599 144.9 80.1999 145.94 82.5599 146.86C96.6199 152.48 111.66 157.14 126.85 153.58C127.689 153.616 128.522 153.427 129.264 153.033C130.006 152.64 130.629 152.055 131.07 151.34C131.79 149.796 132.282 148.156 132.53 146.47C133.65 139.64 132.35 132.65 130.53 126.05C129.587 122.726 128.431 119.466 127.07 116.29L127.51 116.55C120.33 117.11 105.94 118.14 98.7599 118.64L98.9899 118.5L96.1599 123.06C96.1355 123.103 96.098 123.136 96.053 123.156C96.008 123.176 95.9579 123.181 95.9099 123.17C90.7699 122.17 85.6099 121.17 80.4199 120.41C75.2699 119.83 69.9099 118.81 64.7899 119.96L64.7799 119.97Z" fill="#2B0E09"/>
<path d="M87.8301 51.6502C93.5401 47.3302 101.91 47.7402 112.58 48.2902C117.91 48.5602 122.58 49.4302 126.14 52.5002C126.855 53.1227 127.505 53.8163 128.08 54.5702C128.847 66.7035 129.417 79.1635 129.79 91.9502C130.083 102.43 130.223 112.697 130.21 122.75C122.242 124.996 113.954 125.888 105.69 125.39C100.552 125.084 95.4602 124.236 90.5001 122.86C87.6264 111.792 85.5016 100.544 84.1401 89.1902C83.3235 82.8888 82.886 76.544 82.8301 70.1902" fill="#7EA9D6"/>
<path d="M87.7999 51.6101C93.6499 47.1401 101.55 47.6101 108.52 47.7401C115.49 47.8701 123.86 48.0901 128.43 54.3101C129.33 71.3101 129.86 88.6301 130.18 105.69L130.56 122.75C130.563 122.824 130.541 122.897 130.497 122.957C130.454 123.016 130.391 123.06 130.32 123.08C123.822 124.979 117.09 125.962 110.32 126C103.562 126.069 96.8285 125.18 90.3199 123.36C90.2411 123.331 90.1706 123.283 90.1148 123.22C90.0589 123.157 90.0195 123.082 89.9999 123C87.7627 114.374 86.0265 105.626 84.7999 96.8001C83.4445 87.9987 82.7758 79.1052 82.7999 70.2001C82.7999 70.1868 82.8052 70.1741 82.8146 70.1647C82.824 70.1554 82.8367 70.1501 82.8499 70.1501C82.8632 70.1501 82.8759 70.1554 82.8853 70.1647C82.8947 70.1741 82.8999 70.1868 82.8999 70.2001C83.4273 83.5182 85.1339 96.7634 87.9999 109.78C88.9099 114.12 89.9099 118.44 90.9999 122.78L90.6299 122.41C93.8424 123.291 97.1095 123.959 100.41 124.41C110.343 125.76 120.446 125.1 130.12 122.47L129.87 122.8L129.78 105.8C129.98 89.0301 128.17 70.6201 127.78 54.9401C123.33 48.9401 115.36 48.8701 108.54 48.5401C101.72 48.2101 93.6599 47.8801 87.8499 51.7101L87.7999 51.6101Z" fill="#2B0E09"/>
<path d="M119.09 67.64C123.09 79.35 135.9 100.81 138.04 102.16C140.64 103.8 146.32 102.65 145.87 97.09C145.42 91.53 131.07 50.38 122.87 50.75" fill="#7EA9D6"/>
<path d="M119.14 67.6302C122.39 75.6302 126.63 83.2402 130.88 90.7802C133.04 94.4802 135.04 98.4402 137.8 101.7C140.16 103.78 144.72 102.45 145.44 99.3202C145.69 98.2986 145.69 97.2318 145.44 96.2102C144.336 92.033 143.021 87.9144 141.5 83.8702C140.01 79.8102 138.41 75.7802 136.74 71.7902C134.15 65.8702 131.58 59.8602 127.82 54.5802C126.54 52.9902 125.11 50.9502 122.9 50.8002C122.887 50.8002 122.874 50.7949 122.865 50.7855C122.855 50.7762 122.85 50.7635 122.85 50.7502C122.85 50.7369 122.855 50.7242 122.865 50.7148C122.874 50.7055 122.887 50.7002 122.9 50.7002C130.61 51.1102 139.9 76.6202 142.38 83.5602C143.868 87.6572 145.077 91.8501 146 96.1102C146.45 98.2802 145.84 100.86 143.87 102.11C141.9 103.36 139.3 103.46 137.57 101.98C132.06 95.2402 127.86 87.5102 123.96 79.7502C122.2 75.9102 119.96 71.5302 119.14 67.6502V67.6302Z" fill="#2B0E09"/>
<path d="M99.1501 112.81C101.03 112.96 101.22 108.81 105.37 106.59C108.05 105.14 109.82 105.89 111.73 104.03C112.854 102.818 113.556 101.274 113.73 99.6301C117.65 100.224 121.528 101.069 125.34 102.16C127.886 102.926 130.474 103.547 133.09 104.02C134.384 104.299 135.698 104.47 137.02 104.53C143.02 104.36 145.95 101.12 145.52 97.7901C145 93.0001 125.51 89.3501 109.3 95.6201C105.81 96.9701 96.5601 100.56 96.0401 106.62C95.8001 109.44 97.5201 112.68 99.1501 112.81Z" fill="#ED9A80"/>
<path d="M99.1599 112.76C99.3692 112.764 99.5764 112.719 99.7644 112.626C99.9523 112.534 100.115 112.398 100.24 112.23C101.06 111.23 101.58 109.99 102.41 108.97C104.085 106.881 106.49 105.505 109.14 105.12C111.69 104.53 113.07 102.03 113.37 99.5701C113.387 99.4646 113.445 99.3701 113.531 99.3066C113.617 99.2431 113.724 99.2156 113.83 99.2301C117.981 99.807 122.075 100.734 126.07 102C130.07 103.07 134.07 104.51 138.21 104.32C141.16 104.07 144.57 102.64 145.3 99.5101C145.439 99.0397 145.466 98.5435 145.379 98.0609C145.292 97.5782 145.094 97.1225 144.8 96.7301C139.73 92.1501 127.52 92.4601 120.99 93.2801C114.12 94.1201 95.4799 99.0201 96.1599 107.82C96.3899 109.68 97.1599 112.25 99.1599 112.82V112.76ZM99.1599 112.86C98.6524 112.72 98.1829 112.468 97.7864 112.122C97.3899 111.775 97.0767 111.344 96.8699 110.86C96.0959 109.454 95.7883 107.838 95.9913 106.246C96.1944 104.654 96.8977 103.167 97.9999 102C106.44 93.5301 121.93 90.8801 133.44 92.1701C136.89 92.6401 145.15 93.8901 145.8 97.9901C146.1 103.35 139.44 105.35 135.1 104.58C127.86 103.58 120.95 101.11 113.73 100.08L114.2 99.7401C113.988 101.574 113.113 103.266 111.74 104.5C110.36 105.77 108.4 105.71 106.74 106.25C104.28 107.117 102.256 108.912 101.1 111.25C100.63 111.94 100.1 112.94 99.1499 112.87L99.1599 112.86Z" fill="#2B0E09"/>
<path d="M108.68 40.25L109.06 49.02C109.06 49.02 103.68 55.49 98.8299 49.46L98.3899 39.24L108.68 40.25Z" fill="#ED9A80"/>
<path d="M108.71 40.2202C109.09 43.0402 109.38 46.0902 109.5 49.0002C109.504 49.0543 109.497 49.1087 109.48 49.1602C109.463 49.2117 109.436 49.2593 109.4 49.3002C106.4 52.7202 101.35 53.4202 98.56 49.4702C98.22 46.0802 98 42.6702 97.85 39.2602C97.8446 39.1186 97.895 38.9805 97.9904 38.8758C98.0858 38.771 98.2185 38.708 98.36 38.7002C101.81 39.0602 105.36 39.6302 108.71 40.2202V40.2202ZM108.64 40.2902C105.11 40.1802 101.78 40.0602 98.33 39.7702L98.92 39.2102C99 42.3602 99.28 46.7702 99.05 49.2902C101.84 53.3602 105.96 52.0502 108.71 48.7302L108.61 49.0402C108.48 46.1002 108.54 43.3002 108.61 40.2902H108.64Z" fill="#2B0E09"/>
<path d="M96.3501 125.11H50.9801L37.3301 91.1802H82.6301L96.3501 125.11Z" fill="#044443"/>
<path d="M96.39 125.15C82.92 125.28 64.26 125.74 50.98 125.48C50.908 125.48 50.8377 125.458 50.7787 125.417C50.7196 125.376 50.6747 125.318 50.65 125.25C47.48 116.96 43.93 107.89 40.58 99.7302L37.08 91.2801C37.0637 91.2392 37.0576 91.195 37.0623 91.1512C37.0671 91.1074 37.0824 91.0655 37.1071 91.029C37.1317 90.9925 37.1649 90.9626 37.2038 90.9419C37.2426 90.9212 37.286 90.9103 37.33 90.9102C52.43 90.7302 67.53 90.6101 82.63 90.6701C82.7309 90.6721 82.8291 90.7034 82.9126 90.7602C82.9961 90.817 83.0612 90.8969 83.1 90.9901C85.42 96.7201 87.6 102.48 89.83 108.19L96.39 125.19V125.15ZM96.31 125.09C92.11 115.19 86.19 101.09 82.16 91.3702L82.63 91.6902C67.53 91.7602 52.43 91.6901 37.33 91.4501L37.59 91.0802L40.91 99.6001C44.12 107.8 47.91 116.82 51.31 124.98L50.98 124.76C64.05 124.56 83.04 124.9 96.31 125.09V125.09Z" fill="#2B0E09"/>
<path d="M50.45 123.79H110.36V125.11H50.9799L50.45 123.79Z" fill="#044443"/>
<path d="M50.4101 123.77C64.3501 123.45 81.4101 123.32 95.3401 123.62C100.34 123.68 105.34 123.62 110.34 123.54C110.406 123.54 110.47 123.566 110.517 123.613C110.564 123.66 110.59 123.724 110.59 123.79C110.59 123.79 110.59 125.11 110.59 125.12C110.59 125.193 110.562 125.262 110.512 125.314C110.461 125.367 110.393 125.397 110.32 125.4C105.367 125.487 100.413 125.55 95.4601 125.59C80.6201 125.71 65.7701 125.59 50.9301 125.21C50.9119 125.211 50.8941 125.205 50.8796 125.194C50.865 125.183 50.8546 125.168 50.8501 125.15L50.3601 123.77H50.4101ZM50.4901 123.77L51.0601 125.04L51.0001 125C55.9534 124.847 60.9001 124.743 65.8401 124.69C75.7401 124.537 85.6368 124.513 95.5301 124.62C100.477 124.62 105.427 124.683 110.38 124.81L110.1 125.09V123.77L110.36 124.02C105.36 123.94 100.36 123.88 95.4201 123.94C81.4901 124.25 64.4201 124.09 50.4901 123.79V123.77Z" fill="#2B0E09"/>
<path d="M62.4301 108.15C62.331 107.903 62.2965 107.635 62.3296 107.371C62.3627 107.107 62.4625 106.855 62.6195 106.64C62.7764 106.425 62.9855 106.254 63.227 106.142C63.4685 106.03 63.7345 105.981 64.0001 106C64.6282 106.034 65.231 106.26 65.7278 106.646C66.2245 107.032 66.5917 107.56 66.7801 108.16C66.8799 108.405 66.9162 108.672 66.8855 108.935C66.8548 109.198 66.7581 109.448 66.6045 109.664C66.4508 109.879 66.2451 110.053 66.0066 110.167C65.768 110.282 65.5044 110.335 65.2401 110.32C64.6058 110.29 63.9962 110.065 63.4936 109.677C62.9911 109.289 62.6198 108.756 62.4301 108.15V108.15Z" fill="white"/>
<path d="M62.38 108.16C61.87 106.79 62.69 105.22 64.33 105.6C65.5056 106.048 66.4624 106.933 67 108.07C67.1397 108.401 67.1879 108.763 67.1396 109.118C67.0912 109.474 66.948 109.81 66.7251 110.091C66.5021 110.373 66.2076 110.589 65.8724 110.717C65.5372 110.845 65.1737 110.881 64.82 110.82C64.1928 110.67 63.6243 110.337 63.1864 109.863C62.7485 109.39 62.4609 108.797 62.36 108.16H62.38ZM62.48 108.16C62.83 109.36 65.16 110.29 66.12 109.49C66.2655 109.292 66.3703 109.068 66.4285 108.829C66.4867 108.59 66.497 108.342 66.4589 108.1C66.4208 107.857 66.335 107.624 66.2064 107.415C66.0779 107.206 65.9092 107.024 65.71 106.88C64.59 106.05 62.02 106.32 62.48 108.16V108.16Z" fill="#2B0E09"/>
<path d="M83.0001 28.7901C83.5001 31.6012 84.291 34.3527 85.3601 37.0001C87.6501 42.5201 91.0001 46.6802 94.6601 47.3102C96.0081 47.437 97.3679 47.2942 98.6601 46.8901C102.361 46.0509 105.796 44.3092 108.66 41.8201C109.69 40.9473 110.623 39.9648 111.44 38.8901C119.44 28.3201 112.06 7.89015 101.72 3.89015C99.2092 2.94762 96.4915 2.69553 93.8501 3.16015C93.5498 3.20948 93.2526 3.27626 92.9601 3.36015C91.9269 3.67049 90.9386 4.11423 90.0201 4.68015C88.4489 5.71031 87.0853 7.02647 86.0001 8.56015C83.5801 11.7301 82.4801 16.1401 82.3601 20.8501C82.3056 23.5116 82.52 26.1718 83.0001 28.7901V28.7901Z" fill="#ED9A80"/>
<path d="M82.9999 28.7801C84.2099 35.4901 89.3799 49.3401 98.1599 46.5801C104.16 45.3001 110.16 41.7501 112.95 36.0801C117.81 26.0801 111.62 7.88006 100.85 4.08006C93.0499 1.49006 86.1299 6.29006 83.6999 13.7701C82.2432 18.6376 82.0029 23.7881 82.9999 28.7701V28.7801ZM82.8999 28.7801C81.6099 21.4101 81.4299 12.7201 86.7499 6.78006C92.0599 0.360063 102.48 1.28006 107.62 7.44006C114.25 15.0001 117.19 26.7501 113.26 36.1901C111.1 40.8901 106.75 44.3001 102.05 46.2801C99.6199 47.1001 97.0499 48.1001 94.3999 47.6801C87.1899 45.6801 84.1999 35.2901 82.8999 28.7601V28.7801Z" fill="#2B0E09"/>
<path d="M85.15 4.27001C87.2502 2.79876 89.7918 2.09278 92.3499 2.27001C96.42 -0.379985 103.11 0.850015 103.91 1.00001C108.373 1.97772 112.357 4.47714 115.18 8.07001C127.34 23.18 116.85 42.94 114.42 44.23C111.29 45.89 105.72 46.59 105.72 45.7C107 39.3 106.31 28.7 104.81 25.61C103.13 22.16 99.29 23.61 95.01 20.03C92.7929 18.0779 91.1041 15.5981 90.0999 12.82C86.9995 14.9729 84.3639 17.7276 82.35 20.92C79.36 14.48 80.8 7.53001 85.15 4.27001Z" fill="#471D0A"/>
<path d="M85.1199 4.23C87.2026 2.73115 89.7385 1.99651 92.2999 2.15C94.9999 0.470003 98.2199 0.230003 101.28 0.390003C104.413 0.560913 107.459 1.48337 110.16 3.07943C112.861 4.6755 115.139 6.89828 116.8 9.56C122.18 17.34 122.12 27.68 119.07 36.31C117.95 39.17 116.9 42.26 114.59 44.4C111.983 45.8164 109.044 46.5071 106.08 46.4C105.77 46.33 105.37 46.17 105.39 45.71C106.133 40.7131 106.167 35.6363 105.49 30.63C104.61 21.97 101.49 24.95 95.7999 21.32C92.9316 19.2545 90.7784 16.3463 89.6399 13L90.3699 13.25C87.3071 15.3643 84.6709 18.0378 82.5999 21.13C82.5674 21.1729 82.5243 21.2067 82.4749 21.2279C82.4254 21.2491 82.3713 21.2571 82.3178 21.251C82.2643 21.2449 82.2133 21.2251 82.1699 21.1933C82.1264 21.1616 82.092 21.1191 82.0699 21.07C79.6199 15.57 80.0699 8.07 85.1199 4.24V4.23ZM85.1799 4.31C80.1799 8.15 79.9899 15.54 82.6399 20.8L82.0899 20.75C84.093 17.4823 86.7277 14.647 89.8399 12.41C89.9478 12.3413 90.0782 12.3175 90.2034 12.3436C90.3286 12.3698 90.4386 12.4438 90.5099 12.55C91.6306 15.7012 93.6765 18.4407 96.3799 20.41C102.59 24.03 105.45 21.25 106.44 30.46C107.081 35.5539 106.95 40.7154 106.05 45.77V45.71C106.05 45.62 106.05 45.61 106.05 45.64L106.23 45.7C109.041 45.8463 111.843 45.2605 114.36 44C116.56 42 117.69 38.93 118.77 36.2C121.87 27.66 121.43 17.59 116.09 10.04C114.466 7.49577 112.286 5.35368 109.714 3.7755C107.141 2.19733 104.244 1.22434 101.24 0.930003C98.2399 0.660003 95.0499 0.770003 92.4099 2.33C89.8425 2.15394 87.2919 2.85951 85.1799 4.33V4.31Z" fill="#2B0E09"/>
<path d="M104.2 27.82C104.244 27.3758 104.379 26.9454 104.596 26.5551C104.812 26.1647 105.107 25.8228 105.46 25.55C105.779 25.3121 106.142 25.14 106.529 25.0439C106.915 24.9477 107.317 24.9294 107.71 24.99C109.52 25.49 110.4 28.99 109.71 31.69C109.3 33.35 108.01 35.8601 106.29 35.8101C105.948 35.7867 105.615 35.6908 105.314 35.5287C105.012 35.3667 104.748 35.1421 104.54 34.87" fill="#ED9A80"/>
<path d="M104.15 27.81C104.103 27.3325 104.17 26.8506 104.348 26.4048C104.525 25.9589 104.807 25.5621 105.169 25.2476C105.532 24.9332 105.964 24.7102 106.431 24.5976C106.897 24.4849 107.384 24.4857 107.85 24.6C109.63 25.49 109.85 27.6 110.21 29.27C110.6 31.8 109.65 35.27 106.89 36.13C106.415 36.1963 105.931 36.1136 105.504 35.8933C105.078 35.673 104.731 35.326 104.51 34.9C104.501 34.8894 104.496 34.8756 104.497 34.8615C104.498 34.8474 104.504 34.8343 104.515 34.825C104.526 34.8158 104.539 34.8111 104.553 34.812C104.568 34.8129 104.581 34.8194 104.59 34.83C106.98 36.83 108.59 33.64 109.24 31.68C109.795 30.1247 109.795 28.4254 109.24 26.87C109.115 26.5206 108.907 26.207 108.633 25.9568C108.359 25.7065 108.028 25.5271 107.669 25.4344C107.31 25.3416 106.934 25.3383 106.573 25.4247C106.212 25.5111 105.878 25.6846 105.6 25.93C104.956 26.3983 104.479 27.0607 104.24 27.82C104.24 27.8333 104.235 27.846 104.225 27.8554C104.216 27.8648 104.203 27.87 104.19 27.87C104.177 27.87 104.164 27.8648 104.155 27.8554C104.145 27.846 104.14 27.8333 104.14 27.82L104.15 27.81Z" fill="#2B0E09"/>
<path d="M0.0599857 193.17C4.24999 187.06 9.52999 190.32 13.74 187.17C16.35 185.23 21.52 184.05 24.24 183.17C26.78 186.81 29.05 188.85 33.93 188.62C34.35 190.35 34.69 193.62 33.19 198.43C30.87 205.86 26.7 198.26 17.19 201.11C7.67999 203.96 -0.530014 197.71 0.0599857 193.17Z" fill="#DF848C"/>
<path d="M0 193.15C0.565986 192.157 1.32313 191.286 2.22768 190.588C3.13223 189.889 4.16626 189.377 5.27 189.08C7.47 188.45 9.77 188.55 11.76 187.79C13.82 186.79 15.35 185.42 17.7 184.79C19.82 184.02 22.01 183.5 24.13 182.87C24.1935 182.85 24.2618 182.851 24.3249 182.872C24.3879 182.894 24.4423 182.935 24.48 182.99C26.03 185.42 28.05 187.78 31.01 188.29C31.9637 188.457 32.9333 188.514 33.9 188.46C33.9406 188.457 33.9811 188.468 34.0142 188.492C34.0472 188.516 34.0706 188.551 34.08 188.59C34.98 191.78 34.46 200.36 31.19 202.01C29.59 202.65 27.87 201.94 26.36 201.62C24.4269 201.093 22.4191 200.893 20.42 201.03C18.36 201.16 16.42 202.03 14.42 202.22C12.3082 202.452 10.1713 202.269 8.13 201.68C4.38 200.54 -0.29 197.6 0.04 193.17L0 193.15ZM0.09 193.15C0.14 197.35 4.72 199.84 8.31 200.82C10.2542 201.307 12.2729 201.422 14.26 201.16C16.26 200.93 18.26 200.06 20.32 199.92C23.49 199.5 26.53 200.77 29.53 201.27C31.7 201.6 32.53 199.35 33.01 197.62C34.0294 194.734 34.2776 191.632 33.73 188.62L33.91 188.75C29.63 189.11 26.26 186.75 23.91 183.3L24.28 183.42C22.16 184.18 20.02 184.78 17.96 185.54C15.9 186.3 14.06 187.63 11.96 188.54C9.73 189.34 7.44 189.14 5.33 189.62C3.18184 190.112 1.28888 191.375 0.01 193.17L0.09 193.15Z" fill="#2B0E09"/>
<path d="M104.88 25.2101C98.2001 23.3701 91.5401 22.0401 85.1801 24.7701C84.3945 23.8961 83.9724 22.755 84.0001 21.5801C83.8338 22.8496 83.7669 24.1302 83.8001 25.4101C82.9013 25.846 82.0267 26.33 81.1801 26.8601C79.9857 23.5973 79.4421 20.132 79.5801 16.6601C79.5616 14.8698 79.7768 13.0848 80.2201 11.3501C82.0501 5.14013 85.0801 2.77013 92.2201 2.10013C92.2201 2.10013 102.22 -2.71987 111.54 4.38013" fill="#471D0A"/>
<path d="M105 24.7201C98.4901 22.9301 91.5001 21.5601 85.0001 24.2801L85.4801 24.4101C84.8276 23.6118 84.474 22.611 84.4801 21.5801C84.4801 21.4475 84.4274 21.3203 84.3337 21.2265C84.2399 21.1327 84.1127 21.0801 83.9801 21.0801C83.8475 21.0801 83.7203 21.1327 83.6265 21.2265C83.5328 21.3203 83.4801 21.4475 83.4801 21.5801C83.3135 22.8496 83.2467 24.1301 83.2801 25.4101L83.5201 24.9801C82.6301 25.4201 81.7501 25.9001 80.9101 26.4201L81.6401 26.7201C80.7846 24.4284 80.2756 22.0219 80.1301 19.5801C79.9396 17.2843 80.0303 14.9739 80.4001 12.7001C81.0001 9.78007 82.3001 6.58007 84.8201 4.82007C86.0361 4.01392 87.3931 3.44399 88.8201 3.14007C89.6998 2.9318 90.5915 2.77818 91.4901 2.68007C91.8643 2.66523 92.2346 2.5979 92.5901 2.48007L92.7801 2.40007L93.2601 2.21007C93.6801 2.06007 94.1001 1.92007 94.5301 1.80007C95.8353 1.42029 97.1754 1.17239 98.5301 1.06007C103.094 0.693077 107.633 2.02894 111.27 4.81007C111.78 5.20007 112.27 4.33007 111.77 3.94007C109.031 1.89689 105.811 0.594353 102.422 0.158193C99.0321 -0.277968 95.5875 0.166974 92.4201 1.45007C92.2601 1.5377 92.0928 1.61131 91.9201 1.67007C92.0901 1.67007 91.6001 1.67007 91.5301 1.67007L90.8401 1.75007C90.3701 1.81007 89.9001 1.89007 89.4401 1.98007C87.8432 2.23754 86.3055 2.77946 84.9001 3.58007C82.2201 5.17007 80.7501 7.92007 79.8501 10.8101C79.1567 13.3755 78.9031 16.0399 79.1001 18.6901C79.1757 21.528 79.7127 24.3347 80.6901 27.0001C80.7105 27.0734 80.7474 27.1411 80.7979 27.1981C80.8485 27.255 80.9113 27.2996 80.9817 27.3285C81.0522 27.3575 81.1283 27.37 81.2042 27.365C81.2802 27.3601 81.354 27.3379 81.4201 27.3001C82.2547 26.7698 83.1158 26.2825 84.0001 25.8401C84.0771 25.7981 84.1411 25.7358 84.1851 25.66C84.2292 25.5842 84.2517 25.4977 84.2501 25.4101C84.2167 24.1301 84.2835 22.8496 84.4501 21.5801H83.4501C83.4577 22.8826 83.9333 24.139 84.7901 25.1201C84.8506 25.1835 84.9273 25.2292 85.0119 25.2521C85.0966 25.275 85.1858 25.2743 85.2701 25.2501C91.5801 22.5901 98.3501 23.9401 104.71 25.6901C104.843 25.7245 104.984 25.7049 105.102 25.6355C105.22 25.5662 105.306 25.4527 105.34 25.3201C105.375 25.1875 105.355 25.0466 105.286 24.9284C105.216 24.8103 105.103 24.7245 104.97 24.6901L105 24.7201Z" fill="#2B0E09"/>
<path d="M101.08 57.42H100.97L100.75 57.51C100.642 57.5678 100.55 57.65 100.48 57.75C100.428 57.8128 100.388 57.8838 100.36 57.96C100.303 58.0712 100.275 58.1952 100.28 58.32V58.57L100.37 58.8C100.428 58.9046 100.51 58.9937 100.61 59.06C100.701 59.1417 100.811 59.2 100.93 59.23H101.04C101.211 59.2701 101.389 59.2701 101.56 59.23C101.724 59.1916 101.875 59.1125 102 59L102.15 58.8C102.241 58.6529 102.29 58.4832 102.29 58.31C102.29 58.1813 102.259 58.0545 102.2 57.94C102.163 57.8205 102.094 57.7133 102 57.63C101.883 57.5132 101.739 57.4273 101.58 57.38C101.41 57.33 101.23 57.33 101.06 57.38L101.08 57.42Z" fill="#FFF3E9"/>
<path d="M100.3 65.15L100.49 65L100.72 64.9H100.63L100.4 65C100.292 65.0616 100.2 65.1471 100.13 65.25C100.072 65.3078 100.03 65.3804 100.01 65.46C99.9498 65.5776 99.9189 65.708 99.9199 65.84V66.09L100.02 66.32C100.078 66.4276 100.16 66.5201 100.26 66.59C100.353 66.6764 100.467 66.7382 100.59 66.77V66.77H100.72H100.87H101.13C101.209 66.7428 101.286 66.7093 101.36 66.67V66.67L101.57 66.51C101.66 66.4201 101.729 66.3107 101.77 66.19C101.828 66.0756 101.855 65.9482 101.85 65.82C101.853 65.6921 101.826 65.5652 101.77 65.45C101.729 65.3324 101.66 65.2261 101.57 65.14L101.37 64.99C101.222 64.9017 101.052 64.8566 100.88 64.86H100.63C100.468 64.9058 100.32 64.9918 100.2 65.11L100.3 65.15Z" fill="#FFF3E9"/>
<path d="M100.51 73.17L100.69 73.03H101.69H101.57C101.496 72.9902 101.414 72.9696 101.33 72.97C101.202 72.9351 101.068 72.9351 100.94 72.97L100.71 73.07C100.6 73.1285 100.507 73.2147 100.44 73.32L100.36 73.42L100.51 73.22L100.7 73.07L100.51 73.22L100.69 73.08C100.56 73.1608 100.451 73.2703 100.37 73.4C100.284 73.5382 100.239 73.6975 100.24 73.86C100.237 74.0228 100.282 74.183 100.37 74.32C100.447 74.4553 100.557 74.5689 100.69 74.65V74.65L100.91 74.74H101.16H101.43H101.55H101.67C101.709 74.7217 101.743 74.6943 101.77 74.66C101.843 74.6197 101.905 74.5611 101.95 74.49C102.007 74.4273 102.048 74.3519 102.07 74.27C102.074 74.2301 102.074 74.1899 102.07 74.15C102.075 74.1101 102.075 74.0699 102.07 74.03C102.09 73.9445 102.09 73.8555 102.07 73.77C102.072 73.6816 102.047 73.5946 102 73.52C102.004 73.4801 102.004 73.4399 102 73.4L102.1 74.14V73.89C102.1 73.89 102.1 73.81 102.1 73.77V73.65C102.06 73.4989 101.98 73.3611 101.869 73.2505C101.759 73.1399 101.621 73.0604 101.47 73.02C101.31 72.9701 101.139 72.9701 100.98 73.02C100.83 73.0644 100.694 73.1432 100.58 73.25L100.51 73.17Z" fill="#FFF3E9"/>
<path d="M148.06 195.55C149.24 194.812 150.18 193.747 150.766 192.485C151.352 191.223 151.558 189.818 151.36 188.44L151.15 182.93C151.06 180.55 150.99 178.08 151.95 175.93C152.73 174.17 154.14 172.71 154.7 170.87C155.55 168.06 154.22 165.02 154.56 162.1C154.9 159.18 156.69 156.95 158.2 154.57C159.71 152.19 161.02 149.36 160.25 146.65C159.6 144.41 157.57 142.46 157.94 140.15C157.578 140.189 157.234 140.331 156.951 140.56C156.667 140.789 156.455 141.094 156.34 141.44C156.122 142.134 155.995 142.853 155.96 143.58C155.737 145.595 154.891 147.489 153.54 149C151.98 150.68 149.67 151.88 149.05 154.09C148.76 155.09 148.9 156.25 148.65 157.31C148.23 159.04 146.83 160.31 145.59 161.6C144.35 162.89 143.15 164.48 143.32 166.26C143.46 167.61 144.37 168.75 144.8 170.04C145.48 172.04 144.91 174.28 144.13 176.27C143.35 178.26 142.37 180.22 142.19 182.34C142.01 184.46 142.69 186.71 142.4 188.87C142.14 190.75 141.17 192.71 141.96 194.44C142.253 194.985 142.667 195.455 143.169 195.816C143.672 196.176 144.25 196.417 144.86 196.52C146.079 196.715 147.321 196.715 148.54 196.52" fill="#59724E"/>
<path d="M148.2 195.69C149.582 194.644 150.656 193.245 151.31 191.64C151.554 190.66 151.632 189.646 151.54 188.64C151.54 187.53 151.45 186.41 151.41 185.3C151.252 183.234 151.228 181.159 151.34 179.09C151.427 177.943 151.711 176.82 152.18 175.77C152.606 174.944 153.084 174.146 153.61 173.38C154.653 171.872 155.192 170.073 155.15 168.24C155.07 166.18 154.49 164.14 154.74 162.08C155.22 158.08 158.5 155.25 159.95 151.67C160.375 150.752 160.614 149.758 160.652 148.747C160.689 147.736 160.526 146.727 160.17 145.78C159.41 143.94 157.86 142.22 158.17 140.1C158.168 140.051 158.147 140.004 158.112 139.968C158.076 139.933 158.03 139.913 157.98 139.91C155.71 140.09 155.98 143.12 155.64 144.68C155.057 146.855 153.787 148.784 152.02 150.18C150.57 151.41 149.07 152.68 148.79 154.67C148.61 155.98 148.7 157.24 148.03 158.43C147.445 159.378 146.735 160.242 145.92 161C144.5 162.44 142.92 164.24 143.21 166.43C143.461 167.446 143.851 168.422 144.37 169.33C144.917 170.571 145.074 171.948 144.82 173.28C144.41 175.71 143.12 177.85 142.43 180.19C142.096 181.325 141.954 182.508 142.01 183.69C142.07 184.98 142.29 186.25 142.3 187.54C142.191 188.948 141.957 190.344 141.6 191.71C141.331 192.789 141.485 193.931 142.03 194.9C143.45 197.08 146.32 196.9 148.58 196.67C148.84 196.67 148.85 196.24 148.58 196.26C146.45 196.45 143.48 196.67 142.28 194.44C141.842 193.333 141.814 192.106 142.2 190.98C142.491 189.932 142.669 188.856 142.73 187.77C142.73 185.34 142.11 183.03 142.73 180.62C143.32 178.4 144.5 176.39 145.04 174.15C145.301 173.139 145.379 172.089 145.27 171.05C145.096 170.083 144.757 169.153 144.27 168.3C143.62 167.279 143.394 166.045 143.64 164.86C144.024 163.744 144.664 162.734 145.51 161.91C146.79 160.53 148.37 159.22 148.83 157.3C149.1 156.16 148.91 154.95 149.3 153.83C149.668 152.918 150.252 152.109 151 151.47C152.55 150.02 154.19 148.84 155.15 146.88C155.648 145.897 155.986 144.84 156.15 143.75C156.32 142.52 156.31 140.42 158 140.3L157.81 140.05C157.59 141.66 158.36 143.05 159.1 144.42C159.576 145.216 159.94 146.074 160.18 146.97C160.4 148.009 160.369 149.086 160.09 150.11C159.09 153.88 156.04 156.61 154.84 160.27C154.344 162.114 154.276 164.046 154.64 165.92C154.9 168 155.09 170.04 154.1 171.97C153.27 173.6 152.1 174.97 151.51 176.77C151.039 178.624 150.88 180.544 151.04 182.45C151.12 184.86 151.34 187.3 151.26 189.71C151.246 190.895 150.876 192.048 150.2 193.02C149.542 193.88 148.798 194.671 147.98 195.38C147.78 195.56 148.07 195.84 148.26 195.66L148.2 195.69Z" fill="#2B0E09"/>
<path d="M139.18 197.79C140.54 195.96 140.04 193.34 138.98 191.33C137.92 189.32 136.34 187.58 135.52 185.46C134.52 182.88 134.69 179.86 133.25 177.46C131.81 175.06 129.19 173.87 128.12 171.46C127.05 169.05 127.7 165.91 125.77 164.19C125.17 163.65 124.4 163.34 123.77 162.82C122.6 161.82 122.25 160.16 121.77 158.7C121.29 157.24 120.31 155.7 118.77 155.45C119.25 157.235 119.409 159.09 119.24 160.93C119.012 162.198 118.979 163.493 119.14 164.77C119.46 166.23 120.49 167.42 121.14 168.77C122.044 170.644 122.532 172.69 122.57 174.77C122.536 175.991 122.726 177.208 123.13 178.36C123.681 179.289 124.306 180.172 125 181C127.55 184.86 126.11 190.47 128.9 194.17C129.737 195.245 130.87 196.053 132.16 196.493C133.45 196.934 134.84 196.988 136.16 196.65" fill="#59724E"/>
<path d="M139.32 197.87C141.44 195.03 139.41 191.44 137.75 188.95C136.64 187.441 135.804 185.748 135.28 183.95C134.992 182.175 134.588 180.422 134.07 178.7C133.467 177.286 132.551 176.028 131.39 175.02C130.07 173.992 128.994 172.684 128.24 171.19C127.826 169.714 127.522 168.21 127.33 166.69C127.189 165.989 126.899 165.326 126.48 164.746C126.06 164.167 125.522 163.684 124.9 163.33C124.029 162.835 123.331 162.084 122.9 161.18C122.5 160.32 122.28 159.39 121.9 158.51C121.36 157.07 120.43 155.56 118.81 155.27C118.772 155.261 118.733 155.261 118.695 155.271C118.658 155.281 118.623 155.301 118.595 155.328C118.568 155.355 118.547 155.388 118.535 155.426C118.524 155.463 118.522 155.502 118.53 155.54C119.017 157.467 119.152 159.465 118.93 161.44C118.581 163.125 118.781 164.877 119.5 166.44C120.443 167.906 121.221 169.473 121.82 171.11C122.181 172.958 122.408 174.829 122.5 176.71C122.564 177.403 122.747 178.079 123.04 178.71C123.49 179.467 124.002 180.186 124.57 180.86C125.421 182.108 125.988 183.529 126.23 185.02C126.78 187.89 126.7 191.02 128.23 193.61C129.009 194.969 130.218 196.03 131.666 196.627C133.114 197.224 134.719 197.324 136.23 196.91C136.279 196.897 136.321 196.865 136.346 196.821C136.371 196.776 136.378 196.724 136.365 196.675C136.352 196.626 136.319 196.584 136.275 196.559C136.231 196.534 136.179 196.527 136.13 196.54C134.646 196.873 133.093 196.714 131.707 196.086C130.321 195.458 129.178 194.396 128.45 193.06C127.12 190.51 127.22 187.49 126.65 184.72C126.424 183.385 125.938 182.108 125.22 180.96C124.81 180.34 124.3 179.78 123.88 179.16C123.359 178.377 123.043 177.477 122.96 176.54C122.884 174.864 122.707 173.195 122.43 171.54C122.017 169.958 121.341 168.457 120.43 167.1C119.896 166.323 119.516 165.45 119.31 164.53C119.212 163.429 119.259 162.319 119.45 161.23C119.64 159.294 119.48 157.34 118.98 155.46L118.7 155.73C122.03 156.3 121.46 161.15 123.62 163.03C124.23 163.56 125 163.87 125.62 164.4C126.193 164.943 126.601 165.636 126.8 166.4C127.2 167.82 127.21 169.31 127.62 170.73C128.48 173.73 131.38 175.01 132.97 177.46C133.798 178.978 134.325 180.642 134.52 182.36C134.77 184.016 135.298 185.619 136.08 187.1C137.81 190.15 141.49 194.02 139.08 197.71C138.96 197.88 139.23 198.03 139.35 197.87H139.32Z" fill="#2B0E09"/>
<path d="M151.88 196C152.536 195.781 153.11 195.366 153.524 194.813C153.939 194.259 154.175 193.591 154.2 192.9C154.223 191.517 154.156 190.134 154 188.76C153.989 187.402 154.268 186.058 154.818 184.816C155.368 183.574 156.177 182.464 157.19 181.56C158.126 180.863 159.024 180.115 159.88 179.32C160.946 178.151 161.514 176.611 161.46 175.03C161.46 173.86 161.03 172.72 160.88 171.56C160.764 170.982 160.779 170.386 160.924 169.814C161.069 169.243 161.341 168.712 161.72 168.26C163.03 166.95 165.32 167.44 166.89 166.45C168.46 165.46 168.77 163.74 168.96 162.08C169.15 160.42 169.24 158.64 170.25 157.31C168.631 158.902 166.647 160.073 164.47 160.72C162.67 161.26 160.47 161.62 159.7 163.3C159.23 164.3 159.37 165.45 158.99 166.47C157.84 169.56 152.94 169.33 151.17 172.12C150.17 173.7 150.5 175.76 150.17 177.6C149.47 181.07 146.32 183.53 145 186.82C144.401 188.377 144.221 190.064 144.479 191.712C144.737 193.36 145.424 194.911 146.47 196.21" fill="#59724E"/>
<path d="M151.92 196.16C152.503 195.995 153.03 195.672 153.443 195.228C153.856 194.784 154.138 194.234 154.26 193.64C154.71 191.97 154.19 190.25 154.2 188.56C154.225 186.871 154.705 185.219 155.59 183.78C156.554 182.423 157.749 181.245 159.12 180.3C160.347 179.357 161.204 178.011 161.54 176.5C161.88 174.86 161.35 173.34 161.12 171.73C160.946 170.848 161.033 169.934 161.37 169.1C161.561 168.743 161.827 168.431 162.15 168.185C162.472 167.94 162.844 167.768 163.24 167.68C164.55 167.31 166.01 167.36 167.16 166.56C170.16 164.49 168.54 160.09 170.45 157.43C170.6 157.22 170.27 156.98 170.09 157.15C168.606 158.634 166.794 159.747 164.8 160.4C163.33 160.88 161.65 161.09 160.41 162.09C159.81 162.577 159.394 163.255 159.23 164.01C159.151 164.964 158.942 165.903 158.61 166.8C157.81 167.926 156.66 168.756 155.34 169.16C154.033 169.621 152.813 170.297 151.73 171.16C150.48 172.29 150.25 173.91 150.13 175.51C150.107 176.526 149.952 177.534 149.67 178.51C149.364 179.39 148.948 180.226 148.43 181C147.43 182.51 146.3 183.88 145.43 185.44C144.45 187.146 144.005 189.108 144.155 191.07C144.305 193.032 145.042 194.903 146.27 196.44C146.46 196.68 146.79 196.34 146.6 196.11C145.449 194.642 144.76 192.865 144.621 191.004C144.482 189.143 144.899 187.283 145.82 185.66C147.49 182.66 150.12 180.32 150.49 176.77C150.68 174.96 150.54 172.96 151.96 171.59C153.007 170.712 154.207 170.034 155.5 169.59C156.69 169.187 157.764 168.501 158.63 167.59C159.042 167.059 159.314 166.434 159.42 165.77C159.452 164.835 159.684 163.918 160.1 163.08C161.18 161.49 163.54 161.33 165.22 160.73C167.162 160.033 168.935 158.932 170.42 157.5L170.07 157.23C168.23 159.73 169.54 163.44 167.41 165.76C165.59 167.76 161.9 166.32 160.86 169.31C160.33 170.85 160.86 172.42 161.13 173.95C161.316 174.84 161.3 175.759 161.084 176.642C160.868 177.525 160.456 178.348 159.88 179.05C158.88 180.25 157.41 180.98 156.35 182.14C155.39 183.195 154.673 184.448 154.25 185.81C153.817 187.536 153.732 189.331 154 191.09C154.15 192.87 153.93 195.32 151.84 195.86C151.796 195.872 151.759 195.901 151.737 195.94C151.714 195.98 151.708 196.026 151.72 196.07C151.732 196.114 151.761 196.151 151.8 196.174C151.84 196.196 151.886 196.202 151.93 196.19L151.92 196.16Z" fill="#2B0E09"/>
<path d="M141.83 199.67C143.65 197.17 145.57 194.13 144.57 191.2C144.248 190.424 143.878 189.669 143.46 188.94C142.758 187.495 142.434 185.895 142.52 184.29C142.65 181.95 143.64 179.57 142.92 177.34C142.331 176.031 141.589 174.795 140.71 173.66C139.546 171.735 139.073 169.47 139.37 167.24C139.662 166.098 139.744 164.912 139.61 163.74C139.29 162.44 138.2 161.5 137.37 160.44C136.078 158.786 135.356 156.758 135.31 154.66C135.31 152.82 135.7 150.75 134.56 149.29C133.12 147.45 129.8 147.58 128.89 145.42C128.61 144.76 128.39 143.79 127.67 143.83C126.95 143.87 126.89 145.06 127.12 145.83C127.747 147.914 128.083 150.074 128.12 152.25C128.016 154.003 128.151 155.763 128.52 157.48C128.89 158.479 129.321 159.454 129.81 160.4C130.945 162.971 131.293 165.821 130.81 168.59C130.433 169.851 130.351 171.182 130.57 172.48C130.967 173.394 131.467 174.26 132.06 175.06C134.27 178.88 132.18 183.8 133.22 188.06C133.62 189.71 134.48 191.25 134.58 192.94C134.495 193.988 134.562 195.042 134.78 196.07C135.021 196.618 135.39 197.101 135.857 197.477C136.323 197.853 136.873 198.111 137.46 198.23C138.634 198.453 139.836 198.487 141.02 198.33" fill="#59724E"/>
<path d="M142 199.77C143.387 198.109 144.391 196.163 144.94 194.07C145.122 193.168 145.088 192.236 144.84 191.35C144.448 190.359 143.993 189.394 143.48 188.46C142.998 187.348 142.743 186.152 142.73 184.94C142.769 183.709 142.92 182.484 143.18 181.28C143.388 180.26 143.442 179.216 143.34 178.18C143.163 177.185 142.767 176.243 142.18 175.42C141.536 174.556 140.955 173.647 140.44 172.7C139.912 171.596 139.6 170.401 139.52 169.18C139.504 167.998 139.615 166.818 139.85 165.66C140.033 164.706 139.907 163.718 139.49 162.84C139.007 162.025 138.429 161.27 137.77 160.59C137.044 159.716 136.473 158.726 136.08 157.66C135.708 156.607 135.521 155.497 135.53 154.38C135.584 153.381 135.584 152.379 135.53 151.38C135.467 150.605 135.185 149.864 134.718 149.243C134.251 148.622 133.617 148.146 132.89 147.87C131.54 147.25 129.71 146.87 129.06 145.38C128.81 144.83 128.66 143.98 128.06 143.73C127.953 143.687 127.839 143.666 127.724 143.669C127.609 143.672 127.495 143.697 127.391 143.745C127.286 143.793 127.192 143.861 127.115 143.946C127.037 144.031 126.978 144.131 126.94 144.24C126.751 144.9 126.79 145.605 127.05 146.24C127.386 147.454 127.633 148.69 127.79 149.94C128.07 152.21 127.74 154.55 128.18 156.79C128.443 157.882 128.85 158.935 129.39 159.92C129.918 160.999 130.314 162.137 130.57 163.31C130.816 164.476 130.914 165.669 130.86 166.86C130.81 168.06 130.51 169.21 130.35 170.39C130.17 171.362 130.299 172.366 130.72 173.26C131.21 174.26 131.95 175.03 132.36 176.04C133.94 179.97 132.07 184.35 133.14 188.39C133.43 189.49 133.91 190.54 134.2 191.65C134.383 192.841 134.467 194.045 134.45 195.25C134.569 196.117 134.976 196.918 135.605 197.526C136.234 198.133 137.05 198.512 137.92 198.6C138.979 198.735 140.051 198.735 141.11 198.6C141.41 198.6 141.41 198.12 141.11 198.14C139.11 198.28 136.48 198.44 135.3 196.47C134.7 195.47 134.94 194.3 134.91 193.21C134.849 192.181 134.627 191.169 134.25 190.21C133.867 189.239 133.576 188.235 133.38 187.21C133.232 186.177 133.188 185.132 133.25 184.09C133.43 182.142 133.47 180.184 133.37 178.23C133.284 177.346 133.065 176.479 132.72 175.66C132.279 174.829 131.795 174.021 131.27 173.24C130.719 172.133 130.598 170.861 130.93 169.67C131.146 168.659 131.283 167.632 131.34 166.6C131.397 164.544 131.019 162.499 130.23 160.6C129.81 159.6 129.23 158.6 128.88 157.6C128.551 156.484 128.399 155.323 128.43 154.16C128.476 152.014 128.295 149.868 127.89 147.76C127.78 147.23 127.64 146.7 127.49 146.18C127.329 145.76 127.231 145.319 127.2 144.87C127.2 144.41 127.45 143.67 128.06 144.11C128.41 144.36 128.53 144.92 128.68 145.3C129.86 148.2 134.28 147.44 135.03 150.74C135.44 152.57 134.94 154.49 135.3 156.35C135.7 158.214 136.587 159.939 137.87 161.35C138.61 162.055 139.155 162.941 139.45 163.92C139.535 165.108 139.434 166.303 139.15 167.46C138.931 169.404 139.278 171.369 140.15 173.12C141.15 175.04 142.83 176.5 142.94 178.77C143.05 181.04 142.21 183.01 142.29 185.17C142.324 186.171 142.516 187.16 142.86 188.1C143.2 189.03 143.73 189.85 144.14 190.74C145.14 192.83 144.42 195.05 143.36 196.95C142.842 197.862 142.267 198.74 141.64 199.58C141.49 199.79 141.84 199.99 141.99 199.78L142 199.77Z" fill="#2B0E09"/>
<path d="M130.28 192.13H153.07C153.683 192.136 154.287 192.278 154.839 192.546C155.39 192.814 155.875 193.201 156.258 193.68C156.641 194.159 156.912 194.717 157.053 195.313C157.193 195.91 157.199 196.531 157.07 197.13L152.97 216.13C152.771 217.046 152.267 217.867 151.54 218.46C150.813 219.052 149.907 219.38 148.97 219.39H134.48C133.545 219.381 132.641 219.056 131.915 218.467C131.189 217.879 130.683 217.062 130.48 216.15L126.28 197.15C126.149 196.55 126.154 195.927 126.294 195.329C126.433 194.73 126.704 194.171 127.087 193.69C127.47 193.209 127.956 192.82 128.508 192.55C129.06 192.28 129.665 192.137 130.28 192.13V192.13Z" fill="#DF848C"/>
<path d="M130.28 192.08C133.97 192.08 139.28 191.96 143.06 191.82C146.25 191.72 149.45 191.67 152.64 191.69C153.363 191.636 154.089 191.755 154.757 192.038C155.425 192.321 156.016 192.76 156.48 193.318C156.943 193.876 157.267 194.536 157.424 195.245C157.58 195.953 157.565 196.689 157.38 197.39C155.87 203.56 154.48 209.87 153.27 216.11C153.053 217.243 152.419 218.252 151.493 218.94C150.567 219.627 149.417 219.941 148.27 219.82H146.68C144.56 219.82 139.14 219.91 137.09 219.92H135.49C134.328 220.121 133.133 219.896 132.124 219.286C131.116 218.676 130.361 217.722 130 216.6C128.93 211.9 128 207.22 127.07 202.49C126.88 201.49 126.36 198.76 126.18 197.78C125.975 197.131 125.923 196.442 126.031 195.77C126.138 195.097 126.4 194.459 126.797 193.906C127.194 193.352 127.715 192.899 128.318 192.582C128.921 192.265 129.589 192.093 130.27 192.08H130.28ZM130.28 192.18C129.223 192.193 128.213 192.619 127.466 193.366C126.719 194.113 126.293 195.123 126.28 196.18C126.409 197.227 126.63 198.261 126.94 199.27L127.72 202.37C128.92 206.99 129.95 211.68 131.01 216.37C131.209 217.043 131.598 217.644 132.13 218.102C132.662 218.559 133.315 218.854 134.01 218.95C134.8 219.05 136.28 218.95 137.13 219.01C139.13 219.01 144.62 219.08 146.72 219.11H148.31C149.313 219.257 150.335 219.018 151.168 218.441C152.002 217.863 152.585 216.991 152.8 216C153.62 212.46 154.5 208.64 155.22 205.08C155.66 203 156.073 200.913 156.46 198.82C156.727 197.826 156.849 196.799 156.82 195.77C156.02 191.88 152.49 192.61 149.45 192.55C143.31 192.55 136.45 192.17 130.28 192.17V192.18Z" fill="#2B0E09"/>
<path d="M165.18 163.37C164.524 164.095 163.689 164.636 162.76 164.94C161.908 165.209 161.107 165.618 160.39 166.15C158.74 167.54 158.39 169.81 158 171.82C157.836 173.095 157.464 174.335 156.9 175.49C156.259 176.555 155.396 177.469 154.37 178.17C153.48 178.727 152.625 179.339 151.81 180C151.086 180.752 150.602 181.702 150.42 182.73C150.161 184.096 149.977 185.474 149.87 186.86C149.7 188.45 149.45 190.07 149.38 191.67C149.38 191.93 149.81 192 149.85 191.73C150.3 189.16 150.4 186.5 150.68 183.9C150.717 182.601 151.193 181.354 152.03 180.36C152.875 179.622 153.778 178.953 154.73 178.36C155.585 177.761 156.34 177.032 156.97 176.2C157.595 175.263 158.024 174.208 158.23 173.1C158.7 170.96 158.78 168.44 160.4 166.77C161.273 166.034 162.297 165.498 163.4 165.2C164.293 164.95 165.056 164.367 165.53 163.57C165.61 163.39 165.38 163.16 165.22 163.34L165.18 163.37Z" fill="#2B0E09"/>
<path d="M156.22 152.18C154.71 154.18 153.13 156.11 151.68 158.18C151.045 158.974 150.598 159.9 150.37 160.89C150.258 162.067 150.302 163.254 150.5 164.42C150.739 166.687 150.211 168.969 149 170.9C148.391 171.662 147.936 172.535 147.66 173.47C147.47 174.55 147.85 175.63 147.71 176.71C147.44 178.95 145.99 180.99 146.59 183.31C146.68 183.68 147.26 183.52 147.16 183.15C146.62 181.15 147.76 179.15 148.16 177.27C148.25 176.229 148.25 175.181 148.16 174.14C148.287 173.075 148.742 172.076 149.46 171.28C150.59 169.584 151.182 167.588 151.16 165.55C151.16 164.44 150.94 163.35 150.87 162.24C150.796 161.04 151.127 159.85 151.81 158.86C152.5 157.78 153.31 156.77 154.04 155.73C154.77 154.69 155.6 153.44 156.4 152.3C156.49 152.17 156.28 152.05 156.18 152.18H156.22Z" fill="#2B0E09"/>
<path d="M131.51 151C131.897 152.485 132.152 154.001 132.27 155.53C132.37 156.98 132.21 158.41 132.18 159.86C132.127 161.191 132.373 162.517 132.9 163.74C133.565 165.066 133.94 166.518 134 168C133.954 169.389 133.614 170.753 133 172C132.745 172.541 132.618 173.134 132.629 173.732C132.639 174.33 132.787 174.918 133.06 175.45C133.625 176.59 134.331 177.655 135.16 178.62C135.58 179.12 136.05 179.62 136.42 180.11C136.815 180.714 137.074 181.396 137.18 182.11C137.75 185.37 137.79 188.71 138.41 191.97C138.431 192.022 138.469 192.065 138.517 192.092C138.566 192.12 138.622 192.131 138.677 192.123C138.733 192.114 138.783 192.088 138.822 192.048C138.86 192.008 138.884 191.956 138.89 191.9C138.77 188.9 138.29 185.9 137.94 182.97C137.876 181.768 137.5 180.603 136.85 179.59C136.05 178.51 135.08 177.59 134.33 176.46C133.91 175.877 133.554 175.25 133.27 174.59C133.122 174.195 133.06 173.773 133.089 173.352C133.119 172.931 133.238 172.521 133.44 172.15C133.968 171.083 134.322 169.939 134.49 168.76C134.645 167.407 134.477 166.036 134 164.76C133.76 164.12 133.44 163.52 133.21 162.88C132.945 162.104 132.806 161.29 132.8 160.47C132.8 158.86 133 157.27 132.91 155.66C132.83 154.032 132.51 152.425 131.96 150.89C131.938 150.832 131.895 150.785 131.84 150.757C131.785 150.729 131.721 150.723 131.661 150.739C131.602 150.755 131.55 150.793 131.517 150.845C131.483 150.897 131.47 150.959 131.48 151.02L131.51 151Z" fill="#2B0E09"/>
<path d="M121.65 163.46C121.9 164.399 122.362 165.268 123 166C123.687 166.834 124.244 167.768 124.65 168.77C125.321 170.889 125.612 173.11 125.51 175.33C125.459 176.33 125.622 177.329 125.99 178.26C126.399 179.014 126.937 179.691 127.58 180.26C128.271 180.844 128.883 181.517 129.4 182.26C129.892 183.178 130.067 184.232 129.9 185.26C129.722 186.361 129.678 187.479 129.77 188.59C129.851 189.097 130.024 189.585 130.28 190.03C130.694 190.551 130.963 191.172 131.06 191.83C131.06 192.12 131.48 192.11 131.51 191.83C131.61 190.83 130.98 190.11 130.61 189.2C130.308 188.179 130.23 187.104 130.38 186.05C130.479 185.085 130.431 184.111 130.24 183.16C130.006 182.36 129.577 181.631 128.99 181.04C128.38 180.37 127.66 179.79 127.07 179.1C126.336 178.202 125.93 177.08 125.92 175.92C125.93 173.767 125.719 171.619 125.29 169.51C125.018 168.412 124.583 167.36 124 166.39C123.279 165.396 122.656 164.334 122.14 163.22C122.121 163.155 122.078 163.1 122.019 163.067C121.96 163.034 121.89 163.026 121.825 163.045C121.76 163.064 121.705 163.107 121.672 163.166C121.639 163.225 121.631 163.295 121.65 163.36V163.46Z" fill="#2B0E09"/>
<path d="M155.58 204.8C155.174 203.549 154.587 202.363 153.84 201.28C153.313 200.335 152.476 199.6 151.47 199.2C148.83 198.48 147.75 201.88 146.3 203.29C145.312 204.257 144.025 204.86 142.65 205C142.004 205.044 141.36 204.89 140.803 204.56C140.246 204.229 139.802 203.738 139.53 203.15C139.074 202.212 138.386 201.406 137.53 200.81C136.661 200.323 135.659 200.127 134.67 200.25C133.596 200.385 132.609 200.912 131.9 201.73C131.476 202.317 130.867 202.743 130.17 202.94C129.808 203.004 129.437 202.995 129.078 202.914C128.719 202.834 128.38 202.683 128.08 202.47C127.78 202.29 127.42 202.73 127.7 202.97C128.073 203.282 128.517 203.499 128.992 203.602C129.468 203.705 129.961 203.69 130.43 203.56C131.62 203.26 132.09 202.24 133.02 201.56C133.452 201.258 133.94 201.046 134.456 200.938C134.971 200.83 135.503 200.827 136.02 200.93C136.576 201.057 137.098 201.301 137.551 201.646C138.005 201.991 138.379 202.429 138.65 202.93C139.094 203.87 139.785 204.672 140.65 205.25C141.666 205.674 142.802 205.706 143.84 205.34C144.892 205.031 145.852 204.472 146.64 203.71C147.64 202.8 148.08 201.54 149 200.61C149.263 200.302 149.597 200.064 149.974 199.915C150.351 199.767 150.758 199.714 151.16 199.76C151.831 199.976 152.416 200.4 152.83 200.97C153.829 202.175 154.641 203.524 155.24 204.97C155.31 205.13 155.57 205.02 155.52 204.85L155.58 204.8Z" fill="#2B0E09"/>
<path d="M154.53 209.38C154.403 208.536 153.959 207.772 153.288 207.244C152.617 206.716 151.77 206.464 150.92 206.54C148.56 206.63 146.74 208.38 144.81 209.54C143.815 210.21 142.639 210.559 141.44 210.54C140.317 210.462 139.257 209.995 138.44 209.22C137.26 208.1 136.72 205.4 134.61 205.77C132.07 206.22 131.96 209.77 129.61 210.35C129.557 210.378 129.515 210.423 129.491 210.478C129.467 210.533 129.463 210.595 129.48 210.652C129.496 210.71 129.532 210.76 129.581 210.794C129.631 210.829 129.69 210.845 129.75 210.84C131.65 210.35 132.11 208.25 133.41 207.04C133.599 206.812 133.84 206.633 134.113 206.519C134.386 206.404 134.683 206.358 134.978 206.383C135.273 206.409 135.558 206.506 135.807 206.665C136.056 206.825 136.263 207.043 136.41 207.3C136.833 208.06 137.314 208.785 137.85 209.47C138.447 210.097 139.185 210.573 140.002 210.86C140.819 211.147 141.692 211.236 142.55 211.12C144.74 210.8 146.39 209.19 148.24 208.12C149.31 207.389 150.62 207.096 151.9 207.3C152.452 207.396 152.962 207.656 153.364 208.047C153.765 208.438 154.039 208.941 154.15 209.49C154.15 209.73 154.6 209.68 154.58 209.43L154.53 209.38Z" fill="#2B0E09"/>
<path d="M88.9401 16.91C88.7514 18.0093 88.6179 19.1174 88.5401 20.23C88.4951 20.7791 88.4951 21.3309 88.5401 21.88C88.5594 22.4086 88.7181 22.9226 89.0001 23.37C89.1401 23.53 89.3601 23.37 89.3801 23.21C89.3697 22.9602 89.3191 22.7137 89.2301 22.48C89.1701 22.2 89.1201 21.93 89.0801 21.65C89.0233 21.1387 88.9965 20.6245 89.0001 20.11C89.0223 19.0686 89.1125 18.0297 89.2701 17C89.2701 16.82 88.9701 16.77 88.9401 17V16.91Z" fill="#2B0E09"/>
<path d="M99.2801 15C100.53 18.1 101.76 21.3 101.66 24.7C101.66 24.7902 101.696 24.8767 101.76 24.9404C101.823 25.0042 101.91 25.04 102 25.04C102.09 25.04 102.177 25.0042 102.24 24.9404C102.304 24.8767 102.34 24.7902 102.34 24.7C102.34 21.22 100.97 17.99 99.6001 14.86C99.5201 14.68 99.2001 14.86 99.2801 15V15Z" fill="#2B0E09"/>
<path d="M117.26 22.36C117.59 25.0533 117.59 27.7768 117.26 30.47C117.087 31.8569 116.833 33.2326 116.5 34.59C116.16 35.93 115.66 37.21 115.28 38.53C115.23 38.72 115.52 38.85 115.61 38.67C116.153 37.4253 116.569 36.1287 116.85 34.8C117.175 33.4496 117.415 32.0803 117.57 30.7C117.885 27.917 117.855 25.1057 117.48 22.33C117.48 22.2 117.24 22.23 117.25 22.33L117.26 22.36Z" fill="#2B0E09"/>
<path d="M111.58 39.0001C111.4 39.6301 111.2 40.2501 110.97 40.8601C110.86 41.1601 110.74 41.4601 110.62 41.7701C110.55 41.9201 110.48 42.0801 110.42 42.2301C110.341 42.3684 110.281 42.5163 110.24 42.6701C110.24 42.8101 110.41 42.9801 110.53 42.8301C110.712 42.5531 110.851 42.2495 110.94 41.9301C111.06 41.6201 111.18 41.3201 111.28 41.0101C111.51 40.3801 111.7 39.7301 111.88 39.0801C111.881 39.0444 111.869 39.0095 111.848 38.981C111.826 38.9525 111.796 38.9321 111.761 38.9229C111.727 38.9137 111.69 38.9163 111.657 38.9303C111.624 38.9443 111.597 38.9688 111.58 39.0001V39.0001Z" fill="#2B0E09"/>
<path d="M112.05 48.38C111.517 50.0076 110.506 51.4366 109.148 52.4803C107.791 53.524 106.15 54.1338 104.44 54.23C102.711 54.2155 101.027 53.6853 99.6012 52.7072C98.1759 51.7291 97.0752 50.3477 96.4399 48.74C96.2699 48.3 95.5599 48.48 95.7299 48.94C96.227 50.3038 97.0505 51.5251 98.1284 52.4972C99.2063 53.4694 100.506 54.1628 101.913 54.517C103.321 54.8711 104.794 54.8752 106.204 54.5288C107.613 54.1824 108.917 53.4962 110 52.53C111.263 51.483 112.197 50.0942 112.69 48.53C112.81 48.14 112.21 47.98 112.08 48.37L112.05 48.38Z" fill="#2B0E09"/>
<path d="M144 99.45C143.726 99.9228 143.389 100.357 143 100.74C142.805 100.93 142.598 101.107 142.38 101.27L142.05 101.49C141.92 101.58 141.78 101.65 141.73 101.81C141.717 101.855 141.723 101.903 141.745 101.944C141.768 101.985 141.805 102.016 141.85 102.03C141.928 102.039 142.008 102.029 142.082 102.004C142.156 101.978 142.224 101.935 142.28 101.88C142.41 101.799 142.533 101.709 142.65 101.61C142.872 101.426 143.082 101.229 143.28 101.02C143.673 100.595 144.009 100.121 144.28 99.61C144.37 99.43 144.12 99.28 144.02 99.45H144Z" fill="#2B0E09"/>
<path d="M82.7599 106.57C83.6499 109.2 84.5499 111.83 85.4899 114.44C85.9399 115.71 86.3999 116.98 86.8599 118.25C87.3199 119.52 87.7399 120.85 88.2899 122.09C88.3899 122.32 88.7599 122.16 88.6899 121.92C88.2999 120.64 87.7699 119.38 87.3099 118.12C86.8499 116.86 86.3099 115.51 85.8899 114.2C84.9599 111.63 84.0199 109.06 83.0999 106.48C83.0199 106.27 82.6799 106.35 82.7599 106.57V106.57Z" fill="#2B0E09"/>
<path d="M129.73 119.13C129.408 119.298 129.073 119.441 128.73 119.56C128.56 119.626 128.386 119.683 128.21 119.73C128.028 119.763 127.858 119.846 127.72 119.97C127.702 120.002 127.697 120.04 127.706 120.075C127.715 120.111 127.738 120.141 127.77 120.16C127.958 120.224 128.162 120.224 128.35 120.16L128.87 119.97C129.213 119.828 129.547 119.664 129.87 119.48C129.89 119.469 129.907 119.454 129.921 119.436C129.935 119.418 129.945 119.398 129.951 119.376C129.957 119.354 129.959 119.331 129.956 119.309C129.953 119.287 129.946 119.265 129.935 119.245C129.924 119.225 129.909 119.208 129.891 119.194C129.873 119.18 129.853 119.17 129.831 119.164C129.809 119.158 129.786 119.156 129.764 119.159C129.741 119.162 129.72 119.169 129.7 119.18L129.73 119.13Z" fill="#2B0E09"/>
<path d="M125.34 120.57C122.95 120.81 120.57 121.07 118.18 121.27C115.79 121.47 113.38 121.54 110.98 121.7C110.938 121.71 110.901 121.733 110.874 121.767C110.848 121.801 110.833 121.842 110.833 121.885C110.833 121.928 110.848 121.969 110.874 122.003C110.901 122.037 110.938 122.06 110.98 122.07C113.42 122.07 115.88 121.86 118.3 121.64C120.72 121.42 123.02 121.15 125.36 120.74C125.46 120.74 125.44 120.56 125.36 120.57H125.34Z" fill="#2B0E09"/>
<path d="M84.6999 209.34C83.1199 210.97 80.8099 211.24 78.6999 211.55C76.6148 211.81 74.6042 212.49 72.7899 213.55C69.2499 215.67 65.7899 219.24 61.3099 218.9C60.1795 218.791 59.0823 218.457 58.0828 217.918C57.0834 217.378 56.2018 216.645 55.4899 215.76C55.2599 215.5 54.8099 215.85 55.0099 216.14C56.1695 217.747 57.8767 218.874 59.8099 219.31C61.8604 219.731 63.9929 219.457 65.8699 218.53C67.9137 217.474 69.8582 216.235 71.6799 214.83C73.6232 213.414 75.8571 212.447 78.2199 212C80.5799 211.61 83.1599 211.35 84.8599 209.47C84.9599 209.37 84.7999 209.21 84.6999 209.31V209.34Z" fill="#2B0E09"/>
<path d="M63.65 213.85C63.5306 213.384 63.3161 212.949 63.02 212.57C62.5069 211.766 61.8244 211.083 61.02 210.57C60.62 210.3 60.24 210.01 59.82 209.77C59.7758 209.753 59.7271 209.752 59.6825 209.768C59.6378 209.784 59.6002 209.815 59.5762 209.855C59.5522 209.896 59.5435 209.944 59.5515 209.991C59.5595 210.037 59.5838 210.08 59.62 210.11C60.0176 210.328 60.3898 210.59 60.73 210.89C60.89 211.04 61.03 211.21 61.18 211.37C61.33 211.53 61.49 211.72 61.64 211.9C61.9121 212.219 62.1658 212.553 62.4 212.9C62.6215 213.311 62.8722 213.705 63.15 214.08C63.36 214.32 63.67 214.08 63.64 213.79L63.65 213.85Z" fill="#2B0E09"/>
<path d="M68 211.22C67.7187 210.25 67.2036 209.364 66.5 208.64C66.1478 208.278 65.7513 207.963 65.32 207.7C65.1087 207.568 64.8881 207.451 64.66 207.35C64.4425 207.22 64.2011 207.135 63.95 207.1C63.77 207.1 63.62 207.36 63.78 207.49C63.9786 207.607 64.19 207.701 64.41 207.77C64.62 207.87 64.83 207.98 65.03 208.1C65.4289 208.347 65.798 208.639 66.13 208.97C66.7991 209.626 67.297 210.437 67.58 211.33C67.67 211.6 68.08 211.49 68 211.22Z" fill="#2B0E09"/>
<path d="M71.45 206.74C71.1313 206.033 70.656 205.407 70.06 204.91C69.751 204.655 69.4157 204.434 69.06 204.25C68.7271 204.008 68.321 203.888 67.91 203.91C67.8721 203.921 67.8378 203.942 67.8104 203.971C67.7829 203.999 67.7632 204.034 67.7532 204.072C67.7431 204.11 67.7431 204.15 67.753 204.188C67.763 204.227 67.7826 204.262 67.81 204.29C67.9524 204.416 68.1192 204.511 68.3 204.57C68.4537 204.632 68.6039 204.702 68.75 204.78C69.0594 204.946 69.351 205.144 69.62 205.37C70.1845 205.816 70.6537 206.37 71 207C71.17 207.32 71.62 207 71.47 206.73L71.45 206.74Z" fill="#2B0E09"/>
<path d="M32.8101 198.32C28.5001 199.19 24.3201 196.99 20.0201 197.11C17.7801 197.11 15.6701 198.11 13.4401 198.11C11.2101 198.11 9.0001 197.05 7.1001 196C5.2001 194.95 3.0001 193.81 2.2601 191.64C2.1801 191.4 1.7601 191.42 1.7901 191.7C2.0101 193.6 3.6601 194.76 5.1801 195.7C7.08224 196.981 9.19421 197.918 11.4201 198.47C12.4876 198.68 13.5826 198.71 14.6601 198.56C15.8901 198.39 17.0801 198.02 18.3001 197.79C20.723 197.481 23.1824 197.63 25.5501 198.23C27.9399 198.834 30.4289 198.936 32.8601 198.53C32.8778 198.524 32.8931 198.512 32.9039 198.497C32.9147 198.482 32.9205 198.464 32.9205 198.445C32.9205 198.426 32.9147 198.408 32.9039 198.393C32.8931 198.378 32.8778 198.366 32.8601 198.36L32.8101 198.32Z" fill="#2B0E09"/>
<path d="M20.41 190.35C20.3055 189.366 19.9622 188.422 19.41 187.6C19.1517 187.187 18.8608 186.796 18.54 186.43C18.2569 186.038 17.8873 185.716 17.46 185.49C17.26 185.42 17.15 185.66 17.21 185.82C17.3253 186.013 17.4593 186.194 17.61 186.36C17.74 186.52 17.88 186.68 18 186.85C18.2556 187.219 18.4893 187.603 18.7 188C19.0769 188.798 19.4107 189.616 19.7 190.45C19.7252 190.534 19.7793 190.606 19.8525 190.653C19.9257 190.701 20.0133 190.721 20.1 190.71C20.1857 190.696 20.2637 190.652 20.3204 190.586C20.377 190.521 20.4088 190.437 20.41 190.35V190.35Z" fill="#2B0E09"/>
<path d="M16.1 191.7C16.1818 190.765 15.9684 189.828 15.49 189.02C15.2756 188.659 15.0206 188.323 14.73 188.02C14.44 187.73 14.07 187.34 13.63 187.41C13.5771 187.426 13.5328 187.463 13.5065 187.511C13.4803 187.56 13.4744 187.617 13.49 187.67C13.59 188.02 13.99 188.21 14.24 188.46C14.6659 188.877 15.0012 189.377 15.2249 189.929C15.4486 190.482 15.5558 191.074 15.54 191.67C15.54 192.03 16.07 192.02 16.1 191.67V191.7Z" fill="#2B0E09"/>
<path d="M9.81001 192.36C9.75643 191.734 9.57612 191.125 9.28 190.57C8.9576 190.048 8.55229 189.582 8.08001 189.19C8.04553 189.157 7.99929 189.139 7.95147 189.14C7.90365 189.141 7.85816 189.161 7.825 189.195C7.79185 189.229 7.77376 189.276 7.77469 189.324C7.77563 189.371 7.79553 189.417 7.83001 189.45C8.21784 189.856 8.52646 190.331 8.74 190.85C8.97538 191.356 9.14347 191.89 9.24 192.44C9.24 192.76 9.84001 192.69 9.81001 192.36V192.36Z" fill="#2B0E09"/>
<path d="M60.16 128C59.71 128.5 59.28 129 58.85 129.53L58.26 130.28L57.95 130.7C57.8431 130.827 57.7616 130.973 57.71 131.13C57.71 131.21 57.79 131.3 57.87 131.25C57.9897 131.164 58.0916 131.055 58.17 130.93C58.26 130.79 58.35 130.66 58.45 130.53C58.6366 130.25 58.8366 129.98 59.05 129.72C59.46 129.18 59.88 128.66 60.32 128.15C60.41 128.05 60.26 127.89 60.16 128V128Z" fill="#2B0E09"/>
<path d="M67.7801 173.48C68.3201 175.39 68.7801 177.31 69.2601 179.24C69.4701 180.19 69.6701 181.14 69.8601 182.1C70.0501 183.06 70.1801 184.1 70.4401 185.1C70.4486 185.132 70.4674 185.16 70.4936 185.18C70.5199 185.201 70.552 185.212 70.5851 185.212C70.6182 185.212 70.6504 185.201 70.6766 185.18C70.7028 185.16 70.7216 185.132 70.7301 185.1C70.4824 183.155 70.0947 181.23 69.5701 179.34C69.1101 177.38 68.5901 175.43 68.0101 173.49C67.999 173.463 67.9786 173.441 67.9527 173.429C67.9267 173.416 67.897 173.413 67.869 173.42C67.841 173.427 67.8166 173.444 67.8002 173.468C67.7839 173.492 67.7767 173.521 67.7801 173.55V173.48Z" fill="#2B0E09"/>
<path d="M99.1099 190C98.9233 192.16 98.8066 194.327 98.7599 196.5C98.7599 197.56 98.7599 198.62 98.7599 199.69C98.7298 200.729 98.78 201.769 98.9099 202.8C98.9099 203.01 99.2499 202.94 99.2599 202.75C99.2847 201.686 99.2547 200.621 99.1699 199.56C99.1699 198.5 99.1699 197.44 99.1699 196.37C99.1699 194.25 99.2899 192.12 99.4599 190C99.4599 189.79 99.1499 189.79 99.1299 190H99.1099Z" fill="#2B0E09"/>
<path d="M96.0501 199.45C95.9401 200.6 95.8901 201.74 95.8801 202.89C95.8801 203.47 95.8801 204.04 95.8801 204.61C95.8562 205.16 95.9032 205.712 96.0201 206.25C96.0267 206.303 96.0541 206.351 96.0963 206.384C96.1172 206.4 96.1411 206.412 96.1666 206.419C96.1921 206.426 96.2188 206.428 96.2451 206.425C96.2713 206.422 96.2967 206.413 96.3197 206.4C96.3427 206.387 96.3629 206.37 96.3792 206.349C96.3954 206.328 96.4074 206.304 96.4144 206.278C96.4214 206.253 96.4233 206.226 96.4201 206.2C96.4182 205.624 96.3714 205.049 96.2801 204.48C96.2801 203.93 96.2001 203.38 96.1901 202.83C96.1901 201.7 96.1901 200.57 96.2701 199.45C96.2701 199.29 96.0401 199.3 96.0301 199.45H96.0501Z" fill="#2B0E09"/>
</g>
<defs>
<clipPath id="clip0_51_2">
<rect width="170.48" height="221.41" fill="white"/>
</clipPath>
</defs>
</svg>
