<svg xmlns="http://www.w3.org/2000/svg" viewBox="0 0 330.99 128.3"><defs><style>.cls-1{fill:#ed8673;}.cls-2{fill:#471d0a;}.cls-3{fill:#ea6b53;}.cls-4{fill:#79a5a0;}.cls-5{fill:#6f3326;}.cls-6{fill:#20564c;}.cls-7{fill:#594639;}.cls-8{fill:#ec986d;}.cls-9{fill:#e8e0cd;}.cls-10{fill:#d8ccb4;}</style></defs><g id="Layer_2" data-name="Layer 2"><g id="Design"><path class="cls-1" d="M249.87,112.84s14.35-4.65,18.22-3.49,9.31,8.54,7.76,8.92S270.42,121,265.77,116c0,0-12,5.42-17.06,5S249.87,112.84,249.87,112.84Z" transform="translate(0 0)"/><path class="cls-2" d="M249.86,112.8q2.47-1,5-1.74c1.69-.53,3.4-1,5.14-1.39.87-.2,1.74-.39,2.62-.55a21.4,21.4,0,0,1,2.67-.33,10.39,10.39,0,0,1,1.37,0,5.43,5.43,0,0,1,.69,0l.71.15a7.5,7.5,0,0,1,2.42,1.33,18,18,0,0,1,2,1.81c.61.66,1.21,1.31,1.75,2a19.63,19.63,0,0,1,1.5,2.22,4.61,4.61,0,0,1,.53,1.27,1.26,1.26,0,0,1,0,.39.5.5,0,0,1-.26.39c-.28.12-.45.14-.66.23a11.84,11.84,0,0,1-2.59.73,6.91,6.91,0,0,1-2.75-.16,8.15,8.15,0,0,1-2.5-1.16,13.12,13.12,0,0,1-2.08-1.78l.51.11c-2.14,1-4.31,1.87-6.51,2.7a49.23,49.23,0,0,1-6.8,2c-.58.12-1.18.19-1.77.28a12.21,12.21,0,0,1-1.82.07,4.13,4.13,0,0,1-.93-.11,2.5,2.5,0,0,1-1-.42,1.85,1.85,0,0,1-.65-.86,2.54,2.54,0,0,1-.11-1,5.59,5.59,0,0,1,.5-1.79,13.19,13.19,0,0,1,.83-1.58,25.39,25.39,0,0,1,2.1-2.84Zm0,.09a25,25,0,0,0-1.79,3,12.89,12.89,0,0,0-.69,1.57,5.22,5.22,0,0,0-.34,1.61,1.34,1.34,0,0,0,.53,1.21,1.83,1.83,0,0,0,.65.25c.11,0,.28,0,.42,0a2.66,2.66,0,0,0,.4,0,10.53,10.53,0,0,0,1.67-.13c.56-.11,1.13-.19,1.68-.34,1.13-.25,2.24-.57,3.34-.92s2.21-.71,3.31-1.11c2.19-.77,4.37-1.61,6.5-2.52h0a.46.46,0,0,1,.51.11,12.78,12.78,0,0,0,1.88,1.73,7.71,7.71,0,0,0,2.23,1.18,6.22,6.22,0,0,0,2.5.3,11.51,11.51,0,0,0,2.54-.58c.2-.08.47-.14.6-.19s.11-.21.08-.41a4.62,4.62,0,0,0-.47-1.17,12.21,12.21,0,0,0-1.49-2.16,17.91,17.91,0,0,0-3.82-3.56,7.24,7.24,0,0,0-2.27-1.07,9.52,9.52,0,0,0-2.51-.06c-.86.07-1.72.21-2.59.34s-1.73.29-2.59.47q-2.58.54-5.16,1.16Z" transform="translate(0 0)"/><path class="cls-3" d="M218.4,60.57s14.2-4.7,9.8,18.74S223,105.69,223,105.69,258,108.44,259,109.34L257.73,121s-44,7.44-50.16,1,.48-40.59.48-40.59" transform="translate(0 0)"/><path class="cls-2" d="M218.38,60.53a9.77,9.77,0,0,1,3.31-.44,7.6,7.6,0,0,1,3.25.86,6.84,6.84,0,0,1,2.48,2.3,10.78,10.78,0,0,1,1.36,3.11,18.62,18.62,0,0,1,.52,3.33,26.75,26.75,0,0,1,0,3.35c-.05,1.12-.13,2.24-.29,3.34s-.34,2.21-.52,3.3c-.8,4.36-1.59,8.72-2.43,13.07l-1.3,6.52-.68,3.25c-.25,1.09-.47,2.16-.75,3.26l-.33-.45,18,1.71,9,.88,4.49.48c.75.09,1.5.18,2.25.29l1.12.17a4.13,4.13,0,0,1,1.19.33.13.13,0,0,1,.07.13v0L258,121a.33.33,0,0,1-.26.28c-7.58,1.3-15.2,2.38-22.86,3.1-3.83.35-7.67.64-11.53.73-1.93,0-3.86,0-5.79-.06a36.67,36.67,0,0,1-5.8-.66,14.93,14.93,0,0,1-2.86-.87,6.36,6.36,0,0,1-1.33-.82l-.32-.26-.07-.06a.38.38,0,0,1-.09-.11l-.11-.14a6.84,6.84,0,0,1-.45-.58,14.47,14.47,0,0,1-1.72-5.72,63.12,63.12,0,0,1-.09-11.58c.27-3.84.71-7.67,1.24-11.47s1.23-7.59,2-11.36a.06.06,0,0,1,.06,0s.05,0,0,.06c-.65,3.78-1.15,7.59-1.62,11.4s-.83,7.63-1,11.45a62.14,62.14,0,0,0,.3,11.42,14.42,14.42,0,0,0,1.6,5.23c.11.18.29.37.43.56l.11.14s.07.08,0,0l.06.05.25.2a5.77,5.77,0,0,0,1.11.68,14.5,14.5,0,0,0,2.65.79,37.58,37.58,0,0,0,5.64.62c1.9.07,3.81.1,5.72,0,3.82-.06,7.65-.32,11.46-.63q11.46-1,22.85-2.76l-.26.27,1.34-11.65.07.17a6.14,6.14,0,0,0-1-.25q-.54-.1-1.11-.18c-.74-.12-1.48-.21-2.23-.31l-4.49-.51c-3-.33-6-.59-9-.85-6-.53-12-.91-18-1.34a.37.37,0,0,1-.34-.38v-.08c.24-1,.45-2.15.67-3.23L224,99.1l1.26-6.52,2.53-13c.19-1.09.41-2.17.54-3.26s.27-2.18.34-3.27a27.64,27.64,0,0,0,0-3.28,17.54,17.54,0,0,0-.44-3.24,10.23,10.23,0,0,0-1.22-3,6.58,6.58,0,0,0-2.25-2.26,8.49,8.49,0,0,0-6.36-.63,0,0,0,0,1-.06,0A0,0,0,0,1,218.38,60.53Z" transform="translate(0 0)"/><polygon class="cls-1" points="122.5 39.76 115.91 61.86 102.34 58.76 106.99 41.7 122.5 39.76"/><path class="cls-2" d="M122.55,39.77c-.44,1.88-.91,3.74-1.41,5.6s-1,3.71-1.54,5.56c-.26.92-.51,1.85-.79,2.77L118,56.45c-.29.92-.61,1.83-.91,2.74l-.91,2.74h0a.23.23,0,0,1-.28.15c-1.12-.3-2.25-.57-3.37-.84s-2.26-.54-3.39-.78c-2.27-.51-4.55-.94-6.83-1.39a.33.33,0,0,1-.25-.38h0v0c.69-2.87,1.42-5.72,2.17-8.57s1.49-5.71,2.3-8.54h0a.53.53,0,0,1,.43-.37c2.58-.3,5.18-.55,7.77-.82l3.89-.35,3.9-.3a0,0,0,0,1,.06,0Zm-.13,0-3.77.66-3.86.61c-2.58.37-5.15.77-7.74,1.12l.44-.38c-.74,2.86-1.54,5.69-2.35,8.52s-1.62,5.67-2.48,8.49l-.25-.41c2.25.58,4.49,1.19,6.75,1.71q1.7.42,3.39.78c1.14.24,2.27.49,3.41.7l-.28.17.73-2.79c.25-.93.48-1.86.75-2.79l.79-2.77c.27-.92.57-1.83.85-2.75.57-1.84,1.14-3.67,1.76-5.5S121.77,41.6,122.42,39.82Z" transform="translate(0 0)"/><polygon class="cls-1" points="39.98 46.63 54.01 64.93 43.54 74.1 32.45 60.33 39.98 46.63"/><path class="cls-2" d="M40,46.6c1.26,1.45,2.5,2.93,3.71,4.42s2.41,3,3.6,4.51c.59.75,1.19,1.5,1.77,2.27l1.73,2.3c.58.77,1.13,1.56,1.69,2.34l1.68,2.34v0a.23.23,0,0,1,0,.31c-.9.73-1.78,1.49-2.66,2.24s-1.76,1.52-2.62,2.29c-1.75,1.54-3.43,3.13-5.13,4.71a.33.33,0,0,1-.46,0h0l0,0c-1.92-2.24-3.8-4.51-5.67-6.79S33.86,63,32.05,60.65h0a.5.5,0,0,1,0-.56c1.27-2.27,2.59-4.52,3.89-6.78l2-3.36,2-3.33s0,0,.07,0Zm0,.13L38.3,50.17l-1.76,3.49c-1.21,2.3-2.4,4.62-3.64,6.92l0-.57c1.88,2.26,3.71,4.58,5.53,6.9s3.64,4.63,5.42,7l-.48-.05c1.79-1.48,3.59-2.94,5.34-4.46.89-.75,1.76-1.51,2.62-2.29s1.73-1.55,2.57-2.35l0,.33L52,62.85c-.61-.75-1.23-1.48-1.82-2.24l-1.78-2.27c-.58-.76-1.15-1.54-1.73-2.31-1.15-1.53-2.31-3.07-3.42-4.64S41,48.3,40,46.73Z" transform="translate(0 0)"/><path class="cls-4" d="M96,107.92C95,107,52.9,62,52.9,62S37,68.6,37,73.28c0,0,33.7,49.61,38.38,49.61S96,107.92,96,107.92Z" transform="translate(0 0)"/><path class="cls-2" d="M95.89,107.91l-5.47-5.58L85,96.67c-3.65-3.76-7.23-7.59-10.85-11.39-1.81-1.89-3.59-3.82-5.37-5.74s-3.58-3.84-5.34-5.78C59.85,69.9,56.34,66,52.77,62.17l.19,0a70.82,70.82,0,0,0-9,4.42,33.13,33.13,0,0,0-4.11,2.81,11.93,11.93,0,0,0-1.75,1.73,5.42,5.42,0,0,0-.65,1,2.89,2.89,0,0,0-.28,1.1l0-.14Q43.52,82.23,50,91.2q3.24,4.5,6.53,9c2.21,3,4.4,5.94,6.64,8.87s4.54,5.82,6.93,8.61a39.36,39.36,0,0,0,3.77,4,6.38,6.38,0,0,0,1,.75,1,1,0,0,0,.44.14,2.94,2.94,0,0,0,.64-.08,10.38,10.38,0,0,0,2.44-1,42.18,42.18,0,0,0,4.62-3c1.49-1.08,3-2.21,4.38-3.36C90.32,112.72,93.15,110.37,95.89,107.91Zm.1,0c-2.66,2.57-5.37,5.09-8.2,7.47-1.42,1.2-2.86,2.36-4.34,3.48A43,43,0,0,1,78.83,122a11.12,11.12,0,0,1-2.65,1.15,3.41,3.41,0,0,1-.72.11,1.73,1.73,0,0,1-.88-.21,7,7,0,0,1-1.23-.83,40.09,40.09,0,0,1-3.95-4c-1.24-1.38-2.41-2.82-3.58-4.26s-2.31-2.9-3.44-4.36c-4.53-5.85-8.83-11.88-13.1-17.92-2.13-3-4.21-6.07-6.3-9.12l-6.2-9.2h0a.14.14,0,0,1,0-.12,3.1,3.1,0,0,1,.35-1.3,5.85,5.85,0,0,1,.73-1.08,12.16,12.16,0,0,1,1.84-1.75,33.55,33.55,0,0,1,4.18-2.81c1.45-.84,2.93-1.61,4.43-2.35s3-1.46,4.56-2.12a.17.17,0,0,1,.2.05c3.59,3.81,7.26,7.55,10.89,11.34C65.75,75.14,67.55,77,69.35,79s3.61,3.8,5.39,5.73c3.56,3.85,7.16,7.66,10.69,11.54l5.3,5.81L96,107.88A.06.06,0,0,1,96,108Z" transform="translate(0 0)"/><path class="cls-4" d="M161.32,88.24S149.09,77,133.8,84.16s-30.57,22.43-30.57,22.43l17.32-47.91s-12.23-9.17-20.38-7.13c0,0-24.46,41.79-25.48,71.34,1,8.16,85.61,4.08,86.63,2S172.53,100.47,161.32,88.24Z" transform="translate(0 0)"/><path class="cls-2" d="M161.29,88.28a25.6,25.6,0,0,0-3.42-2.44A29.37,29.37,0,0,0,154.11,84c-.64-.28-1.3-.51-2-.73a15.55,15.55,0,0,0-2-.58c-.34-.08-.67-.18-1-.25l-1-.17-1-.16c-.35,0-.7,0-1.05-.07a23.46,23.46,0,0,0-4.19.06l-2.07.34a20,20,0,0,0-2,.53l-1,.28-1,.39-1.93.8c-1.24.66-2.53,1.24-3.73,2l-1.82,1-1.79,1.11c-1.2.72-2.34,1.54-3.51,2.31s-2.3,1.61-3.42,2.45-2.24,1.69-3.33,2.56-2.19,1.76-3.28,2.64-2.15,1.81-3.2,2.73c-2.1,1.85-4.18,3.75-6.17,5.71a.43.43,0,0,1-.63,0,.44.44,0,0,1-.1-.46l8.73-23.93,8.82-23.89.07.23a48.68,48.68,0,0,0-4.62-3c-.8-.46-1.61-.89-2.43-1.32s-1.65-.8-2.5-1.15c-.43-.18-.85-.36-1.28-.51s-.86-.32-1.3-.46L107,52c-.44-.12-.9-.19-1.34-.29a15.72,15.72,0,0,0-2.72-.3,12.46,12.46,0,0,0-1.37,0l-1.34.23.1-.08c-1.57,2.76-3.07,5.57-4.53,8.39-.73,1.42-1.45,2.83-2.14,4.26s-1.41,2.85-2.08,4.29-1.36,2.88-2,4.33-1.32,2.89-1.93,4.36l-1.85,4.39L84,86.09c-.6,1.47-1.1,3-1.65,4.47s-1.08,3-1.54,4.5L79.41,99.6l-1.25,4.6c-.46,1.52-.72,3.08-1.08,4.63l-.5,2.32c-.16.77-.25,1.56-.38,2.34l-.37,2.35a23.22,23.22,0,0,0-.3,2.35l-.36,4.72v-.07a1.89,1.89,0,0,0,1,1.09,9.49,9.49,0,0,0,1.72.74,28.11,28.11,0,0,0,3.78.9c2.58.45,5.19.72,7.81.94,5.24.41,10.51.58,15.78.69,10.53.17,21.08-.07,31.62-.47,5.27-.2,10.53-.48,15.79-.87a69.19,69.19,0,0,0,7.8-.9,4,4,0,0,0,.44-.12l.14-.06s0,0,0,0l.06-.11.42-.88c.27-.6.53-1.2.77-1.81.5-1.21,1-2.45,1.38-3.69a57.46,57.46,0,0,0,2-7.63,38.2,38.2,0,0,0,.72-7.84,25.54,25.54,0,0,0-1.23-7.76A19,19,0,0,0,161.29,88.28Zm.07-.07a19,19,0,0,1,4,6.8,25.87,25.87,0,0,1,1.29,7.81,41.89,41.89,0,0,1-.62,7.9,57,57,0,0,1-1.89,7.71c-.39,1.26-.83,2.51-1.31,3.74-.24.62-.49,1.24-.75,1.85l-.41.91-.06.11a.57.57,0,0,1-.15.18.89.89,0,0,1-.3.16,3.72,3.72,0,0,1-.51.16,73.89,73.89,0,0,1-7.89,1.06c-5.26.49-10.54.8-15.81,1.07s-10.55.43-15.83.53-10.57.12-15.85,0-10.57-.25-15.85-.71c-2.63-.23-5.27-.52-7.89-1a28.54,28.54,0,0,1-3.91-1,10.33,10.33,0,0,1-1.91-.83A2.75,2.75,0,0,1,74.22,123a.09.09,0,0,1,0-.07l.39-4.79a21.23,21.23,0,0,1,.31-2.38l.38-2.37c.14-.79.24-1.58.4-2.36l.54-2.34c.38-1.55.66-3.13,1.13-4.65l1.3-4.61,1.49-4.54c.48-1.52,1-3,1.6-4.51s1.07-3,1.69-4.47l1.79-4.43,1.9-4.38c.62-1.47,1.31-2.9,2-4.36s1.34-2.88,2-4.31,1.38-2.87,2.11-4.29,1.43-2.84,2.18-4.25c1.47-2.82,3-5.61,4.59-8.37h0a.13.13,0,0,1,.09-.07l1.39-.22a13.09,13.09,0,0,1,1.4,0,8.23,8.23,0,0,1,1.4.09,9.37,9.37,0,0,1,1.38.2c.45.1.91.17,1.36.29l1.34.39c.44.13.88.31,1.31.46a13,13,0,0,1,1.3.51c.86.34,1.69.75,2.53,1.14s1.65.85,2.45,1.32a52.35,52.35,0,0,1,4.69,3,.2.2,0,0,1,.07.23h0l-8.51,24-8.59,24-.74-.47c2-2,4.13-3.85,6.26-5.7,1.06-.92,2.15-1.82,3.24-2.72s2.18-1.78,3.31-2.62,2.25-1.7,3.4-2.52,2.31-1.62,3.47-2.41S125,88.75,126.17,88L128,87l1.86-1c1.23-.71,2.52-1.27,3.77-1.9.66-.28,1.32-.52,2-.78l1-.39,1-.27c.69-.16,1.36-.39,2.06-.5l2.1-.3a26,26,0,0,1,4.23,0l1.05.07,1,.18,1,.17c.35.07.68.17,1,.26a17.93,17.93,0,0,1,2,.59,19.72,19.72,0,0,1,2,.76,27.71,27.71,0,0,1,3.76,1.92,26.79,26.79,0,0,1,3.43,2.46Z" transform="translate(0 0)"/><path class="cls-1" d="M245.77,116.23s14.35-4.65,18.23-3.49,9.3,8.53,7.75,8.92-5.43,2.71-10.08-2.33c0,0-12,5.43-17.06,5S245.77,116.23,245.77,116.23Z" transform="translate(0 0)"/><path class="cls-2" d="M245.76,116.18c1.65-.64,3.33-1.22,5-1.73s3.4-1,5.14-1.4c.87-.2,1.74-.39,2.62-.54a21.63,21.63,0,0,1,2.67-.33,12.42,12.42,0,0,1,1.37,0c.23,0,.46,0,.69,0l.71.15a7.5,7.5,0,0,1,2.42,1.33,17.26,17.26,0,0,1,2,1.82,25.84,25.84,0,0,1,1.75,2,18.77,18.77,0,0,1,1.5,2.22,4.37,4.37,0,0,1,.53,1.27,1.26,1.26,0,0,1,0,.39.52.52,0,0,1-.26.39c-.28.11-.44.14-.66.22a11.68,11.68,0,0,1-2.59.73,6.85,6.85,0,0,1-2.74-.16,7.76,7.76,0,0,1-2.51-1.16,13.6,13.6,0,0,1-2.08-1.77l.52.1q-3.23,1.47-6.52,2.71a47.47,47.47,0,0,1-6.8,2c-.58.13-1.17.2-1.77.28a12.21,12.21,0,0,1-1.82.07,4.26,4.26,0,0,1-.48,0,4.55,4.55,0,0,1-.45-.07,2.73,2.73,0,0,1-1-.42,1.88,1.88,0,0,1-.65-.87,2.54,2.54,0,0,1-.11-1,5.46,5.46,0,0,1,.5-1.78,13.33,13.33,0,0,1,.83-1.59,24.39,24.39,0,0,1,2.1-2.83Zm0,.09a25,25,0,0,0-1.79,3,14.41,14.41,0,0,0-.69,1.57,5.28,5.28,0,0,0-.34,1.61,1.31,1.31,0,0,0,.54,1.21,1.56,1.56,0,0,0,.64.25,4.23,4.23,0,0,0,.42.06h.4a11.88,11.88,0,0,0,1.67-.14c.56-.1,1.13-.19,1.69-.33,1.12-.25,2.23-.58,3.34-.92s2.2-.72,3.3-1.11c2.19-.77,4.37-1.62,6.5-2.53h0a.46.46,0,0,1,.51.1,13.42,13.42,0,0,0,1.88,1.74,8.1,8.1,0,0,0,2.23,1.18,6.21,6.21,0,0,0,2.5.29,11,11,0,0,0,2.54-.58c.2-.07.47-.13.6-.19s.12-.21.08-.4a4.54,4.54,0,0,0-.47-1.18,12.59,12.59,0,0,0-1.49-2.16,17.86,17.86,0,0,0-3.82-3.55,7,7,0,0,0-2.27-1.08,9.52,9.52,0,0,0-2.51,0c-.86.07-1.72.21-2.59.33s-1.73.3-2.59.47c-1.72.36-3.44.76-5.15,1.16Z" transform="translate(0 0)"/><path class="cls-3" d="M219.42,58.68s-13.25-9.17-30.58,9.18-14.07,20-28.51,19.47c0,0-8.77,21.42,0,38.62,18.43,0,50.72-7.37,62.18-34.65A50.76,50.76,0,0,0,226,77.74" transform="translate(0 0)"/><path class="cls-2" d="M219.39,58.73a14.44,14.44,0,0,0-4.09-1.62,18.36,18.36,0,0,0-4.36-.51,22.64,22.64,0,0,0-8.55,1.78,32,32,0,0,0-3.91,2,39.27,39.27,0,0,0-3.61,2.5c-.58.46-1.16.91-1.7,1.4s-1.11,1-1.64,1.47-1.06,1-1.57,1.55-1,1-1.53,1.6q-3,3.25-5.93,6.6c-2,2.21-3.87,4.47-5.87,6.68a26.71,26.71,0,0,1-3.26,3.11,10.65,10.65,0,0,1-4.1,2,20.69,20.69,0,0,1-4.49.42c-1.49,0-3,0-4.46-.12l.24-.16a56.29,56.29,0,0,0-2.76,9.48,54.88,54.88,0,0,0-1.18,9.8,44.41,44.41,0,0,0,.74,9.84c.15.81.34,1.61.55,2.4s.45,1.58.72,2.36.55,1.55.88,2.3.69,1.49,1,2.23l-.25-.15a84,84,0,0,0,11.09-.88c1.83-.27,3.66-.59,5.47-1s3.61-.83,5.4-1.31,3.55-1,5.3-1.64,3.48-1.27,5.17-2,3.37-1.53,5-2.39c.82-.42,1.61-.89,2.42-1.34l2.36-1.44c1.55-1,3.07-2.06,4.51-3.2.72-.58,1.45-1.15,2.13-1.77l1-.91,1-1a49.53,49.53,0,0,0,3.75-4c.6-.7,1.12-1.46,1.69-2.18s1-1.52,1.58-2.27,1-1.57,1.44-2.36L221,93.55c.78-1.66,1.57-3.34,2.21-5.07a48.49,48.49,0,0,0,1.64-5.3c.45-1.8.85-3.61,1.15-5.45,0,0,0,0,.06,0s0,0,0,0a49.37,49.37,0,0,1-.77,5.55,51.07,51.07,0,0,1-1.44,5.43c-.3.89-.62,1.78-1,2.64l-1.14,2.58-1.29,2.51c-.47.81-.94,1.63-1.43,2.43a49.51,49.51,0,0,1-3.31,4.56,48.4,48.4,0,0,1-3.82,4.15l-1,1-1.06.93c-.69.64-1.43,1.22-2.16,1.81-1.47,1.17-3,2.24-4.59,3.27-.79.5-1.6,1-2.4,1.46s-1.64.92-2.48,1.34c-1.67.86-3.36,1.67-5.09,2.39s-3.48,1.38-5.25,2-3.57,1.14-5.38,1.62-3.63.89-5.47,1.24-3.68.65-5.54.89a83.5,83.5,0,0,1-11.18.71h0a.25.25,0,0,1-.23-.15c-.34-.76-.73-1.5-1-2.28s-.6-1.55-.86-2.34-.48-1.6-.68-2.4-.38-1.62-.52-2.44a45.18,45.18,0,0,1-.69-9.92,61.94,61.94,0,0,1,1.15-9.87c.32-1.62.7-3.24,1.14-4.84s.92-3.18,1.51-4.75a.25.25,0,0,1,.23-.15h0c1.48,0,3,.07,4.43,0a19.49,19.49,0,0,0,4.33-.5,9.82,9.82,0,0,0,3.79-1.93A29.14,29.14,0,0,0,176,81.61c2-2.19,3.86-4.47,5.82-6.7s4-4.42,6-6.58c.5-.54,1-1.07,1.55-1.6s1.05-1.06,1.61-1.56,1.09-1,1.67-1.48,1.15-.95,1.74-1.41a35.67,35.67,0,0,1,3.73-2.5,31.23,31.23,0,0,1,4-2,22,22,0,0,1,8.78-1.62,18.25,18.25,0,0,1,4.42.67,14.74,14.74,0,0,1,4.09,1.77,0,0,0,0,1,0,.07A.06.06,0,0,1,219.39,58.73Z" transform="translate(0 0)"/><path class="cls-1" d="M225.32,55.68l-3.38,10.4s-6.59,5.53-12.14-3.94L213.75,50Z" transform="translate(0 0)"/><path class="cls-2" d="M225.37,55.7c-.41,1.78-.9,3.54-1.4,5.29s-1,3.5-1.61,5.23v0a.43.43,0,0,1-.13.19,7.44,7.44,0,0,1-1.7,1,7.65,7.65,0,0,1-.92.31,6.15,6.15,0,0,1-1,.19,5.17,5.17,0,0,1-1,.07,6.2,6.2,0,0,1-1-.07,4.83,4.83,0,0,1-.93-.21c-.3-.11-.61-.19-.9-.31l-.84-.43c-.27-.15-.51-.36-.77-.53a4.21,4.21,0,0,1-.74-.58l-.69-.63c-.22-.22-.41-.47-.62-.7s-.41-.47-.6-.71l-1.08-1.53a.25.25,0,0,1,0-.19v0c.57-2,1.16-4.1,1.79-6.13s1.25-4.07,1.92-6.08h0a.53.53,0,0,1,.67-.34l.07,0c1.92,1,3.82,2,5.72,3s3.78,2,5.64,3.15A0,0,0,0,1,225.37,55.7Zm-.11,0c-2-.79-3.94-1.65-5.89-2.52s-3.92-1.78-5.85-2.71l.74-.31c-.65,2-1.34,4-2,6s-1.42,4-2.17,6l0-.22.94,1.56c.17.25.36.48.55.72s.38.48.58.7l.66.62a3.43,3.43,0,0,0,.7.57,8.9,8.9,0,0,0,.76.49l.82.37a6.9,6.9,0,0,0,.86.24,4.41,4.41,0,0,0,.88.11,5.17,5.17,0,0,0,.88,0,5.09,5.09,0,0,0,.87-.14c.29,0,.56-.17.84-.24l.81-.35a8.52,8.52,0,0,0,1.46-.9l-.14.21c.57-1.74,1.16-3.46,1.78-5.18S224.55,57.38,225.26,55.71Z" transform="translate(0 0)"/><path class="cls-3" d="M210.33,60.6s14.9-.19,9.83,19.56c-6.26,24.42-7.13,27.52-7.13,27.52s36.69,5.09,37.71,6.11l-2,12.23s-46.88,5.1-53-2,3.06-42.8,3.06-42.8" transform="translate(0 0)"/><path class="cls-2" d="M210.33,60.55a12.07,12.07,0,0,1,3.37.51,11.22,11.22,0,0,1,3.1,1.44,9.92,9.92,0,0,1,2.49,2.39A11.46,11.46,0,0,1,220.83,68a14.52,14.52,0,0,1,.65,3.39,21.94,21.94,0,0,1,0,3.44A29.71,29.71,0,0,1,221,78.2c-.23,1.12-.5,2.24-.78,3.33l-3.36,13.14c-1.16,4.37-2.28,8.74-3.48,13.1l-.3-.45L232,110.24l9.44,1.5,4.72.79,2.35.45,1.18.25.58.15a1.84,1.84,0,0,1,.64.27.13.13,0,0,1,.06.14v0L249,126.07a.32.32,0,0,1-.28.27c-8.08.89-16.18,1.55-24.32,1.83-4.06.13-8.13.19-12.21,0-2-.07-4.08-.2-6.11-.42a40.81,40.81,0,0,1-6.07-1.06,15.81,15.81,0,0,1-3-1.1,7.13,7.13,0,0,1-1.36-.93,5.29,5.29,0,0,1-1-1.33,15.09,15.09,0,0,1-1.44-6.08,67.41,67.41,0,0,1,.63-12.23c.52-4,1.22-8,2-12s1.76-7.94,2.81-11.87a0,0,0,0,1,.06,0,.05.05,0,0,1,0,.06c-.93,4-1.71,7.94-2.44,11.93s-1.36,8-1.8,12a67,67,0,0,0-.41,12.08,15,15,0,0,0,1.39,5.66c.84,1.66,2.86,2.32,4.73,2.86a40.22,40.22,0,0,0,5.92,1c2,.21,4,.33,6,.4,4,.17,8.09.15,12.14,0q12.15-.36,24.29-1.49l-.28.26,2.15-12.21.05.18a2.3,2.3,0,0,0-.46-.18l-.57-.16-1.15-.26-2.34-.46-4.71-.82c-3.14-.54-6.29-1-9.44-1.46-6.3-.95-12.63-1.74-18.94-2.56a.36.36,0,0,1-.31-.41v0h0c1.07-4.39,2.21-8.76,3.32-13.14l3.45-13.12c.29-1.09.56-2.17.8-3.27s.39-2.2.51-3.3a20.71,20.71,0,0,0,.08-3.34,13.81,13.81,0,0,0-.55-3.26,10,10,0,0,0-3.7-5.35,11.72,11.72,0,0,0-6.26-2.15.05.05,0,0,1,0-.1Z" transform="translate(0 0)"/><path class="cls-1" d="M244.87,15.36c7.82,12.35.94,39.41-13.35,43.5-6.14,1.75-12.47-1.08-12.89-1.27A22.45,22.45,0,0,1,209,48.05c-6.92-14,4.51-36.3,17.66-39.88a16.45,16.45,0,0,1,10.41.29A16.45,16.45,0,0,1,244.87,15.36Z" transform="translate(0 0)"/><path class="cls-2" d="M244.92,15.33l.21.37c.13.24.37.58.6,1.07a21,21,0,0,1,1.63,4.38,33.9,33.9,0,0,1,1,7.19,41,41,0,0,1-.85,9.4,38.51,38.51,0,0,1-3.82,10.53,27.53,27.53,0,0,1-3.5,5,19.83,19.83,0,0,1-4.89,4.14A15.54,15.54,0,0,1,229,59.52a20.35,20.35,0,0,1-6.72-.55,22.48,22.48,0,0,1-3.27-1,16.47,16.47,0,0,1-3-1.69,23.8,23.8,0,0,1-5.11-4.66,19.94,19.94,0,0,1-3.34-6.1,23.49,23.49,0,0,1-1.09-6.83,33.8,33.8,0,0,1,2.66-13.1,37.23,37.23,0,0,1,6.61-10.63,23.68,23.68,0,0,1,9.09-6.59,17.57,17.57,0,0,1,9.41-.9,14.59,14.59,0,0,1,6.56,3.08A17.44,17.44,0,0,1,244,14C244.63,14.84,244.92,15.33,244.92,15.33Zm-.09.06s-.3-.5-.93-1.36a16.76,16.76,0,0,0-3.19-3.34,13.67,13.67,0,0,0-6.51-2.8,17.46,17.46,0,0,0-9,1.24,24.39,24.39,0,0,0-8.64,6.48A38.16,38.16,0,0,0,210.11,26a33.27,33.27,0,0,0-2.73,12.7,22.84,22.84,0,0,0,.92,6.61,19.21,19.21,0,0,0,3.06,6,23.19,23.19,0,0,0,4.9,4.69,15.82,15.82,0,0,0,2.92,1.69,22.63,22.63,0,0,0,3.21,1,19.46,19.46,0,0,0,6.61.48A14.23,14.23,0,0,0,235,57a24.33,24.33,0,0,0,7.92-9.14,42.49,42.49,0,0,0,2.28-5.19,39,39,0,0,0,1.52-5.09,42.21,42.21,0,0,0,1.18-9.24,29.41,29.41,0,0,0-.74-7.15,21,21,0,0,0-1.56-4.36c-.22-.49-.45-.83-.58-1.08Z" transform="translate(0 0)"/><path class="cls-5" d="M247.81,31.08a7.1,7.1,0,0,1-5.06,4.24,6.74,6.74,0,0,1-6.61-2.73,9.12,9.12,0,0,1-6.08,3.27A9.36,9.36,0,0,1,222.68,33a67.39,67.39,0,0,1-4.88,7.41,68.86,68.86,0,0,1-8.69,9.51,6.54,6.54,0,0,1-7-9.49,5,5,0,0,1-3.18-8.82,5,5,0,0,1-2.13-5.88,5.14,5.14,0,0,1,3.66-2.9,8.16,8.16,0,0,1,.88-7.33,7.8,7.8,0,0,1,5.25-3A5.9,5.9,0,0,1,215,4.89a6.79,6.79,0,0,1,6.21-4,7.2,7.2,0,0,1,5.72,3.36A5.72,5.72,0,0,1,238,6.15s10.35-2.92,10,8c0,0,6.88,1.2,4.4,8.64a4.85,4.85,0,0,1-4.59,8.25Z" transform="translate(0 0)"/><path class="cls-2" d="M247.84,31.14a7.68,7.68,0,0,1-2.08,2.9,6.76,6.76,0,0,1-.74.55,5.23,5.23,0,0,1-.81.44,6.62,6.62,0,0,1-5.41,0,7.15,7.15,0,0,1-2.9-2.3l.46,0a9.66,9.66,0,0,1-3,2.47,9.37,9.37,0,0,1-1.84.72,8.52,8.52,0,0,1-1,.2l-.5.07-.48,0a8.43,8.43,0,0,1-1,0,8.13,8.13,0,0,1-1-.14,9.06,9.06,0,0,1-1.9-.58,10.37,10.37,0,0,1-3.26-2.24l.66-.08a64.7,64.7,0,0,1-6.13,9.07,65,65,0,0,1-7.55,7.92h0a.37.37,0,0,1-.18.08,7,7,0,0,1-5.45-1.35,6.72,6.72,0,0,1-1.83-2.19,6.15,6.15,0,0,1-.38-.88,7,7,0,0,1,.42-5.52l.17.29a5.32,5.32,0,0,1-2.93-1,5.13,5.13,0,0,1-2.14-4,5,5,0,0,1,.18-1.54,5.26,5.26,0,0,1,1.6-2.62l0,.25a5.54,5.54,0,0,1-2-2.2,4.92,4.92,0,0,1-.49-2.92,4.7,4.7,0,0,1,.46-1.43,4.51,4.51,0,0,1,.92-1.2,6,6,0,0,1,2.65-1.39l-.17.31a9.17,9.17,0,0,1-.54-3.52,7.77,7.77,0,0,1,1-3.43c.17-.25.31-.51.51-.76a5.87,5.87,0,0,1,.57-.68,7.65,7.65,0,0,1,1.4-1.15,8.34,8.34,0,0,1,3.38-1.25l-.28.51a6.53,6.53,0,0,1-.51-3.92,6.31,6.31,0,0,1,1.91-3.49,4.32,4.32,0,0,1,.39-.34c.14-.09.24-.19.4-.28a5,5,0,0,1,.91-.49,6.09,6.09,0,0,1,2-.5,6.54,6.54,0,0,1,3.91.88l-.67.21a7.47,7.47,0,0,1,2.47-3A7.23,7.23,0,0,1,220.71.37l.49,0,.49,0a7.44,7.44,0,0,1,1,.15,5.84,5.84,0,0,1,.95.3,6.13,6.13,0,0,1,.9.42,7.61,7.61,0,0,1,1.58,1.17,9.2,9.2,0,0,1,.67.72,6.51,6.51,0,0,1,.59.81l-1,.08a8,8,0,0,1,.48-1,7.7,7.7,0,0,1,.63-.87A6.55,6.55,0,0,1,229.18.83,6.18,6.18,0,0,1,233.35.1a5.42,5.42,0,0,1,1,.27,6.63,6.63,0,0,1,1,.46A6.37,6.37,0,0,1,237,2.2,6.58,6.58,0,0,1,238.08,4a7.56,7.56,0,0,1,.3,1,9.46,9.46,0,0,1,.12,1.07l-.64-.47a11.7,11.7,0,0,1,2-.33,10.49,10.49,0,0,1,2,0,6.85,6.85,0,0,1,1,.16,5.62,5.62,0,0,1,1,.29,4.74,4.74,0,0,1,1,.42,4.21,4.21,0,0,1,.87.57l.41.32.35.4a3.81,3.81,0,0,1,.63.82c.17.3.36.6.5.91l.34,1a4.29,4.29,0,0,1,.22,1l.16,1c0,.67,0,1.33.05,2l-.3-.37a7.18,7.18,0,0,1,1.4.46,8.16,8.16,0,0,1,1.29.72l.58.45.52.53c.16.19.3.39.45.59s.24.44.36.65a3.41,3.41,0,0,1,.27.69,2.6,2.6,0,0,1,.17.72,5.83,5.83,0,0,1,.1.73v.73a11.64,11.64,0,0,1-.18,1.43l-.38,1.38-.07-.27a5.15,5.15,0,0,1,1.55,3,5,5,0,0,1-.61,3.26,4,4,0,0,1-.48.68,4.71,4.71,0,0,1-.58.6A5.15,5.15,0,0,1,251,31,5,5,0,0,1,247.84,31.14Zm0-.1a4.91,4.91,0,0,0,3.12-.25,4.49,4.49,0,0,0,1.32-.86,3.61,3.61,0,0,0,.53-.58,3.56,3.56,0,0,0,.43-.66,4.64,4.64,0,0,0,.46-3A4.72,4.72,0,0,0,252.23,23a.24.24,0,0,1-.08-.25v0l.34-1.33a11.93,11.93,0,0,0,.14-1.34v-.67c0-.23-.07-.44-.1-.66a2.88,2.88,0,0,0-.17-.64,4,4,0,0,0-.25-.6,6.48,6.48,0,0,0-.33-.57l-.4-.52L250.9,16l-.53-.39A6.55,6.55,0,0,0,249.2,15a6.81,6.81,0,0,0-1.26-.4.37.37,0,0,1-.3-.35v0c0-.63,0-1.26-.08-1.89l-.17-.92a3.84,3.84,0,0,0-.23-.9l-.31-.86c-.14-.27-.31-.52-.46-.79a3.38,3.38,0,0,0-.56-.7l-.3-.33-.36-.26a3,3,0,0,0-.75-.48,4.05,4.05,0,0,0-.83-.35,5.19,5.19,0,0,0-.88-.24,6.88,6.88,0,0,0-.91-.13,10.4,10.4,0,0,0-1.85,0,11.91,11.91,0,0,0-1.82.29.5.5,0,0,1-.62-.36.36.36,0,0,1,0-.11,8.65,8.65,0,0,0-.1-.89,6.68,6.68,0,0,0-.26-.87,5.25,5.25,0,0,0-.92-1.54,5.37,5.37,0,0,0-1.37-1.14,5,5,0,0,0-.81-.38,5.25,5.25,0,0,0-.87-.23,5.12,5.12,0,0,0-3.46.63,5,5,0,0,0-1.37,1.14,6.05,6.05,0,0,0-.53.72,6,6,0,0,0-.39.81.54.54,0,0,1-.7.29.52.52,0,0,1-.25-.21,4.32,4.32,0,0,0-.5-.67c-.18-.23-.38-.43-.58-.64a7.11,7.11,0,0,0-1.36-1,5.45,5.45,0,0,0-.77-.37,5.74,5.74,0,0,0-.8-.26,5,5,0,0,0-.83-.13,4.87,4.87,0,0,0-.85,0,6.22,6.22,0,0,0-3.18,1.11,6.53,6.53,0,0,0-2.17,2.6h0a.49.49,0,0,1-.63.23l0,0a5.63,5.63,0,0,0-3.35-.78,5.23,5.23,0,0,0-1.69.41,5.42,5.42,0,0,0-.76.39,4.28,4.28,0,0,0-.38.26,3.92,3.92,0,0,0-.33.27,5.45,5.45,0,0,0-1.71,3,5.76,5.76,0,0,0,.38,3.47.37.37,0,0,1-.18.48l-.1,0a7.75,7.75,0,0,0-3.12,1.08,7.18,7.18,0,0,0-1.3,1,5.91,5.91,0,0,0-.55.63c-.17.2-.31.45-.47.68a7,7,0,0,0-1,3.16,8.47,8.47,0,0,0,.43,3.32.24.24,0,0,1-.14.3h0A5.51,5.51,0,0,0,198,24.28a3.83,3.83,0,0,0-1.29,2.39,4.58,4.58,0,0,0,.43,2.72A5.3,5.3,0,0,0,199,31.48a.16.16,0,0,1,0,.22l0,0a5,5,0,0,0-1.52,2.45,5.11,5.11,0,0,0-.15,1.45,5,5,0,0,0,.29,1.43,4.81,4.81,0,0,0,1.75,2.28,4.9,4.9,0,0,0,2.72.89.21.21,0,0,1,.19.2.24.24,0,0,1,0,.09,6.45,6.45,0,0,0-.67,3.45,6.33,6.33,0,0,0,.39,1.71,5.8,5.8,0,0,0,.37.8,5.66,5.66,0,0,0,.47.73,6.22,6.22,0,0,0,.58.66,5.18,5.18,0,0,0,.67.57,6,6,0,0,0,1.53.83,6.24,6.24,0,0,0,3.42.28l-.18.09a72.59,72.59,0,0,0,7.36-7.92,73.27,73.27,0,0,0,6.11-8.92.41.41,0,0,1,.56-.16l.1.08a9.08,9.08,0,0,0,3,2.07,8.13,8.13,0,0,0,1.73.56c.3.07.6.09.9.14a8.88,8.88,0,0,0,.9,0l.48,0,.44-.05a7.08,7.08,0,0,0,.9-.16,8.18,8.18,0,0,0,1.71-.63,9,9,0,0,0,2.89-2.24h0a.29.29,0,0,1,.41,0l0,.05A6.66,6.66,0,0,0,239,34.61a6.5,6.5,0,0,0,3.4.56,6.16,6.16,0,0,0,1.69-.42,4.88,4.88,0,0,0,.79-.4,5.14,5.14,0,0,0,.72-.5,7.48,7.48,0,0,0,2.17-2.78A0,0,0,0,1,247.83,31Z" transform="translate(0 0)"/><path class="cls-1" d="M221.61,38s-1.6-5.32-4.88-4.22c-2.74.92-4.25,10-1.64,11.52a2.83,2.83,0,0,0,2.36-.06" transform="translate(0 0)"/><path class="cls-2" d="M221.56,38s-.17-.31-.48-.83a12.42,12.42,0,0,0-1.43-2,3.8,3.8,0,0,0-1.18-.92,2.33,2.33,0,0,0-1.59-.26,2.21,2.21,0,0,0-1.43,1.14,6.3,6.3,0,0,0-.73,1.91,20.23,20.23,0,0,0-.33,2,14.51,14.51,0,0,0-.13,2,8.25,8.25,0,0,0,.5,3.26,1.6,1.6,0,0,0,.77.84,2.23,2.23,0,0,0,1,.16,4.88,4.88,0,0,0,.69-.06l.25,0a.06.06,0,0,1,.06,0s0,0,0,.05a3.53,3.53,0,0,1-.91.41,2.45,2.45,0,0,1-1.23.05,1.61,1.61,0,0,1-.37-.12c-.14-.07-.25-.14-.38-.22a3.1,3.1,0,0,1-.59-.66,6.37,6.37,0,0,1-.76-3.74,13.86,13.86,0,0,1,.29-2.08,10.18,10.18,0,0,1,.68-2,15.39,15.39,0,0,1,1-1.89,3.58,3.58,0,0,1,1.54-1.49,2.69,2.69,0,0,1,2.1,0,3.71,3.71,0,0,1,1.47,1.16A6.85,6.85,0,0,1,221.46,37a5.83,5.83,0,0,1,.2,1,.06.06,0,0,1,0,.06A.05.05,0,0,1,221.56,38Z" transform="translate(0 0)"/><path class="cls-6" d="M106.07,44.85a106.06,106.06,0,0,0-11.34-8.09c-8.08-5-13.51-6.89-13.78-10.69-.14-1.95.63-4.68,2.36-4.91,12.92-1.75,27,2.1,39.5,6.76A5.55,5.55,0,0,1,126,31.24c1.86,3.88,0,9.55-4.92,13.84a14.26,14.26,0,0,0-5.37-2A15,15,0,0,0,106.07,44.85Z" transform="translate(0 0)"/><path class="cls-2" d="M106,44.89c-3.29-2.47-6.65-4.82-10.14-7-1.74-1.08-3.5-2.13-5.29-3.13s-3.6-2-5.35-3.09a20.67,20.67,0,0,1-2.55-1.85,6.13,6.13,0,0,1-1.91-2.63,6.35,6.35,0,0,1,0-3.24,4.36,4.36,0,0,1,1.66-2.76,2,2,0,0,1,.82-.3l.77-.07,1.54-.14c1-.05,2.06-.12,3.09-.13s2.07,0,3.1,0,2,.08,3.08.16a85.64,85.64,0,0,1,12.22,1.85c2,.44,4,1,6,1.53s4,1.2,5.9,1.87c1,.33,2,.66,2.92,1,.49.19,1,.33,1.47.55a5.16,5.16,0,0,1,1.44.93,7.63,7.63,0,0,1,1.75,2.78,7.21,7.21,0,0,1,.48,1.57,10,10,0,0,1,.15,1.63,12.43,12.43,0,0,1-1.8,6.09,19.36,19.36,0,0,1-4.07,4.8h0a.39.39,0,0,1-.48,0,14.5,14.5,0,0,0-3.45-1.62,13.51,13.51,0,0,0-1.85-.46c-.33,0-.66-.11-1-.13s-.63-.06-1-.06a15.34,15.34,0,0,0-7.49,1.74Zm0-.1a14.9,14.9,0,0,1,7.51-2.17c.33,0,.67,0,1,0s.65.06,1,.09a14.46,14.46,0,0,1,2,.4,14,14,0,0,1,3.68,1.6l-.48,0a18.13,18.13,0,0,0,3.76-4.66,11.74,11.74,0,0,0,1.62-5.61,8.55,8.55,0,0,0-.14-1.43,6.3,6.3,0,0,0-.42-1.37,6.69,6.69,0,0,0-1.51-2.4,4.31,4.31,0,0,0-1.12-.75c-.44-.2-1-.36-1.42-.55-1-.36-1.92-.71-2.89-1.05-1.93-.69-3.88-1.33-5.83-1.94s-3.92-1.18-5.91-1.68-4-1-6-1.36a59.07,59.07,0,0,0-6.09-.85,48.4,48.4,0,0,0-6.14-.2c-1,0-2,.11-3.06.19l-1.53.19-.75.1a1.49,1.49,0,0,0-.61.25,3.88,3.88,0,0,0-1.32,2.46A5.63,5.63,0,0,0,81.52,27c.71,1.75,2.51,2.92,4.2,4,3.49,2.11,7.13,4.08,10.57,6.36A91.1,91.1,0,0,1,106.08,44.79Z" transform="translate(0 0)"/><path class="cls-2" d="M93.62,36.05a29.31,29.31,0,0,1,3.8-3,.46.46,0,0,1,.62.12.51.51,0,0,1,.07.31v0a23.73,23.73,0,0,1-.49,2.34,20.62,20.62,0,0,0-.52,2.33l-.25-.13c1.11-1,2.06-2.23,3.11-3.32a.43.43,0,0,1,.6,0,.44.44,0,0,1,.13.35v0c-.18,1.63-.34,3.26-.65,4.86l-.81-.48c.7-.5,1.42-1,2.15-1.44s1.47-.91,2.24-1.32a.06.06,0,0,1,.07,0s0,.05,0,.06c-.59.64-1.23,1.23-1.87,1.81s-1.3,1.14-2,1.68a.49.49,0,0,1-.7-.07.47.47,0,0,1-.11-.37v0c.18-1.63.51-3.23.81-4.84l.72.38c-1.15,1-2.41,1.86-3.49,2.91a.16.16,0,0,1-.22,0,.17.17,0,0,1,0-.13,23.82,23.82,0,0,0,.2-2.39,21,21,0,0,1,.22-2.38l.69.45a30.9,30.9,0,0,1-4.24,2.3,0,0,0,0,1-.06,0S93.6,36.06,93.62,36.05Z" transform="translate(0 0)"/><path class="cls-6" d="M32.68,61.35a108.22,108.22,0,0,0-13.87-1.28c-9.51-.25-15.14.87-17.29-2.28-1.1-1.61-1.9-4.48-.44-5.43C13.56,44.25,25.45,40.58,38.61,38.3A5.57,5.57,0,0,1,43,39.57C46.56,42,47.79,47.84,45.72,54a14.57,14.57,0,0,0-5.66,1A15,15,0,0,0,32.68,61.35Z" transform="translate(0 0)"/><path class="cls-2" d="M32.67,61.4c-4.08-.47-8.17-.81-12.26-.91-2.05-.06-4.09-.07-6.14,0s-4.11.12-6.18,0A20.87,20.87,0,0,1,5,60.17a6.15,6.15,0,0,1-3-1.3A6.3,6.3,0,0,1,.33,56.09a4.37,4.37,0,0,1,0-3.22,1.79,1.79,0,0,1,.58-.67l.67-.41L2.87,51c.87-.54,1.78-1,2.66-1.56,1.81-1,3.62-2,5.47-2.87s3.72-1.76,5.62-2.56,3.83-1.53,5.78-2.2,3.93-1.25,5.92-1.79,4-1,6-1.42q1.52-.32,3-.6c.52-.09,1-.2,1.54-.27a5.19,5.19,0,0,1,1.72.09,7.5,7.5,0,0,1,2.91,1.52,7.28,7.28,0,0,1,1.2,1.11,10.1,10.1,0,0,1,.95,1.33A12.44,12.44,0,0,1,47.2,48a18.85,18.85,0,0,1-1.1,6.19h0a.41.41,0,0,1-.4.28,14.74,14.74,0,0,0-3.8.33,14.26,14.26,0,0,0-1.83.54c-.3.13-.62.24-.9.38s-.57.27-.85.43a15.37,15.37,0,0,0-5.6,5.27A.05.05,0,0,1,32.67,61.4Zm0-.11a15,15,0,0,1,5.39-5.66,9.33,9.33,0,0,1,.88-.48c.3-.17.6-.28.9-.42a14.88,14.88,0,0,1,1.91-.66,14.44,14.44,0,0,1,4-.47l-.4.28a18.38,18.38,0,0,0,.9-5.92A11.75,11.75,0,0,0,44.8,42.3,8.05,8.05,0,0,0,44,41.13a8,8,0,0,0-3.56-2.27,4.42,4.42,0,0,0-1.35-.1c-.47.05-1,.17-1.49.25-1,.17-2,.36-3,.55-2,.39-4,.83-6,1.32s-4,1-5.92,1.61-3.9,1.24-5.82,2S13,46,11.15,46.87c-.94.42-1.84.91-2.76,1.37s-1.79,1-2.68,1.5-1.77,1-2.63,1.59l-1.29.85-.63.42a1.31,1.31,0,0,0-.4.5,3.91,3.91,0,0,0,.17,2.78,5.69,5.69,0,0,0,1.54,2.41C4,59.43,6.12,59.53,8.12,59.6c4.06.07,8.21-.07,12.32.17A91.27,91.27,0,0,1,32.66,61.29Z" transform="translate(0 0)"/><path class="cls-2" d="M17.49,60a29.14,29.14,0,0,1,1.78-4.49.46.46,0,0,1,.6-.21.49.49,0,0,1,.22.23v0a20,20,0,0,1,.76,2.26,22.4,22.4,0,0,0,.73,2.28h-.29c.45-1.44.66-3,1-4.43a.42.42,0,0,1,.51-.31.42.42,0,0,1,.29.24v0c.66,1.5,1.35,3,1.89,4.53h-.94c.35-.79.73-1.57,1.13-2.33s.81-1.53,1.27-2.27a.05.05,0,0,1,.07,0,0,0,0,0,1,0,.06c-.19.85-.45,1.67-.7,2.5s-.55,1.64-.85,2.45a.5.5,0,0,1-.65.29.51.51,0,0,1-.28-.26l0,0c-.67-1.49-1.19-3-1.74-4.59l.82,0c-.5,1.44-1.15,2.82-1.56,4.28a.15.15,0,0,1-.18.11.14.14,0,0,1-.1-.1,22.36,22.36,0,0,0-1-2.15,22.35,22.35,0,0,1-1-2.17l.82,0a30.67,30.67,0,0,1-2.5,4.13,0,0,0,0,1-.07,0S17.48,60,17.49,60Z" transform="translate(0 0)"/><polygon class="cls-7" points="304.93 125.64 309.76 125.64 330.71 63.8 325.88 63.8 304.93 125.64"/><path class="cls-2" d="M305,125.59l4.76-.13-.17.12c.8-2.6,1.65-5.18,2.48-7.78s1.69-5.17,2.55-7.75,1.7-5.17,2.58-7.74,1.75-5.16,2.68-7.71l2.74-7.69c.93-2.56,1.81-5.14,2.7-7.71s1.74-5.15,2.61-7.73l2.52-7.76.26.36-4.83.07.33-.23q-2.5,7.77-5.1,15.5l-2.59,7.75-2.63,7.72c-1.74,5.16-3.58,10.28-5.36,15.42S306.88,120.5,305,125.59Zm-.12,0q2.42-7.8,4.93-15.56c1.7-5.17,3.36-10.35,5.11-15.51l2.6-7.73,2.66-7.72q2.65-7.72,5.37-15.42h0a.35.35,0,0,1,.33-.22l4.83.07h0a.28.28,0,0,1,.27.28.19.19,0,0,1,0,.08l-2.71,7.7c-.87,2.58-1.79,5.14-2.63,7.73s-1.72,5.16-2.54,7.76l-2.49,7.77c-.82,2.59-1.71,5.17-2.56,7.75s-1.77,5.15-2.65,7.72-1.77,5.14-2.7,7.7-1.81,5.14-2.75,7.69h0a.17.17,0,0,1-.17.11l-4.83-.13a0,0,0,0,1-.05,0Z" transform="translate(0 0)"/><rect class="cls-7" x="251.42" y="120.99" width="60.87" height="6.2"/><path class="cls-2" d="M251.47,127.14c5.06-.17,10.11-.24,15.17-.32s10.15-.11,15.22-.06,10.14.15,15.22.22l7.61.06,7.61,0-.19.19L312,121l.28.27q-7.62.13-15.22.19c-5.08,0-10.15.09-15.22.06s-10.15,0-15.22-.08-10.15-.13-15.22-.23l.21-.21Zm-.1,0-.16-6.2a.2.2,0,0,1,.2-.21h0q7.61-.16,15.22-.23c5.07-.08,10.15-.07,15.22-.09s10.14.05,15.22.07,10.14.09,15.22.18h0a.28.28,0,0,1,.27.28l-.09,6.2a.19.19,0,0,1-.18.19l-7.61,0-7.61.06c-5.08.08-10.15.22-15.22.22s-10.15,0-15.22-.06-10.15-.15-15.22-.32A0,0,0,0,1,251.37,127.19Z" transform="translate(0 0)"/><polygon class="cls-8" points="268.87 62.21 293.15 62.21 306.27 87.06 279.91 88.38 268.87 62.21"/><path class="cls-2" d="M268.87,62.16c2-.09,4-.15,6.07-.2l6.07-.13c4.05,0,8.09-.11,12.14,0h0a.41.41,0,0,1,.37.23l1.61,3.12,1.58,3.14c1.06,2.09,2.08,4.2,3.16,6.28s2.14,4.16,3.26,6.22,2.22,4.13,3.36,6.18a.24.24,0,0,1-.1.33l-.1,0h0c-4.39.31-8.78.61-13.17.86s-8.78.54-13.18.72h0a.52.52,0,0,1-.5-.32L276.69,82,274,75.45l-2.63-6.6c-.88-2.2-1.71-4.42-2.57-6.62a.05.05,0,0,1,0-.07Zm.07.1c1,2.13,2,4.25,2.93,6.39l2.89,6.49,2.85,6.5,2.78,6.54-.5-.32c4.39-.25,8.79-.4,13.18-.6s8.79-.32,13.19-.45l-.21.37c-1.05-2.09-2.11-4.18-3.2-6.25s-2.2-4.14-3.3-6.21-2.27-4.1-3.41-6.15l-1.7-3.07-1.67-3.09.38.23c-4,0-8.09,0-12.14-.06l-6.07-.12C272.94,62.4,270.94,62.35,268.94,62.26Z" transform="translate(0 0)"/><polygon class="cls-8" points="269.12 62.58 280.1 88.57 257.24 89.61 245.85 62.88 269.12 62.58"/><path class="cls-2" d="M269.16,62.56c1,2.13,2,4.26,2.95,6.41s1.94,4.29,2.86,6.45,1.88,4.31,2.8,6.48,1.82,4.33,2.67,6.53h0a.36.36,0,0,1-.21.47.27.27,0,0,1-.12,0l-5.72.13c-1.91,0-3.82.12-5.72.19s-3.81.18-5.72.27-3.8.23-5.71.35a.28.28,0,0,1-.25-.15h0c-2-4.42-4-8.84-5.89-13.29l-2.9-6.66-2.82-6.69a.51.51,0,0,1,.27-.67.58.58,0,0,1,.19,0c3.87,0,7.75,0,11.63,0l5.82.06,5.81.11A0,0,0,0,1,269.16,62.56Zm-.08.07-5.78.26-5.81.21c-3.88.1-7.75.24-11.63.29l.46-.71,2.87,6.68,2.8,6.7q2.81,6.69,5.49,13.45l-.25-.16c1.91-.06,3.81-.09,5.72-.17s3.81-.13,5.71-.25,3.81-.2,5.72-.34l5.7-.39-.32.51c-1-2.14-1.88-4.31-2.82-6.46s-1.79-4.35-2.69-6.52-1.77-4.36-2.64-6.54S269.9,64.83,269.08,62.63Z" transform="translate(0 0)"/><path class="cls-9" d="M302.45,84.89S281.92,85,278.87,86c0,0-5.34.53-20.78,1L247.53,62.48s14.41-7.52,21.33-.28c0,0,.14-2.83,3.84-3.15s17.64,3.45,17.64,3.45l9.9,18.3Z" transform="translate(0 0)"/><path class="cls-2" d="M302.45,84.94l-11.81.46c-2,.08-3.93.2-5.89.32-1,.06-1.95.14-2.93.24-.48.05-1,.09-1.44.17l-.71.12-.66.16-.06,0h0c-3.48.33-6.93.5-10.41.63s-6.94.19-10.4.25h0a.28.28,0,0,1-.26-.17C257,85.08,256.15,83,255.27,81l-2.6-6.15q-2.65-6.12-5.39-12.23a.26.26,0,0,1,.13-.34A38,38,0,0,1,252.69,60a28.87,28.87,0,0,1,5.61-1.27,16.37,16.37,0,0,1,5.79.25,10,10,0,0,1,1.41.43,9.18,9.18,0,0,1,1.35.62,8.68,8.68,0,0,1,1.25.82,10.48,10.48,0,0,1,1.12,1l-.85.32a3.58,3.58,0,0,1,.54-1.61,3.94,3.94,0,0,1,1.17-1.2,4.7,4.7,0,0,1,1.49-.65,5.36,5.36,0,0,1,.78-.15c.14,0,.23,0,.42,0h.36a11.46,11.46,0,0,1,1.53.08c.49.06,1,.11,1.47.19,1,.15,1.95.33,2.91.52,1.93.38,3.83.81,5.74,1.27s3.79.94,5.68,1.47h0a.49.49,0,0,1,.28.23l5.92,11.27c2,3.75,3.9,7.53,5.82,11.32a.07.07,0,0,1,0,.07Zm-.09-.1c-2.1-3.66-4.19-7.31-6.24-11l-6.19-11.13.29.23c-3.78-.94-7.57-1.89-11.38-2.63-.95-.18-1.91-.35-2.86-.49-.48-.08-1-.12-1.43-.18a10.52,10.52,0,0,0-1.39-.07h-.37a2,2,0,0,0-.31,0,3.55,3.55,0,0,0-.65.12,3.71,3.71,0,0,0-1.19.5,2.89,2.89,0,0,0-.87.87,2.68,2.68,0,0,0-.41,1.13.51.51,0,0,1-.56.45.54.54,0,0,1-.3-.13,8.56,8.56,0,0,0-1-.9,8.31,8.31,0,0,0-1.11-.75,9.2,9.2,0,0,0-1.23-.58,9.67,9.67,0,0,0-1.29-.41,16.24,16.24,0,0,0-5.48-.32,29.45,29.45,0,0,0-5.48,1.12,36.19,36.19,0,0,0-5.25,2l.12-.35q2.55,6.18,5.17,12.32l2.67,6.13c.88,2,1.82,4.06,2.72,6.1l-.26-.17,10.39-.53,5.19-.29c1.72-.1,3.46-.19,5.17-.33l-.1,0,.78-.19.75-.11c.5-.08,1-.11,1.49-.16,1-.09,2-.15,3-.2,2-.12,3.94-.14,5.91-.18Q296.5,84.69,302.36,84.84Z" transform="translate(0 0)"/><path class="cls-10" d="M302.35,84.84s-20.52.06-23.57,1.12c0,0-5.34.53-20.79,1V83.6S271.6,76,276.63,80.75l.52,1.23s-.13-2.9,3.43-2.49,19.56,1.26,19.56,1.26Z" transform="translate(0 0)"/><path class="cls-2" d="M302.35,84.89l-11.8.53c-2,.07-3.93.16-5.89.3l-1.46.11c-.49,0-1,.06-1.47.12s-1,.08-1.44.15l-.71.11-.66.15-.08,0h0c-1.75.16-3.48.19-5.21.26l-5.21.14-5.2.17-5.2.21a.18.18,0,0,1-.19-.18h0l-.07-3.38a.29.29,0,0,1,.13-.22A42.51,42.51,0,0,1,267,79.46a18.69,18.69,0,0,1,5-.75,11.48,11.48,0,0,1,1.3.08,8.46,8.46,0,0,1,1.29.27,7.36,7.36,0,0,1,1.24.51l.57.36.54.44a.45.45,0,0,1,.1.14l0,0,.52,1.23-1,.23a3.17,3.17,0,0,1,.5-1.76,2.82,2.82,0,0,1,1.47-1.11,4.28,4.28,0,0,1,1.72-.19c.55,0,1,.11,1.54.15l6.09.48,12.21,1h0a.19.19,0,0,1,.17.11l2.07,4.16a.05.05,0,0,1,0,.07S302.36,84.89,302.35,84.89Zm-.08-.1L300,80.85l.18.11q-6.13-.15-12.25-.46-3.06-.14-6.13-.39c-.51,0-1-.11-1.51-.13a3.31,3.31,0,0,0-1.31.14,1.77,1.77,0,0,0-.93.7,2.21,2.21,0,0,0-.32,1.14v0a.53.53,0,0,1-1,.2L276.14,81l.13.18-.43-.36-.46-.3a6.4,6.4,0,0,0-1-.45,7.11,7.11,0,0,0-1.13-.25,9.08,9.08,0,0,0-1.17-.1,18.63,18.63,0,0,0-4.78.63,38.93,38.93,0,0,0-4.66,1.51,48.77,48.77,0,0,0-4.49,2l.13-.22L258.18,87l-.19-.19,5.2-.14,5.19-.26,5.19-.39,5.17-.46-.1,0,.77-.2.75-.12c.5-.09,1-.13,1.49-.19,1-.1,2-.16,3-.21q3-.13,5.92-.19c2,0,3.94,0,5.91,0S300.32,84.71,302.27,84.79Z" transform="translate(0 0)"/><path class="cls-2" d="M228.65,25.38a3,3,0,0,0,.9,1.27,2.4,2.4,0,0,0,1.41.48,1.84,1.84,0,0,0,1.73-1.05,1,1,0,0,0,.06-.75.27.27,0,0,0-.49-.06,4.5,4.5,0,0,1-.25.41.89.89,0,0,1-.29.29,1.32,1.32,0,0,1-.87.26,3,3,0,0,1-1.8-1.15c-.21-.24-.51.06-.4.3Z" transform="translate(0 0)"/><path class="cls-2" d="M240.8,26.75a3.65,3.65,0,0,0,3.14-.48,3.94,3.94,0,0,0,1.17-1.2,3.18,3.18,0,0,0,.34-.78,1.49,1.49,0,0,0,.08-.41,1,1,0,0,0-.13-.45c-.1-.22-.38-.15-.5,0a1.41,1.41,0,0,0-.21.31c0,.11-.07.23-.11.34a3.08,3.08,0,0,1-.28.54,3.43,3.43,0,0,1-.85.93,3.14,3.14,0,0,1-2.49.61.31.31,0,0,0-.16.59Z" transform="translate(0 0)"/><path class="cls-2" d="M240,16.08a3.35,3.35,0,0,1,.62-2.15,1.22,1.22,0,0,1,.36-.32.44.44,0,0,1,.2-.08c.07,0,0,0,.05,0h.11c-.07,0,.16.05.1,0l.08.05.06,0s.07.08,0,0l0,.06s0,0,0,0a.11.11,0,0,0,0,.08.37.37,0,0,0,.17.2.38.38,0,0,0,.49-.13c.18-.24,0-.58-.2-.75a1.13,1.13,0,0,0-.59-.31,1.4,1.4,0,0,0-1.27.47,3.77,3.77,0,0,0-.87,2.81.31.31,0,0,0,.3.29.29.29,0,0,0,.29-.29Z" transform="translate(0 0)"/><path class="cls-2" d="M233.68,10.59A3,3,0,0,1,234,9l0,0,.06-.06.12-.12c-.06.05,0,0,0,0l.06,0,.17-.09s.11,0,0,0l.08,0,.14,0c.09,0-.08,0,0,0h.17s0,0,0,0h.06l.13,0c.08,0-.07,0,0,0a.39.39,0,0,0,.21.06.35.35,0,0,0,.35-.44c-.07-.32-.54-.43-.82-.42a1.58,1.58,0,0,0-1.33.81,3.67,3.67,0,0,0-.32,2,.27.27,0,0,0,.53,0Z" transform="translate(0 0)"/><path class="cls-2" d="M219.15,16.26c0,.1,0,0,0,0l0-.11a.09.09,0,0,1,0-.05s0,0,0,0v-.22a.13.13,0,0,1,0-.06c0-.05,0,0,0,0s0-.14,0-.2a1.87,1.87,0,0,1,.07-.22l0-.05c0,.07,0,.08,0,0a.54.54,0,0,1,0-.11.43.43,0,0,0,0-.07l0-.05,0,0,.08-.09s.08-.05.09-.07l0,0,.05,0a.21.21,0,0,1,.1-.06l.05,0-.05,0,.1,0,.11,0h0a2,2,0,0,0,.24,0h.1a.25.25,0,0,0,.12,0l.11,0a.76.76,0,0,0,.21,0h0c-.06,0-.07,0,0,0a.78.78,0,0,0,.34,0,.31.31,0,0,0,.23-.3.8.8,0,0,0-.27-.49,1,1,0,0,0-.53-.25,1.81,1.81,0,0,0-1,0,1.78,1.78,0,0,0-1.19,1.61,1.82,1.82,0,0,0,.3,1,.39.39,0,0,0,.53.14.4.4,0,0,0,.14-.53Z" transform="translate(0 0)"/><path class="cls-2" d="M229.12,18.1l0,0,0,0,.14-.12-.09.08a.7.7,0,0,1,.16-.1l-.11.05a1.21,1.21,0,0,1,.31-.09h.07l-.14,0,.27,0h-.13a.16.16,0,0,1,.09,0l-.11-.05a1,1,0,0,1,.17.1l-.09-.07a.57.57,0,0,1,.11.11l.06.06,0,0c0-.07,0,0,0,0l0,.07a.52.52,0,0,0,.1.11c.06.06,0-.05,0,0a.29.29,0,0,0,.5,0,.52.52,0,0,0,.11-.38,1,1,0,0,0-.12-.44,1.29,1.29,0,0,0-.62-.53,1.16,1.16,0,0,0-.91.07,1,1,0,0,0-.52.63.42.42,0,0,0,.19.46.83.83,0,0,0,.21.06.5.5,0,0,0,.29-.12Z" transform="translate(0 0)"/><path class="cls-2" d="M215.4,26.07l-.08-.13a.3.3,0,0,1,0-.08c0,.08,0,.1,0,.06s0-.09-.05-.13.05.13,0,0a.24.24,0,0,1,0-.08.75.75,0,0,1,0-.16l0,.13a2.54,2.54,0,0,1,0-.39v.14a1,1,0,0,1,.08-.3l-.06.12a1,1,0,0,1,.14-.22l-.08.1a.91.91,0,0,1,.17-.17l-.11.08a.89.89,0,0,1,.25-.14l-.12.05a1.31,1.31,0,0,1,.34-.09l-.14,0a1.82,1.82,0,0,1,.33,0l-.13,0c.2,0,.39.13.59.14a.41.41,0,0,0,.39-.52,1,1,0,0,0-.89-.59,1.59,1.59,0,0,0-1,.16,1.48,1.48,0,0,0-.65.66,1.63,1.63,0,0,0-.15.44,1.62,1.62,0,0,0,0,.58,1.56,1.56,0,0,0,.17.47,1.4,1.4,0,0,0,.41.43.44.44,0,0,0,.53-.06.49.49,0,0,0,.11-.2.42.42,0,0,0,0-.33Z" transform="translate(0 0)"/><path class="cls-2" d="M208.63,21.83a4.32,4.32,0,0,1-.28-1.27,1.47,1.47,0,0,1,.08-.55.69.69,0,0,1,.09-.2h0l.08-.09.08-.08c.06-.05-.06,0,0,0l.21-.11c.07,0-.07,0,0,0l.11,0,.11,0h.22c.08,0-.07,0,0,0l.1,0c.07,0-.06,0,0,0l.08,0,.05,0s0,0,0,0l.07.08a.32.32,0,0,0,.5-.38,1,1,0,0,0-.68-.55,1.46,1.46,0,0,0-1,.13,1.58,1.58,0,0,0-.68.6,2,2,0,0,0-.22,1.18A5.32,5.32,0,0,0,208,22a.33.33,0,0,0,.4.23.34.34,0,0,0,.24-.41Z" transform="translate(0 0)"/><path class="cls-2" d="M206.2,33.48a.29.29,0,0,0,0,.09l.18-.24a.47.47,0,0,0-.24.45,2.34,2.34,0,0,0,0,.26,1.24,1.24,0,0,0,.17.37A1.9,1.9,0,0,0,207,35a1.61,1.61,0,0,0,.82.25,1.18,1.18,0,0,0,.42-.05.8.8,0,0,0,.46-.32.37.37,0,0,0-.22-.53.6.6,0,0,0-.23,0h-.27c-.05,0-.12,0,0,0h-.06l-.29-.08-.06,0h0l-.13-.07-.12-.08c-.07-.05.09.08,0,0l-.06,0-.1-.11s-.07-.11,0,0a.1.1,0,0,0,0,0,2.1,2.1,0,0,1-.13-.26l0-.06c.06.11,0,.07,0,0a.51.51,0,0,0-.35-.35l.24.18s0-.09,0,0a.38.38,0,0,0-.35-.26.36.36,0,0,0-.35.26Z" transform="translate(0 0)"/><path class="cls-2" d="M206.46,41c-.16.92.9,1.53,1.7,1.51a2.27,2.27,0,0,0,1.29-.52,2.7,2.7,0,0,0,.57-.55,1.08,1.08,0,0,0,.28-.68.24.24,0,0,0-.22-.22c-.37,0-.69.4-1,.6a2.18,2.18,0,0,1-.92.47c.06,0,0,0,0,0h-.28l-.2,0-.12,0c.07,0,0,0-.05,0a.76.76,0,0,1-.28-.22l0,0-.06-.1s0,0,0,0L207.1,41a.33.33,0,0,0-.64,0Z" transform="translate(0 0)"/><path class="cls-2" d="M203.67,29.24l0,0s0,0,0,0l.08-.1.15-.17a3.52,3.52,0,0,1,.35-.31s0,0,0,0l.05,0,.1-.07.19-.13.09-.07h0l.1-.07.2-.13a.25.25,0,0,0-.19-.45,3.56,3.56,0,0,0-.52.18,2.83,2.83,0,0,0-.45.32,3.72,3.72,0,0,0-.71.77.31.31,0,1,0,.53.31Z" transform="translate(0 0)"/><path class="cls-2" d="M217.64,31.73a3.83,3.83,0,0,0,1.93.08,3.91,3.91,0,0,0,.89-.31c.28-.14.69-.38.65-.74a.2.2,0,0,0-.15-.19c-.28-.1-.56.12-.81.25a2.85,2.85,0,0,1-.75.29,3.33,3.33,0,0,1-1.6,0,.3.3,0,0,0-.16.58Z" transform="translate(0 0)"/><path class="cls-2" d="M198.45,118.88a10.27,10.27,0,0,0,.76,1.28c.26.39.5.78.79,1.14a3,3,0,0,0,.9.79,1.76,1.76,0,0,0,.64.19.77.77,0,0,0,.64-.17.34.34,0,0,0-.07-.52.71.71,0,0,0-.3-.08l-.2-.05a.41.41,0,0,1-.15-.07l-.21-.13,0,0-.11-.1-.18-.18a4.63,4.63,0,0,1-.32-.37,23.58,23.58,0,0,0-1.55-2.16.38.38,0,0,0-.5,0,.39.39,0,0,0-.1.49Z" transform="translate(0 0)"/><path class="cls-2" d="M208.83,107.15c1,.19,2,.36,3,.56.49.1,1,.21,1.47.29a3.13,3.13,0,0,0,1.48.13.25.25,0,0,0,.11-.42,2.83,2.83,0,0,0-1.35-.36c-.51-.09-1-.15-1.55-.22-1-.14-2-.3-3-.45-.31-.05-.45.41-.13.47Z" transform="translate(0 0)"/><path class="cls-2" d="M246.86,113c-.49,2.09-.91,4.19-1.23,6.32a52.21,52.21,0,0,0-.68,6.24c0,.44.62.42.67,0,.25-2.1.36-4.22.65-6.32s.61-4.09,1-6.12c.05-.28-.36-.39-.42-.12Z" transform="translate(0 0)"/><path class="cls-2" d="M254.78,109.18c-.05.33-.13.65-.17,1s-.08.64-.14,1-.1.65-.16,1-.2.72,0,1a.29.29,0,0,0,.33,0c.3-.14.33-.61.38-.9s.11-.67.15-1,.08-.66.1-1,0-.67,0-1-.45-.36-.5-.06Z" transform="translate(0 0)"/><path class="cls-2" d="M97.37,110.33a42.91,42.91,0,0,0,5-2.91c.78-.53,1.54-1.08,2.3-1.65a7.49,7.49,0,0,0,2.06-1.86.2.2,0,0,0-.22-.29,9.19,9.19,0,0,0-2.2,1.54c-.78.58-1.56,1.15-2.37,1.7-1.58,1.08-3.2,2.11-4.84,3.08a.22.22,0,0,0,.22.39Z" transform="translate(0 0)"/><path class="cls-2" d="M140,86.17a26.54,26.54,0,0,1,4.36-.28c.72,0,1.43,0,2.14.13a15.31,15.31,0,0,0,2.12.25c.24,0,.39-.38.13-.49a6.67,6.67,0,0,0-2.09-.39c-.76-.08-1.53-.12-2.3-.13a21.86,21.86,0,0,0-4.48.48c-.28.06-.15.48.12.43Z" transform="translate(0 0)"/><path class="cls-2" d="M103.85,59.13a204.66,204.66,0,0,0-11.18,26.6c-.88,2.61-1.81,5.21-2.58,7.86,0,.06.07.08.09,0C91.72,89.05,93.25,84.51,95,80s3.61-9,5.6-13.37q1.68-3.7,3.49-7.37c.09-.18-.19-.35-.28-.16Z" transform="translate(0 0)"/><path class="cls-2" d="M88.26,97.26a91.32,91.32,0,0,0-2.86,14.95c-.14,1.27-.26,2.55-.36,3.83a5.87,5.87,0,0,0,.18,2.7,2.73,2.73,0,0,0,2.25,1.44,15,15,0,0,0,3.6.38c.16,0,.21-.26,0-.29-1.17-.2-2.33-.4-3.48-.69a2.93,2.93,0,0,1-1.55-.69,2.2,2.2,0,0,1-.47-1.31,17.45,17.45,0,0,1,.12-3c.1-1.16.21-2.32.35-3.47a117.19,117.19,0,0,1,2.49-13.79.16.16,0,0,0-.31-.08Z" transform="translate(0 0)"/><path class="cls-2" d="M109.23,119.73a162.8,162.8,0,0,0,19.71-3.67,108,108,0,0,0,17.82-6.29,94.28,94.28,0,0,0,9.51-5,.3.3,0,0,0-.3-.51,117.73,117.73,0,0,1-17.07,8,137.58,137.58,0,0,1-18.71,5.2q-5.46,1.17-11,2c-.16,0-.12.3,0,.28Z" transform="translate(0 0)"/><path class="cls-2" d="M144.13,111.36a20.83,20.83,0,0,0,6.11,3.56,10.89,10.89,0,0,0,3.39.55,4.9,4.9,0,0,0,3.12-.79.27.27,0,0,0-.19-.45,9.11,9.11,0,0,0-1.54.3,8.58,8.58,0,0,1-1.6.14,10.54,10.54,0,0,1-3.29-.58,24,24,0,0,1-5.76-3.13c-.25-.17-.46.22-.24.4Z" transform="translate(0 0)"/><path class="cls-2" d="M141.66,112.15a18.72,18.72,0,0,0,7.42,5,20.1,20.1,0,0,0,4.33,1,13.83,13.83,0,0,0,4.54-.06.24.24,0,0,0-.06-.46,34,34,0,0,1-4.28,0,19.5,19.5,0,0,1-11.69-5.7.18.18,0,0,0-.26.25Z" transform="translate(0 0)"/><path class="cls-2" d="M44.92,73.32c7.22,8.7,12.52,18.92,20.75,26.8A43.4,43.4,0,0,0,69,103a16.64,16.64,0,0,0,3.67,2.3c.19.08.35-.22.2-.35-1-.84-2.07-1.56-3.1-2.35S67.7,100.89,66.7,100a57.23,57.23,0,0,1-5.44-5.68C57.59,90,54.42,85.25,51.08,80.66c-1.89-2.59-3.82-5.16-5.9-7.61-.16-.18-.42.08-.26.27Z" transform="translate(0 0)"/><path class="cls-2" d="M2.93,53.29a105.26,105.26,0,0,1,29.69-9.53c3-.46,6-.68,8.94-1,.41,0,.42-.65,0-.64a65.33,65.33,0,0,0-7.77.78c-2.63.37-5.24.86-7.82,1.44a96,96,0,0,0-15.16,4.79A80.32,80.32,0,0,0,2.75,53c-.2.11,0,.4.18.3Z" transform="translate(0 0)"/><path class="cls-2" d="M83.18,23.69c5.67.4,11.33,1.07,16.94,2a119.51,119.51,0,0,1,16.3,3.74c1.49.47,3,1,4.43,1.51s3,1.2,4.48,1.72c.29.1.5-.37.21-.5a59,59,0,0,0-7.88-2.8c-2.72-.84-5.47-1.61-8.23-2.29a134.62,134.62,0,0,0-16.67-2.94c-3.18-.36-6.38-.55-9.58-.71-.19,0-.18.28,0,.29Z" transform="translate(0 0)"/><path class="cls-2" d="M268.87,62.12a78.32,78.32,0,0,0,3.64,9.21,85.37,85.37,0,0,1,4,9.39c.11.34.64.19.53-.14a99.37,99.37,0,0,0-4-9.19c-1.38-3.11-2.6-6.28-3.93-9.4-.08-.19-.38-.06-.32.13Z" transform="translate(0 0)"/><path class="cls-2" d="M252.73,63.92a23.64,23.64,0,0,1,6.57-1.59,30.26,30.26,0,0,1,6.59.23c.16,0,.2-.25,0-.29a21.8,21.8,0,0,0-13.3,1.41c-.13.06,0,.29.1.24Z" transform="translate(0 0)"/><path class="cls-2" d="M255.56,67.34a31,31,0,0,1,6.51-2.12,11.93,11.93,0,0,1,3.27-.12,10.29,10.29,0,0,1,3.24,1,.2.2,0,0,0,.2-.35,9.56,9.56,0,0,0-6.31-1,27,27,0,0,0-7,2.35c-.13.06,0,.3.11.24Z" transform="translate(0 0)"/><path class="cls-2" d="M256.36,72.11a11.27,11.27,0,0,1,6.13-2.61,15.3,15.3,0,0,1,7.37.27c.36.13.5-.42.16-.55a10.32,10.32,0,0,0-4-.58,26,26,0,0,0-3.64.29A11.38,11.38,0,0,0,256,71.79c-.21.2.11.52.32.32Z" transform="translate(0 0)"/><path class="cls-2" d="M259.47,84.38c3-.76,6.11-1.53,9.2-2.07a41.62,41.62,0,0,1,4.72-.56c1.62-.1,3.16,0,4.12,1.48.16.25.62.1.51-.22a3.18,3.18,0,0,0-3-1.75,25.05,25.05,0,0,0-5.18.43,81.75,81.75,0,0,0-10.43,2.55.07.07,0,0,0,0,.14Z" transform="translate(0 0)"/><path class="cls-2" d="M259.82,86.27a55.88,55.88,0,0,1,9.86-2.5,41.43,41.43,0,0,1,5.1-.56A2.83,2.83,0,0,1,277,84a6.06,6.06,0,0,0,1.49,1.18c.36.17.69-.36.32-.55-1.25-.67-1.86-2-3.4-2.09a14.1,14.1,0,0,0-2.68.17q-1.26.14-2.52.33a50.15,50.15,0,0,0-10.48,2.84c-.21.09-.13.43.09.35Z" transform="translate(0 0)"/><path class="cls-2" d="M277.93,83.3a22.09,22.09,0,0,1,2.18-1.22,11.36,11.36,0,0,1,2.76-.61,54.11,54.11,0,0,1,5.55-.25c1.88,0,3.76.07,5.63.21.89.06,1.79.14,2.68.23s1.94.29,2.91.32a.26.26,0,0,0,.07-.5,19.49,19.49,0,0,0-2.86-.4c-1-.11-2-.2-2.92-.25q-3-.19-6-.13a49.63,49.63,0,0,0-5.59.34c-1.54.22-3.57.72-4.63,2a.18.18,0,0,0,.22.29Z" transform="translate(0 0)"/><path class="cls-2" d="M278.79,85.1a14.7,14.7,0,0,1,4.77-1.38,53,53,0,0,1,5.49-.6c1.78-.1,3.57-.13,5.35-.14s3.59.14,5.37,0a.24.24,0,0,0,0-.48c-1.85-.17-3.75-.11-5.61-.1s-3.74,0-5.6.18a54.06,54.06,0,0,0-5.38.64,12.65,12.65,0,0,0-4.57,1.52c-.2.13,0,.44.18.32Z" transform="translate(0 0)"/><path class="cls-2" d="M273.66,64.17c1.79-2.34,5.21-1.42,7.64-.93,1.35.27,2.71.55,4.07.79.71.13,1.42.25,2.13.39s1.2.34,1.8.46c.12,0,.23-.12.13-.21a3.44,3.44,0,0,0-1.6-.66c-.81-.2-1.62-.37-2.43-.55-1.63-.36-3.26-.68-4.9-1-2.49-.5-5.56-.91-7.24,1.48-.18.25.22.46.4.23Z" transform="translate(0 0)"/><path class="cls-2" d="M275.65,68c2.06-1.18,4.53-1,6.81-.77,1.24.15,2.47.32,3.71.49l1.93.25a8.4,8.4,0,0,0,2,.21.22.22,0,0,0,.06-.44,7.78,7.78,0,0,0-1.87-.31l-2.17-.28c-1.34-.17-2.68-.36-4-.5-2.29-.24-4.67-.22-6.68,1a.17.17,0,0,0,.18.3Z" transform="translate(0 0)"/><path class="cls-2" d="M277.19,71.38c2-1.14,4.45-.87,6.66-.76,1.22.07,2.43.12,3.65.17.59,0,1.19,0,1.78.09s1.25.18,1.87.2c.26,0,.27-.34.06-.43a12.46,12.46,0,0,0-3.71-.38l-4-.19c-2.2-.09-4.52-.2-6.47,1a.16.16,0,0,0,.17.28Z" transform="translate(0 0)"/></g></g></svg>