<svg xmlns="http://www.w3.org/2000/svg" viewBox="0 0 223.2 224.43"><defs><style>.cls-1{fill:#dcf5f9;}.cls-2{fill:#ffbd9c;}.cls-3{fill:#3a140f;}.cls-4{fill:#6d3113;}.cls-5{fill:#044443;}.cls-6{fill:#c7d1d0;}.cls-7{fill:#ba907d;}.cls-8{fill:#9e7869;}.cls-9{fill:#e88815;}.cls-10{fill:#f9d7af;}.cls-11{fill:#8aac91;}.cls-12{fill:#f8d6ca;fill-rule:evenodd;}</style></defs><g id="Layer_2" data-name="Layer 2"><g id="Design"><path class="cls-1" d="M59.8,198.27a37,37,0,0,0,1.41,6.39A34.31,34.31,0,0,0,69,218l.46.48c1,1,2,1.92,3,2.8h0c1,.83,2,1.59,3,2.32.21.15.43.31.65.45H181.61c1.18-.63,2.38-1.27,3.59-1.94,2.1-1.14,4.23-2.35,6.34-3.63,11.81-7.16,23.31-16.82,26.62-32.53,1.36-6.48,2.37-18.89-2.7-30.31-5.42-12.19-11-12-14.7-20-11.42-24.79,31.18-60.65,20.79-88.9A30.43,30.43,0,0,0,206.26,30.2a23.22,23.22,0,0,0-2.35-1,20.85,20.85,0,0,0-3.24-.83c-15.38-2.58-24,16.08-35.18,11.59-9.1-3.67-5.78-17.09-17.39-29-15-15.37-37.71-10.4-40.21-9.81a53.52,53.52,0,0,0-32.48,25C58.85,54.83,71,92.87,72.71,98.38c7.55,23.73,19.24,31.22,15.55,43.9-1.43,4.91-4.25,7.37-7.66,9.78-1.93,1.34-4,2.69-6.19,4.45a3.52,3.52,0,0,0-.37.32A33.23,33.23,0,0,0,65.85,167l-.39.72C64.85,168.86,57.76,183,59.8,198.27Z"/><path class="cls-2" d="M55.64,208.85c-1.19-.55,1.34-8.61,6.45-16,1-1.52,7.89-.88,13.39-.73l36.08-6.41a161.42,161.42,0,0,1,7.73-29.76c3.19-8.73,7.51-20.58,10.83-20.11,3.91.57,4.93,18.06,4.25,30.16a113,113,0,0,1-8.12,36l-49.48-1.58c-.26.09-.5.17-.72.27-4.38,1.93-4.55,5.22-7.61,4.38a37,37,0,0,1-6.59-2.78s-.4.41-1,1.15c-1.23,1.47-1.57,2.22-2.34,3.16C58.33,206.7,56.31,209.16,55.64,208.85Z"/><path class="cls-3" d="M55.62,208.89c-.55-.44-.27-1.32-.22-1.91,1.11-5.12,3.71-9.81,6.52-14.18a2.74,2.74,0,0,1,1.8-.92c3.8-.57,8.12-.11,11.71-.1q18-3.43,36.06-6.52l-.33.34a177.81,177.81,0,0,1,10.62-36.79c1.69-4.12,3.16-8.51,6-12,6.61-6.72,7,17,7.1,20.19a112.52,112.52,0,0,1-8.16,45.1.53.53,0,0,1-.5.33c-14.63-.51-35.08-1.15-49.48-1.86a11.31,11.31,0,0,0-3.5,2.06c-1.11.88-1.94,2.28-3.44,2.57s-2.8-.61-4.15-1.09a41.36,41.36,0,0,1-3.86-1.84l.11,0c-2.08,2-3.26,4.88-5.7,6.53a.73.73,0,0,1-.6.11Zm0-.09c.34.08.68-.22,1-.44,2.09-1.76,3.24-4.31,5.16-6.23,1.29.47,2.61,1.3,4,1.78s2.67,1.16,4,1c1.37-.31,2.17-1.71,3.22-2.57a10.16,10.16,0,0,1,3.79-2.26c14.34.24,35,.83,49.49,1.3l-.51.32a114.44,114.44,0,0,0,7.61-29.45,119.37,119.37,0,0,0,.84-15.24c-.08-3.5-.19-21.45-4.66-20.95-4.25,2.06-8.27,15.35-10.14,20A157,157,0,0,0,112,185.73a.43.43,0,0,1-.34.34c-6,1.07-12,2.19-18,3.22s-12.08,2.1-18.13,3.07c-3.9-.09-7.82-.65-11.69-.16a2.41,2.41,0,0,0-1.63.76,42.35,42.35,0,0,0-6.64,14c-.08.56-.28,1.39.15,1.8Z"/><path class="cls-4" d="M144.37,75c1.51-1.13,13.79-10.05,25.18-5.35,6.24,2.57,9.31,8,10.82,10.82,10.06,18.48-4.46,31.8,2.32,51.81,5.83,17.17,20.37,18.61,18.95,28.22-2,13.36-32.26,25.07-43.69,15.85-7.62-6.16-3.14-18.68-3.48-42.53A193.88,193.88,0,0,0,144.37,75Z"/><path class="cls-3" d="M144.32,75c11.51-8.78,27.05-10.75,35.27,3.31a32.77,32.77,0,0,1,4.25,10.42c1.51,6.66,0,13.52-1.23,20.08s-2.1,13.26-.67,19.82a34,34,0,0,0,6.58,13.94,50.49,50.49,0,0,0,6.24,6.34c3.21,2.89,7.55,6.06,7.16,10.91-1.52,12.35-21.17,20.11-32.17,20.26-11.44.17-17.1-5.32-16.79-16.8,0-6,.6-11.92.81-17.88A199.19,199.19,0,0,0,144.32,75Zm.1,0a188.21,188.21,0,0,1,10.38,70.41c-.2,6-.77,11.92-.8,17.83.05,4.29.34,9,3.62,12.1,5.55,5,14,4.21,20.86,2.64,7.1-1.84,14.1-5.11,19.2-10.48,2.87-3.1,5.2-7.89,2.9-11.93-1.45-2.59-3.87-4.47-6-6.45-4.52-3.9-8.61-8.46-11-14a36.25,36.25,0,0,1-2.56-8.6c-1.1-5.94-.28-12,.78-17.87a95.19,95.19,0,0,0,1.76-12.09,31.77,31.77,0,0,0-1.07-9.81A36.77,36.77,0,0,0,180,80.68c-7.67-15.45-22.91-14.51-35.58-5.62Z"/><path class="cls-5" d="M112.15,168a9.21,9.21,0,0,0,3.67,3.2,8.35,8.35,0,0,0,4.25.76c.07-1.23.19-2.58.35-4,.06-.56.13-1.14.21-1.73a82.19,82.19,0,0,1,2.06-10.25c.14-.53.29-1.07.45-1.61.45-1.56,1-3.17,1.57-4.81a76.38,76.38,0,0,1,3.3-7.79c.25-.51.5-1,.75-1.49a76.18,76.18,0,0,1,6-9.72l-.15,0a30.78,30.78,0,0,0-3.76.81c-1.92.56-4.24,2.93-6.7,6.79-.27.44-.55.89-.83,1.36a88.09,88.09,0,0,0-5.8,12.17c-.18.48-.37,1-.56,1.45-1.16,3-2.29,6.36-3.36,9.91h0l-.45,1.54C112.78,165.65,112.47,166.8,112.15,168Z"/><path class="cls-3" d="M112.2,168a8.7,8.7,0,0,0,7.84,3.63l-.3.31a68.81,68.81,0,0,1,4.49-21.82,93.23,93.23,0,0,1,10.2-19.8l.35.56a16.88,16.88,0,0,0-4.76,1.3c-4.11,2.85-6.36,7.73-8.69,12.05A180.36,180.36,0,0,0,112.2,168Zm-.1,0c2.89-11.38,6.4-23.34,13.64-33a14.13,14.13,0,0,1,3.85-3.57,17,17,0,0,1,5.08-1.25.36.36,0,0,1,.34.57,69.46,69.46,0,0,0-6,9.34c-4.35,8.17-6.64,17.29-8,26.39-.28,1.84-.39,3.69-.62,5.54a.32.32,0,0,1-.29.28,8.66,8.66,0,0,1-8-4.28Z"/><path class="cls-6" d="M113.11,164.53c2.29,1.15,4.72,2.27,7.31,3.35.06-.56.13-1.14.21-1.73-2.49-1-4.85-2.1-7.07-3.16Z"/><path class="cls-3" d="M113.16,164.51c2.89.69,4.84,1.92,7.32,3.23l-.22.12c.06-.58.06-1.16.08-1.75l.18.31a33.32,33.32,0,0,1-7.09-3.15l.43-.19c-.19.43-.44.88-.7,1.43Zm-.09,0a16.51,16.51,0,0,1,.2-1.64.29.29,0,0,1,.35-.22,32.46,32.46,0,0,1,7.19,3.22.25.25,0,0,1,.12.27c-.13.57-.27,1.14-.35,1.72a.16.16,0,0,1-.18.14c-2.41-1-5.34-1.89-7.33-3.49Z"/><path class="cls-6" d="M116.92,153.08c1.82.95,3.74,1.9,5.77,2.82.14-.53.29-1.07.45-1.61-2-.87-3.87-1.77-5.66-2.66C117.3,152.11,117.11,152.59,116.92,153.08Z"/><path class="cls-3" d="M117,153.07a18,18,0,0,1,5.78,2.69l-.21.1a11.18,11.18,0,0,0,.31-1.65l.17.35a22.62,22.62,0,0,1-5.69-2.63l.47-.17c-.23.38-.51.78-.83,1.31Zm-.1,0a13.91,13.91,0,0,1,.3-1.59.29.29,0,0,1,.36-.21,20.67,20.67,0,0,1,3,1.18,26.76,26.76,0,0,1,2.79,1.6.24.24,0,0,1,.09.29,13.08,13.08,0,0,0-.59,1.58.14.14,0,0,1-.2.09c-1.93-.73-4.28-1.57-5.76-2.94Z"/><path class="cls-5" d="M124.37,147.11c-.19.48-.37,1-.55,1.46l-.27.76a65.85,65.85,0,0,0-3.62,17.82l-.1,1.49c-.28,5-.23,10.34-.15,16.64,0,.87,0,1.76,0,2.7l0,1.53c.19,6,.65,13.13,1.64,21.19.07.52.13,1.05.2,1.58.23,1.78.49,3.61.78,5.47,8.66.63,17.82,1.05,27.44,1.16,8.63.1,16.89,0,24.75-.39a33.57,33.57,0,0,0,.77-13.53s-1.51-9.36-1.21-13.36c.05-.81.12-1.7.12-1.7s0-.11,0-.16c.42-5.76.74-11.1,1-16,0-.58.06-1.14.09-1.7.1-2.06.18-4,.26-5.92,0-4.36,0-7.6,0-10,0-.47,0-.9,0-1.31v-.4c0-5.81.13-5.33.07-5.94-1.17-10.23-6.67-14.18-6.67-14.18-1.44-1-3.46-1.58-7.5-2.7a61,61,0,0,0-7.13-1.5c-3.31,4.38-7.44,5.79-9.38,4.51-.24-.17-1.41-1-1.5-3.76a29.35,29.35,0,0,0-10-.39c-4,.55-7.38,4.94-8.59,7.11"/><path class="cls-3" d="M124.42,147.13c-4.41,11.17-4.64,23.24-4.38,35.08a260.27,260.27,0,0,0,2.71,35.49l-.34-.32c8.67.69,17.36,1.2,26.06,1.34s17.41,0,26.1-.43l-.23.18a34,34,0,0,0,.84-12.5,108.59,108.59,0,0,1-1.47-12.65c.31-8.52,1-16.92,1.32-25.38.2-3.66,0-9,.09-12.68,0-2.11,0-4.25.1-6.35-.5-5-2.3-10.33-6.06-13.84a7.62,7.62,0,0,0-2.59-1.45,73.1,73.1,0,0,0-12.21-3.11l.37-.15c-2.07,2.68-6.69,6.75-10.16,4.29a5.5,5.5,0,0,1-1.32-3.77l.23.27c-5-.91-11.18-1.7-15.12,2.31a19.14,19.14,0,0,0-3.34,4.15c0,.06-.13,0-.09-.05,1.8-3.07,4.33-6.05,7.87-7.12a23.46,23.46,0,0,1,5.41-.45,30.36,30.36,0,0,1,5.38.61.29.29,0,0,1,.23.26c.07,2.9,1.54,4.65,4.52,3.61a12.69,12.69,0,0,0,5.77-4.58.39.39,0,0,1,.37-.15,73.15,73.15,0,0,1,12.42,3c6.11,2.17,8.74,10.25,9.36,16.19,0,3.68-.12,9-.11,12.71,0,8.35-.77,17-1.27,25.39l-.22,3.16c-.5,5.27.45,10.47,1.13,15.72a35,35,0,0,1-1,12.69.23.23,0,0,1-.22.18c-8.71.34-17.42.38-26.12.31s-17.42-.38-26.11-.95a.37.37,0,0,1-.34-.31,219.88,219.88,0,0,1-2.77-35.59c-.15-11.7.25-24.56,5.17-35.09Z"/><path class="cls-6" d="M121.41,211.09c8.91.65,18.29,1.1,28.1,1.27,8.92.15,17.47.06,25.65-.21v2.32q-9.48,0-19.28-.24c-11.79-.28-23.22-.82-34.27-1.56Z"/><path class="cls-3" d="M121.38,211.05c13.05.42,27.36,1,40.33,1.19q6.72,0,13.44-.34a.25.25,0,0,1,.25.23s0,2.32,0,2.34a.29.29,0,0,1-.28.28c-13.34.12-26.88.05-40.19-.89-4.47-.29-8.92-.64-13.37-1.09,0,0-.08,0-.09-.09l-.13-1.63Zm.07.07.26,1.54-.09-.09c9.44.31,31,1.15,40.15,1.26q6.69.13,13.39.35l-.29.29,0-2.32.25.24c-17.68.33-36.18.91-53.71-1.27Z"/><path class="cls-6" d="M174.26,190.32c-6.81,0-14-.16-21.65-.38-11.84-.35-22.85-.91-32.88-1.58l0,1.54c11.84.88,25,1.58,39.2,1.91q7.88.19,15.17.2Z"/><path class="cls-3" d="M174.22,190.35c-4.54,0-16.08.12-20.45,0-4.56-.06-15.71-.92-20.42-1.19q-6.81-.4-13.64-.59l.27-.25.07,1.53-.26-.27c12.1.66,28.65,1.39,40.75,1.8,4.35.22,9.61.11,13.49.58l.19-1.65Zm.08-.07,0,.74c-.05.57,0,1.1-.14,1.09-13.6.31-27.23.08-40.81-.86-4.53-.28-9-.65-13.57-1.08a.27.27,0,0,1-.25-.26l0-1.54a.26.26,0,0,1,.24-.26c4.55.3,9.09.56,13.65.72,13,.42,28,.85,40.93,1.45Z"/><path class="cls-6" d="M119.79,168.68c12.79,1.28,27.24,2.39,43,3.08q6.47.28,12.54.44c0-.58,0-1.14,0-1.7q-9-.25-18.91-.74c-13.34-.66-25.62-1.57-36.63-2.57Z"/><path class="cls-3" d="M119.83,168.65c13.3.77,28.3,2,41.61,2.86,4.63.25,9.27.35,13.91.44l-.25.24v-1.7l.27.28q-6.94-.12-13.91-.35c-13.91-.4-27.81-1.48-41.63-3.14l.11-.09-.11,1.46Zm-.08.06v-.53c0-.53-.09-1.1.1-1.09l27.77,1.67c9.25.55,18.51.9,27.77,1.46a.28.28,0,0,1,.27.28l-.07,1.7a.23.23,0,0,1-.25.24q-7-.37-13.91-.56a363.47,363.47,0,0,1-41.68-3.17Z"/><path class="cls-6" d="M175.83,155.32q-6.35-.4-13.13-1c-14.16-1.15-27.57-2.64-39.33-4.21.15-.5.42-1,.59-1.5,9.85,1.23,20.88,2.45,32.5,3.48q10.11.88,19.3,1.48Z"/><path class="cls-3" d="M175.86,155.36a355.51,355.51,0,0,1-39.43-3.4c-4.36-.56-8.73-1.06-13.1-1.56a.24.24,0,0,1-.21-.27c.15-.57.42-1.07.58-1.57a.27.27,0,0,1,.3-.18L149.87,151c7.61.73,18.4,1.66,25.89,2.51a.1.1,0,0,1,.1.1v1.75Zm-.07-.07-.14-1.67.1.1c-8.38-.38-17.59-.89-26-1.69q-13-1.22-25.84-3.1l.29-.19c-.19.54-.46,1-.61,1.49l-.21-.33c17.16,2.61,35.09,3.38,52.39,5.39Z"/><path class="cls-2" d="M153.18,117.34c.49,2.76,1.58,10.28,2.07,13-2.05,1.62-10.2,7.89-12.76,5.8-.47-.38-.87-1.13-.77-2.7l-.36-13.15Z"/><path class="cls-3" d="M153.21,117.3c.92,3.76,1.73,9.16,2.45,13a.46.46,0,0,1-.15.4,36.5,36.5,0,0,1-3.55,2.62c-2.52,1.49-5.11,3.13-8.1,3.43-1.85.15-2.55-1.76-2.42-3.3-.31-4.25-.51-8.78-.61-13.13a.54.54,0,0,1,.4-.52c4.08-1,8.2-1.8,12-2.51Zm-.06.08c-4.1,1.28-7.86,2.45-11.66,3.46l.4-.53q.2,6.59.1,13.16c-.55,4.32,3.51,3,5.89,1.58,2.19-1.24,5-3.51,7.11-5l-.15.41c-.69-4.33-1.23-8.74-1.69-13.08Z"/><path class="cls-7" d="M.54,167.3A1.57,1.57,0,0,1,2,165.07h49.5a4,4,0,0,1,3.68,2.37l19.55,43h42.74a6.36,6.36,0,0,1,6.35,6.35H23"/><path class="cls-3" d="M.49,167.32A1.66,1.66,0,0,1,2.09,165l3.27,0c4-.07,15.38-.17,19.59-.2l26.13-.1a4.57,4.57,0,0,1,4.41,2.52l.68,1.5c6.13,13.56,12.51,28.24,18.67,41.74,9.55-.32,32.7-.16,42.69-.33a6.76,6.76,0,0,1,6.71,6.74.46.46,0,0,1-.46.46l-25.18.07c-18.18,0-44.86-.15-63-.31C35.58,217,23,217,23,216.8s12.63-.2,12.64-.22c27.26-.25,60.85-.39,88.16-.24l-.46.46a6,6,0,0,0-5.81-5.94c-10.16-.1-32.41-.2-42.82-.25-3.83-7.78-7.3-16-11.09-23.82l-5.5-11.85L55.39,169l-.68-1.47a3.68,3.68,0,0,0-3.63-2c-8.58,0-30.88-.11-39.19-.21l-6.53-.09-3.27-.05a1.53,1.53,0,0,0-1.51,2.11c0,.06-.07.1-.09,0Z"/><path class="cls-8" d="M12.89,194.48.54,167.3A1.58,1.58,0,0,1,2,165.07H45.6a4,4,0,0,1,3.67,2.37L71.71,216.8H23l-9.09-20"/><path class="cls-3" d="M12.85,194.5C8.69,185.83,4.29,176.43.26,167.67a2,2,0,0,1,1.47-3,10.44,10.44,0,0,1,1.1,0c11.29-.1,22.58,0,33.87.17l8.47.07A4.29,4.29,0,0,1,49,166.65c.67,1.06,1.27,2.71,1.84,3.84,7,15.4,14.3,30.7,21.33,46.11a.5.5,0,0,1-.45.7c-6.08,0-18.27,0-24.34,0-8.11,0-16.22-.13-24.33-.18a.32.32,0,0,1-.3-.19c-2.23-5-6.67-15.07-8.83-20.1a0,0,0,1,1,.09,0c2.37,4.92,7,14.9,9.33,19.87l-.29-.2c8.11-.05,16.22-.18,24.33-.18,6.05,0,18.28,0,24.34,0l-.46.71c-7-15.43-13.73-31-20.71-46.39a38.87,38.87,0,0,0-1.81-3.79,4,4,0,0,0-3.56-1.58l-8.47.07c-11.29.13-22.58.27-33.87.17-.33,0-.75,0-1,0A1.2,1.2,0,0,0,1,167.34c3.83,8.74,8.47,18.58,11.86,27.16Z"/><path class="cls-9" d="M145.76,74.51a7.61,7.61,0,0,1,3.47-3.39c4.47-2,9.41,2.06,10.2,2.71a13.34,13.34,0,0,1,4.11,5.8,14,14,0,0,1-.35,10C160.91,82.05,153,76.51,145.76,74.51Z"/><path class="cls-3" d="M145.71,74.53c2.77-6.54,10.46-4.69,14.46-.49a14.8,14.8,0,0,1,3.41,15.74.43.43,0,0,1-.8,0c-2.64-7.57-9.8-12.49-17.07-15.21Zm.09,0c7.77,1.65,15.5,7.11,17.8,15l-.8,0c2.36-4.94,1.39-11.48-3.07-14.93-4.29-3.56-10.34-5.65-13.93,0Z"/><path class="cls-2" d="M122.92,103.5a47.56,47.56,0,0,0,1.81,9.86c2,6.69,4.57,11.25,8.83,12.3,6.12,1.51,17.5-1.67,24.87-11.7,2.67-3.63,4.69-10.76,5.63-11.76,10.63-11.33-4.39-19.52-16.05-25.4A17.86,17.86,0,0,0,138.87,75a8.33,8.33,0,0,0-1.07.12,14.71,14.71,0,0,0-3.61,1.18,17.74,17.74,0,0,0-5.3,4c-3.22,3.39-5,8.39-5.77,13.85A45.87,45.87,0,0,0,122.92,103.5Z"/><path class="cls-3" d="M123,103.5c.56,6.13,2.14,12.41,5.42,17.64,3.36,5.85,10.92,4.91,16.35,2.84A29.94,29.94,0,0,0,159,112.65a63,63,0,0,0,3.86-8.47,12.69,12.69,0,0,1,2.59-3.91c3.2-4,2.51-8.92-1-12.43-4.34-4.44-10-7.23-15.53-10-5.3-3-12.17-3.35-17.09.59-7.69,5.66-9.4,16.08-8.79,25.12Zm-.1,0c-.68-9.16.47-19.94,8.3-25.92,5.08-4.18,12.63-3.94,18.14-.7,5.51,2.92,11.25,5.86,15.47,10.59,3.52,3.75,4.14,8.84.93,13-.94,1.27-2,2.28-2.49,3.86a64.81,64.81,0,0,1-3.79,8.59,30.21,30.21,0,0,1-14.38,11.85c-5.71,2.26-13.88,3.11-17.22-3.28-3.11-5.5-4.42-11.78-5-18Z"/><path class="cls-4" d="M139.4,75.1l-.3,10.38s-7.26,1.24-16.46,12.11c-2.73-7.94.82-18,6.32-21.33C133.2,73.71,137.93,74.73,139.4,75.1Z"/><path class="cls-3" d="M139.44,75.07c.11,3.41.15,7,.08,10.43a.41.41,0,0,1-.32.39,28.83,28.83,0,0,0-9,4.67,39,39,0,0,0-7.39,7.18.23.23,0,0,1-.39-.08c-4.07-11.19,3.33-27.2,17-22.59Zm-.08.06a15.46,15.46,0,0,0-8.32.6c-7.63,3.2-10.4,14.36-8.19,21.79l-.38-.08c.59-.63,1.18-1.27,1.76-1.91a50.45,50.45,0,0,1,9.89-8.44,17,17,0,0,1,4.91-2l-.35.4c.13-3.46.38-6.83.68-10.34Z"/><path class="cls-4" d="M133.68,74.76c4.52-5.48,17.23-1.63,18.33-1.3a23.36,23.36,0,0,1,12.37,9.67c6.74,10.34,4.59,24.43-1.94,32.47-2.51,3.1-7.48,7.52-10.43,6.19-1.91-.86-2.36-3.86-2.71-6.19-1.05-7,2.16-9.37.77-13.14-1.55-4.25-6-3.25-10.82-7.73C132.18,88.17,129.65,79.65,133.68,74.76Z"/><path class="cls-3" d="M133.64,74.72c4.11-4.4,11.34-3,16.64-2C159.07,74.36,166,82,167.93,90.57c2.23,9.92-.51,21.22-8.08,28.25-2.14,1.85-5,4.44-8.07,3.35-2.79-1.61-2.73-5.44-3.15-8.26a17.14,17.14,0,0,1,.27-4.46c.35-2.14,1.33-4.07.87-6.19a5.29,5.29,0,0,0-.79-1.8c-1.66-2.26-4.95-2.67-7.23-4.28C135.26,93,128.1,82,133.64,74.72Zm.08.07c-6.15,8.27,4.24,20.84,12.38,23.43,5.77,2.28,5.28,6.37,3.83,11.43a20.12,20.12,0,0,0,.29,8.42c1.54,7.88,9.49.43,12.17-2.84,11.33-13.87,5.8-37.39-12.25-42-5.25-1.24-12.21-2.8-16.42,1.55Z"/><path class="cls-2" d="M148.46,106.22a3.89,3.89,0,0,1,1.76-2.51,3.53,3.53,0,0,1,2.71-.39c2.06.81,2.66,5,1.54,8.12-.69,1.9-2.51,4.68-4.51,4.42a2.91,2.91,0,0,1-2-1.32"/><path class="cls-3" d="M148.41,106.21a3.6,3.6,0,0,1,4.7-3.26c1.95,1.21,2,3.71,2.18,5.7.12,2.95-1.44,6.93-4.69,7.59a2.76,2.76,0,0,1-2.63-1.67c0-.06,0-.1.08-.06a2.65,2.65,0,0,0,2.43.95c1.68-.56,2.75-2.51,3.5-4.06,1-2.32,1.6-6.45-1.19-7.68a3.84,3.84,0,0,0-4.28,2.51s-.11,0-.1,0Z"/><path class="cls-2" d="M180.89,172.51c4.59,22.57,3.21,37.46,1,40.33-4.25,5.61-44-9.3-62.56-14.9-.3,0-.6.05-.87.09-5.37.9-6.49,4.48-9.63,2.69a42.07,42.07,0,0,1-6.5-4.93s-2.33,2.59-5,5.05-6.18,3.69-3.71.55,9.85-14.33,11.65-15.9c1.58-1.39,9,1.26,15,3l45.57,7.66s-7.94-26.11-7.94-39.48"/><path class="cls-3" d="M180.94,172.5c2.29,10.78,3.93,21.89,3.16,33a24.5,24.5,0,0,1-1.29,6.6,3.42,3.42,0,0,1-2.74,2.22c-3.36.59-6.74-.1-10-.67a230.82,230.82,0,0,1-25.53-7.24c-8.4-2.76-16.74-5.69-25.18-8.28a12.23,12.23,0,0,0-4.51,1.37c-2.42,1.33-4.1,3-6.81,1A42.61,42.61,0,0,1,102.2,196h.36c-1.55,1.57-8,9.07-10,7.32-.3-.69.25-1.22.55-1.75.94-1.2,1.84-2.54,2.72-3.77,2.93-4,5.83-9,9.16-12.63a2.88,2.88,0,0,1,1.77-.49,32.94,32.94,0,0,1,7.7,1.59l6,1.75c12.58,2.11,32.86,5.47,45.5,7.73l-.47.53c-3.52-13-7.27-26.1-7.59-39.6,0-.06.1-.07.1,0,.73,13.42,4.59,26.5,8.28,39.36a.41.41,0,0,1-.46.53l-11.41-1.83c-7.21-1.19-26.72-4.48-34.17-5.74-4-1.11-7.94-2.57-12-3.27a4.41,4.41,0,0,0-2.66.14c-3.19,3.51-6.3,8.5-9.17,12.35-.6.84-1.2,1.68-1.82,2.51-.32.5-1.46,1.69-1.48,2.26a5.45,5.45,0,0,0,2.35-1,48.87,48.87,0,0,0,6.72-6.31.24.24,0,0,1,.35,0,44.07,44.07,0,0,0,5.7,4.48,4.69,4.69,0,0,0,2.11.91c1.59.07,2.9-1.23,4.31-1.86a12.08,12.08,0,0,1,4.71-1.36c8.47,2.57,16.85,5.44,25.32,8,10.52,3.06,21.06,6.78,32,7.81,1.55,0,3.25.12,4.56-.71,1.68-1.8,1.71-5.1,2.07-7.52,1-10.92-.78-22.4-2.39-32.89Z"/><path class="cls-5" d="M157.24,146.09c-.11.51-.29,1.95-.39,2.47a76.46,76.46,0,0,0-1.2,10c-.08,1.47-.11,3-.09,4.64,0,.48,0,1,0,1.45.09,3.56.37,7.19.67,10.27.07.8.15,1.56.23,2.27.36,3.34.69,5.6.69,5.6a48.93,48.93,0,0,0,18.52.28c10.17-1.81,9.19-2.51,9.19-2.51l-.85-4.41c-.19-.94-.39-2-.62-3.17-.56-2.89-1.23-6.31-1.91-9.76-.11-.55-.22-1.1-.32-1.65-1.11-5.66-2.21-11.15-2.84-14.15,0-.12,0-.23-.08-.35-.12-.56-.26-1.11-.42-1.64-2-6.81-6.92-11.72-12.42-12.4"/><path class="cls-3" d="M157.29,146.1c-2.21,12.14-1.21,24.47.18,36.65l-.22-.25a40.48,40.48,0,0,0,6.95,1,54,54,0,0,0,19.13-2.49,4.87,4.87,0,0,0,1.25-.56s0,0,0,0a.31.31,0,0,0,.12.33l-.15-.23q-2.78-13.31-5.38-26.64c-.8-3.82-1.48-9.55-3.54-12.92a15.15,15.15,0,0,0-10.23-8,11.82,11.82,0,0,1,6.34,2.52c5.82,4.23,7.2,11.61,8.42,18.25,1.84,8.87,3.51,17.78,5.12,26.7l-.15-.23a.49.49,0,0,1,0,.75,10.08,10.08,0,0,1-3.3,1.12,83.42,83.42,0,0,1-10.52,1.67,54.72,54.72,0,0,1-14.17-.72.29.29,0,0,1-.22-.25c-1.92-12-2.75-25.14.4-36.73Z"/><path class="cls-6" d="M156.21,175.81c.09.46.19.92.28,1.38a78.74,78.74,0,0,0,16.83.53A77.94,77.94,0,0,0,184,176.15l-.38-1.5a92.51,92.51,0,0,1-27.45,1.16Z"/><path class="cls-3" d="M156.25,175.84l.38,1.32-.12-.11c1.72.13,5.17.33,6.89.39,6.89.13,13.88.3,20.58-1.55l-.21.33-.43-1.49.38.24a69.28,69.28,0,0,1-27.47.87Zm-.07-.07a136.69,136.69,0,0,0,27.42-1.45.31.31,0,0,1,.38.25l.33,1.52a.26.26,0,0,1-.21.33c-8,1.34-16.11,2.69-24.2,1.48-1.16-.15-2.31-.33-3.45-.57-.27-.21-.17-1.22-.27-1.56Z"/><path class="cls-6" d="M181.19,161.57c-3,.47-6.17.87-9.57,1.16a139.31,139.31,0,0,1-16.06.47c0,.48,0,1,0,1.45a119.86,119.86,0,0,0,18.64-.46c2.55-.26,5-.59,7.28-1Z"/><path class="cls-3" d="M181.16,161.61a99.57,99.57,0,0,1-12.72,1.8c-3.74.13-9.1,0-12.89,0l.22-.21.08,1.45-.25-.26q3.26,0,6.49,0c6.49-.09,12.93-.72,19.4-1.3l-.14.19-.19-1.64Zm.06-.08.45,1.66a.15.15,0,0,1-.11.18c-2.14.41-4.29.8-6.45,1.14a83.11,83.11,0,0,1-19.56.41.27.27,0,0,1-.23-.26l0-1.46a.22.22,0,0,1,.22-.22A59.78,59.78,0,0,0,162,163c6.34-.38,13-1.18,19.24-1.51Z"/><path class="cls-9" d="M49.9,217.56h57.25a2.88,2.88,0,0,0,2.67-3.05v-3.57a2.88,2.88,0,0,0-2.67-3.05H49.9a6.16,6.16,0,0,1,1.84,2.32,6.1,6.1,0,0,1,.53,2.32,6.26,6.26,0,0,1-.44,2.52A5.61,5.61,0,0,1,49.9,217.56Z"/><path class="cls-3" d="M50,217.54c18.88-.31,36.89-.42,55.55-.13.65,0,1.34,0,2,0a2.74,2.74,0,0,0,2.18-2.67c-.15-1.84.46-4.06-.69-5.64-.84-1.13-2.19-.86-3.45-.86l-7.94.11-15.88.11c-9.34,0-22.56,0-31.77-.23l.17-.54c3.16,2.32,3.21,7.76-.12,9.89Zm-.1,0a6,6,0,0,0-.12-9.43.3.3,0,0,1,.17-.54c9.16-.2,22.47-.22,31.77-.23l15.88.11,7.94.1c.68,0,1.29,0,2,.06a3.17,3.17,0,0,1,2.53,3.09c0,1.18-.07,2.81-.05,4a3.07,3.07,0,0,1-2.49,3c-.71.05-1.34,0-2,0-18.33.28-37.55.18-55.64-.14Z"/><path class="cls-10" d="M51.83,215.05H81.64a1.19,1.19,0,0,0,1.1-1.27v-2.31a1.19,1.19,0,0,0-1.1-1.26H51.74a6.1,6.1,0,0,1,.53,2.32A6.26,6.26,0,0,1,51.83,215.05Z"/><path class="cls-3" d="M51.87,215c8.57-.3,16.31-.52,24.64-.17.72,0,4.46.05,5.11,0,1.16-.06.92-1.49.91-2.3s.13-2.17-1-2.08l-1,0c-9.35.25-19.42.3-28.75-.06l.24-.38a6.06,6.06,0,0,1-.11,4.92Zm-.08,0a6.32,6.32,0,0,0-.3-4.74.27.27,0,0,1,.25-.39c9.32-.35,19.4-.3,28.75-.05l1,0A1.48,1.48,0,0,1,83,211.55l0,1,0,1a1.41,1.41,0,0,1-1.3,1.6c-.62,0-4.45,0-5.17,0-8.09.34-16.79.15-24.66-.17Z"/><path class="cls-5" d="M62,207.89h43.52a2.18,2.18,0,0,0,2-2.31v-2.72a2.19,2.19,0,0,0-2-2.31H62a4.56,4.56,0,0,1,1.8,3.52,4.69,4.69,0,0,1-.33,1.91A4.19,4.19,0,0,1,62,207.89Z"/><path class="cls-3" d="M62,207.88c14.45-.31,28-.43,42.21-.14,3.79.34,3.06-2.26,3-5a2,2,0,0,0-1.59-1.88c-.42,0-1,0-1.47,0l-6,.1-12.08.11c-7.09,0-17.14,0-24.14-.23l.17-.53c2.42,1.78,2.45,6-.12,7.57Zm-.09,0a4.56,4.56,0,0,0-.13-7.12.3.3,0,0,1,.17-.54c7-.19,17.08-.22,24.14-.22l12.08.1,6,.11c.52,0,1,0,1.55,0a2.46,2.46,0,0,1,2,2.41c0,.9-.06,2.13,0,3-.2,2-1.68,2.48-3.47,2.3-13.9.29-28.65.19-42.29-.13Z"/><path class="cls-10" d="M63.43,206H86.08a.91.91,0,0,0,.84-.95v-1.76a.91.91,0,0,0-.84-1H63.36a4.61,4.61,0,0,1,.4,1.76A4.69,4.69,0,0,1,63.43,206Z"/><path class="cls-3" d="M63.47,206c7.63-.47,14.39-.35,21.82-.13h.78a.78.78,0,0,0,.67-.93l0-.78c0-.35.08-1.08-.23-1.34s-.93-.12-1.27-.14c-7.11.26-14.76.31-21.85,0l.24-.38a4.53,4.53,0,0,1-.13,3.76Zm-.08,0a4.89,4.89,0,0,0-.28-3.59.27.27,0,0,1,.25-.38c7.08-.35,14.75-.3,21.85,0,.52,0,1.33-.08,1.68.45s.23,1.14.24,1.67l0,.78a1.12,1.12,0,0,1-1,1.26h-.79c-7.14.2-14.93.35-21.89-.13Z"/><path class="cls-11" d="M53.46,201.32H97A2.19,2.19,0,0,0,99,199v-2.72A2.18,2.18,0,0,0,97,194H53.46a4.51,4.51,0,0,1,1.39,1.76,4.39,4.39,0,0,1,.41,1.76,4.87,4.87,0,0,1-.33,1.91A4.31,4.31,0,0,1,53.46,201.32Z"/><path class="cls-3" d="M53.51,201.31c14.44-.31,28-.43,42.2-.14,3.79.34,3.06-2.26,3.06-5a2,2,0,0,0-1.59-1.88c-.43,0-1,0-1.47,0l-6,.1-12.07.11c-7.1,0-17.14,0-24.14-.23l.17-.54c2.41,1.78,2.45,6-.12,7.58Zm-.1,0a4.56,4.56,0,0,0-.12-7.12.3.3,0,0,1,.17-.54c7-.2,17.07-.22,24.14-.23l12.07.11,6,.11c.52,0,1,0,1.54.05a2.47,2.47,0,0,1,2,2.41c0,.9-.06,2.13,0,3-.19,2-1.67,2.48-3.47,2.3-13.89.28-28.64.19-42.29-.13Z"/><path class="cls-10" d="M54.93,199.41H77.58a.91.91,0,0,0,.84-1V196.7a.91.91,0,0,0-.84-1H54.85a4.39,4.39,0,0,1,.41,1.76A4.87,4.87,0,0,1,54.93,199.41Z"/><path class="cls-3" d="M55,199.38c7.62-.46,14.39-.34,21.82-.12h.77a.77.77,0,0,0,.67-.93l0-.78c-.06-.36.07-1.08-.23-1.34s-.94-.12-1.27-.14c-7.11.25-14.77.3-21.86-.05l.25-.38a4.54,4.54,0,0,1-.13,3.75Zm-.09.06a4.94,4.94,0,0,0-.27-3.59.26.26,0,0,1,.24-.38c7.09-.36,14.75-.31,21.86-.05.52,0,1.32-.08,1.67.44s.24,1.15.24,1.68l0,.78a1.13,1.13,0,0,1-1,1.26h-.78c-7.15.2-14.94.35-21.9-.13Z"/><path class="cls-12" d="M17.57,221.26h0a2.79,2.79,0,0,0,2.78,2.79H204.17a2.78,2.78,0,0,0,2.78-2.79h0a2.78,2.78,0,0,0-2.78-2.78H20.35A2.79,2.79,0,0,0,17.57,221.26Z"/><path class="cls-3" d="M17.62,221.26a2.76,2.76,0,0,0,1.45,2.41c.88.49,1.94.26,2.93.31h6c41.72-.38,90.42-.39,132.39-.11,11.62.08,24.43,0,36.11-.05l6,0H204a2.67,2.67,0,0,0,1.32-.3,2.53,2.53,0,0,0,0-4.43c-.66-.42-2.05-.26-2.82-.28L160.4,219c-42,.16-90.6-.08-132.39-.39H22c-1,0-2.05-.18-2.93.31a2.76,2.76,0,0,0-1.45,2.4Zm-.1,0a2.88,2.88,0,0,1,3-2.85H22c43.92-.26,94.23-.58,138.4-.4,7.76,0,28.55.1,36.11.14l6,0H204a3.07,3.07,0,1,1,0,6.13h-1.51l-6,0c-11.73,0-24.46-.12-36.11,0-44.24.32-94.4.2-138.4-.13H20.49a2.87,2.87,0,0,1-3-2.85Z"/><path class="cls-3" d="M126.41,85a16.45,16.45,0,0,0-2,3.57,10.12,10.12,0,0,0-1,4,.12.12,0,0,0,.24,0c.21-.64.31-1.31.48-2a17.18,17.18,0,0,1,.61-1.88,16.24,16.24,0,0,1,2-3.59c.11-.15-.14-.29-.24-.14Z"/><path class="cls-3" d="M137.74,84.39a22.5,22.5,0,0,0,3.87,7.26A15.19,15.19,0,0,0,148,96.54c.12,0,.19-.14.08-.2a21.13,21.13,0,0,1-9.94-12.07c-.09-.27-.53-.16-.44.12Z"/><path class="cls-3" d="M163.33,95.52a29.69,29.69,0,0,1,.11,7,33.55,33.55,0,0,1-.6,3.61c-.25,1.17-.69,2.3-.92,3.47,0,.18.21.31.3.13a14.56,14.56,0,0,0,1-3.37,29.36,29.36,0,0,0,.53-3.61,32.5,32.5,0,0,0-.22-7.31c0-.12-.23-.09-.21,0Z"/><path class="cls-3" d="M172.3,80.89a21.82,21.82,0,0,1,4.62,7,21.49,21.49,0,0,1,1.17,3.86,19,19,0,0,1,.31,2.12,8.54,8.54,0,0,0,.22,2,.15.15,0,0,0,.29,0,5.1,5.1,0,0,0,0-2.06,21.42,21.42,0,0,0-1.59-6.13,21.17,21.17,0,0,0-4.83-7,.13.13,0,0,0-.19.19Z"/><path class="cls-3" d="M178.65,104.52c-1.27,10.22-8.5,20-5.28,30.59a19.4,19.4,0,0,0,1.62,3.81,12.68,12.68,0,0,0,2.52,3.41c.14.13.4,0,.28-.21-.74-1-1.57-2-2.23-3.05a18.41,18.41,0,0,1-1.67-3.57,19.34,19.34,0,0,1-.9-7.59c.37-5.2,2.4-10.09,4-15a44.84,44.84,0,0,0,2-8.39c0-.17-.24-.17-.26,0Z"/><path class="cls-3" d="M196.46,161.44a34,34,0,0,0-4.36-5.21,31.77,31.77,0,0,0-2.54-2.24c-.43-.35-.88-.68-1.33-1a4.34,4.34,0,0,0-1.42-.83c-.1,0-.22.09-.14.19a4.29,4.29,0,0,0,1.14.88c.46.32.92.65,1.37,1a31.83,31.83,0,0,1,2.6,2.2,33.11,33.11,0,0,1,4.46,5.14c.09.13.31,0,.22-.13Z"/><path class="cls-3" d="M191.3,169a6.4,6.4,0,0,0-1.48-4.75,4,4,0,0,0-.45-.47,1.09,1.09,0,0,0-.51-.35.23.23,0,0,0-.28.15c-.06.19.12.34.25.45a6,6,0,0,1,1.56,2.05,5.86,5.86,0,0,1,.51,2.92c0,.26.38.25.4,0Z"/><path class="cls-3" d="M179.64,211.37l-1.11.22-.55.12-.27.06a2.36,2.36,0,0,0-.28.12c-.18.07-.09.37.1.35a4.81,4.81,0,0,0,1.11-.25l1.08-.33c.19,0,.11-.32-.08-.29Z"/><path class="cls-3" d="M169.35,196.32l-2.47-.23-1.23-.1a4.24,4.24,0,0,0-1.18,0c-.2,0-.16.3,0,.36a4.65,4.65,0,0,0,1.18.14l1.23.07,2.47.11c.21,0,.21-.31,0-.33Z"/><path class="cls-3" d="M8.5,167.75A2.35,2.35,0,0,0,6,169.59c-.25,1.39.86,2.9,1.45,4.07.81,1.59,1.64,3.16,2.44,4.75.4.81.8,1.63,1.19,2.46a11.55,11.55,0,0,0,1.15,2.24c.09.11.25,0,.22-.13a9.32,9.32,0,0,0-.84-1.85l-.94-1.89c-.64-1.35-1.25-2.71-1.87-4.07s-1.32-2.63-1.86-4a2.27,2.27,0,0,1-.08-1.89,1.8,1.8,0,0,1,1.64-1c.34,0,.33-.5,0-.53Z"/><path class="cls-3" d="M99.51,212.21l-4.67,0-2.34,0a9,9,0,0,0-2.2.07.18.18,0,0,0,0,.35,9.52,9.52,0,0,0,2.2,0l2.34-.07,4.67-.12a.15.15,0,1,0,0-.3Z"/><path class="cls-3" d="M157.83,131.12c-1.54,1.5-3.09,3-4.7,4.42a33.19,33.19,0,0,1-5,3.9,8.47,8.47,0,0,1-5.42,1.34,5.11,5.11,0,0,1-4.23-3.12,12.14,12.14,0,0,1-.73-3.52,17,17,0,0,1,0-1.89,9.26,9.26,0,0,0,.06-1.82c0-.19-.31-.2-.4-.05a7,7,0,0,0-.37,3.4,14,14,0,0,0,.58,3.47,5.58,5.58,0,0,0,3.61,3.85c4.14,1.39,8-1.42,10.94-3.95a54.15,54.15,0,0,0,6-5.78.18.18,0,1,0-.25-.25Z"/></g></g></svg>