<svg width="521" height="309" viewBox="0 0 521 309" fill="none" xmlns="http://www.w3.org/2000/svg">
<g clip-path="url(#clip0_104_2)">
<path d="M483.558 206.526L394.64 226.843L408.334 286.778L497.252 266.462L483.558 206.526Z" fill="#F5F5F5"/>
<path d="M484 207.15C483.816 207.504 483.599 207.838 483.35 208.15L481.35 210.89L473.94 220.89L449.19 253.69L448.98 253.96L448.68 253.82L447.94 253.46L410.47 235.27L399.16 229.67L396.1 228.11C395.747 227.946 395.412 227.744 395.1 227.51C395.481 227.63 395.853 227.781 396.21 227.96L399.34 229.38L410.76 234.74L448.34 252.74L449.08 253.1L448.57 253.22L473.52 220.57L481.14 210.75L483.24 208.11C483.466 207.769 483.72 207.448 484 207.15V207.15Z" fill="#E0E0E0"/>
<path d="M408.79 287.41C408.59 287.31 413.4 277.56 419.53 265.65C425.66 253.74 430.81 244.16 431.01 244.27C431.21 244.38 426.41 254.11 420.27 266.03C414.13 277.95 409 287.52 408.79 287.41Z" fill="#E0E0E0"/>
<path d="M460.4 236.76C460.54 236.58 469.01 243.23 479.32 251.6C489.63 259.97 497.86 266.91 497.72 267.09C497.58 267.27 489.1 260.62 478.79 252.25C468.48 243.88 460.25 236.94 460.4 236.76Z" fill="#E0E0E0"/>
<path d="M87.4655 43.5592L79.311 78.8802L131.713 90.978L139.867 55.6571L87.4655 43.5592Z" fill="#F5F5F5"/>
<path d="M139.94 56.13C139.754 56.2718 139.553 56.3925 139.34 56.49L137.59 57.43L131.09 60.82L109.52 71.82L109.34 71.91L109.22 71.75L108.92 71.37L93.72 52.11L89.16 46.23L87.94 44.61C87.7884 44.4299 87.6545 44.2357 87.54 44.03C87.7147 44.1892 87.8753 44.3632 88.02 44.55C88.34 44.95 88.77 45.46 89.31 46.11L94 51.9L109.3 71.1L109.6 71.48L109.3 71.41L130.94 60.51L137.5 57.26L139.3 56.4C139.506 56.2929 139.72 56.2026 139.94 56.13V56.13Z" fill="#E0E0E0"/>
<path d="M79.3798 79.35C79.2998 79.24 84.3798 75.35 90.6798 70.57C96.9798 65.79 102.19 62.07 102.27 62.18C102.35 62.29 97.2698 66.18 90.9698 70.96C84.6698 75.74 79.4598 79.46 79.3798 79.35Z" fill="#E0E0E0"/>
<path d="M119.79 65.76C119.91 65.7 122.7 71.41 126.01 78.5C129.32 85.59 131.91 91.39 131.78 91.5C131.65 91.61 128.88 85.85 125.57 78.76C122.26 71.67 119.67 65.82 119.79 65.76Z" fill="#E0E0E0"/>
<path d="M419.631 52.4202L381.345 68.8691L392.433 94.678L430.719 78.229L419.631 52.4202Z" fill="#F5F5F5"/>
<path d="M419.88 52.64C419.826 52.8132 419.756 52.9807 419.67 53.14C419.51 53.49 419.28 53.95 419.01 54.53L416.5 59.62C414.33 63.94 411.36 69.85 408.08 76.4L408.01 76.54H407.86L407.49 76.44L389.16 71.35L383.61 69.76L382.11 69.31C381.93 69.2719 381.755 69.2114 381.59 69.13C381.772 69.1537 381.953 69.1905 382.13 69.24L383.65 69.62L389.23 71.09L407.59 76.09L407.96 76.19L407.74 76.29C411.06 69.76 414.07 63.87 416.26 59.56L418.88 54.56L419.61 53.2C419.68 53.0045 419.771 52.8168 419.88 52.64V52.64Z" fill="#E0E0E0"/>
<path d="M392.68 94.9C392.58 94.9 393.94 90.09 395.68 84.24C397.42 78.39 398.98 73.65 399.08 73.68C399.18 73.71 397.82 78.49 396.08 84.35C394.34 90.21 392.78 94.93 392.68 94.9Z" fill="#E0E0E0"/>
<path d="M411.71 67.89C411.76 67.8 416.11 70.09 421.43 73C426.75 75.91 431 78.35 431 78.45C431 78.55 426.6 76.25 421.28 73.33C415.96 70.41 411.66 68 411.71 67.89Z" fill="#E0E0E0"/>
<path d="M262.56 208.52C262.7 208.52 262.76 209.1 262.7 209.79C262.64 210.48 262.46 211.02 262.31 211.01C262.16 211 262.11 210.43 262.18 209.74C262.25 209.05 262.42 208.5 262.56 208.52Z" fill="#263238"/>
<path d="M263.89 198.78C263.993 200.434 263.74 202.091 263.15 203.64C263.019 202.818 263.056 201.977 263.26 201.17C263.302 200.338 263.516 199.524 263.89 198.78V198.78Z" fill="#263238"/>
<path d="M265.86 189.15C265.934 189.977 265.839 190.811 265.58 191.6C265.474 192.428 265.206 193.227 264.79 193.95C264.711 193.119 264.807 192.282 265.07 191.49C265.162 190.662 265.432 189.864 265.86 189.15V189.15Z" fill="#263238"/>
<path d="M268.52 179.68C268.537 180.513 268.381 181.341 268.06 182.11C267.881 182.929 267.541 183.703 267.06 184.39C267.038 183.556 267.195 182.728 267.52 181.96C267.69 181.138 268.031 180.362 268.52 179.68Z" fill="#263238"/>
<path d="M272 170.47C271.732 172.107 271.111 173.667 270.18 175.04C270.242 174.21 270.47 173.401 270.85 172.66C271.081 171.86 271.472 171.114 272 170.47V170.47Z" fill="#263238"/>
<path d="M276.21 161.62C276.077 162.443 275.774 163.23 275.32 163.93C275.027 164.704 274.578 165.408 274 166C274.133 165.177 274.436 164.39 274.89 163.69C275.186 162.918 275.635 162.214 276.21 161.62V161.62Z" fill="#263238"/>
<path d="M281.35 153.24C281.123 154.042 280.731 154.788 280.2 155.43C279.48 156.57 278.79 157.43 278.67 157.37C278.873 156.562 279.245 155.805 279.76 155.15C280.52 154 281.23 153.16 281.35 153.24Z" fill="#263238"/>
<path d="M287.41 145.5C287.52 145.6 286.9 146.5 286.04 147.56C285.18 148.62 284.38 149.37 284.27 149.29C284.16 149.21 284.77 148.29 285.64 147.23C286.51 146.17 287.3 145.41 287.41 145.5Z" fill="#263238"/>
<path d="M294.34 138.54C294.43 138.64 293.71 139.48 292.73 140.41C291.75 141.34 290.87 142.02 290.73 141.92C290.59 141.82 291.34 140.97 292.33 140.04C293.32 139.11 294.24 138.43 294.34 138.54Z" fill="#263238"/>
<path d="M302.07 132.48C302.15 132.6 301.34 133.34 300.24 134.14C299.623 134.695 298.898 135.117 298.11 135.38C298.02 135.27 298.84 134.53 299.94 133.72C301.04 132.91 302 132.36 302.07 132.48Z" fill="#263238"/>
<path d="M310.55 127.5C309.986 128.098 309.305 128.574 308.55 128.9C307.86 129.369 307.081 129.689 306.26 129.84C306.19 129.72 307.1 129.09 308.26 128.44C308.949 127.969 309.729 127.648 310.55 127.5V127.5Z" fill="#263238"/>
<path d="M319.65 123.8C318.992 124.309 318.236 124.676 317.43 124.88C316.678 125.238 315.862 125.442 315.03 125.48C314.97 125.34 315.97 124.86 317.25 124.39C318 124.029 318.818 123.828 319.65 123.8V123.8Z" fill="#263238"/>
<path d="M329.22 121.57C327.675 122.153 326.041 122.465 324.39 122.49C325.894 121.774 327.558 121.457 329.22 121.57V121.57Z" fill="#263238"/>
<path d="M339 121C338.211 121.26 337.378 121.359 336.55 121.29C335.723 121.376 334.887 121.298 334.09 121.06C334.876 120.786 335.712 120.687 336.54 120.77C337.367 120.673 338.205 120.752 339 121V121Z" fill="#263238"/>
<path d="M348.78 122.18C347.126 122.27 345.472 122.004 343.93 121.4C344.75 121.264 345.589 121.308 346.39 121.53C347.223 121.578 348.037 121.799 348.78 122.18V122.18Z" fill="#263238"/>
<path d="M358.19 125C357.357 124.976 356.538 124.785 355.78 124.44C354.972 124.248 354.212 123.891 353.55 123.39C354.38 123.405 355.198 123.596 355.95 123.95C356.761 124.142 357.523 124.5 358.19 125V125Z" fill="#263238"/>
<path d="M366.94 129.45C365.36 128.949 363.904 128.117 362.67 127.01C363.486 127.188 364.258 127.528 364.94 128.01C366.12 128.68 367 129.33 366.94 129.45Z" fill="#263238"/>
<path d="M374.64 135.53C374.54 135.64 373.64 135 372.64 134.11C371.64 133.22 370.88 132.41 370.97 132.29C371.06 132.17 371.97 132.82 372.97 133.72C373.97 134.62 374.74 135.43 374.64 135.53Z" fill="#263238"/>
<path d="M379.5 141.13C379.38 141.22 378.95 140.85 378.5 140.3C378.05 139.75 377.83 139.25 377.94 139.16C378.05 139.07 378.49 139.44 378.94 139.99C379.39 140.54 379.62 141.05 379.5 141.13Z" fill="#263238"/>
<path d="M391.76 148.28C390.919 148.174 390.109 147.895 389.38 147.46C388.584 147.177 387.85 146.743 387.22 146.18C388.061 146.283 388.871 146.558 389.6 146.99C390.399 147.273 391.133 147.711 391.76 148.28V148.28Z" fill="#263238"/>
<path d="M401.2 151.57C400.352 151.578 399.511 151.411 398.73 151.08C397.9 150.906 397.114 150.566 396.42 150.08C397.264 150.07 398.101 150.233 398.88 150.56C399.714 150.736 400.503 151.08 401.2 151.57V151.57Z" fill="#263238"/>
<path d="M411.06 153.14C410.232 153.313 409.378 153.313 408.55 153.14C407.702 153.132 406.865 152.952 406.09 152.61C407.777 152.448 409.479 152.635 411.09 153.16L411.06 153.14Z" fill="#263238"/>
<path d="M421 152.83C420.215 153.144 419.375 153.297 418.53 153.28C417.697 153.431 416.842 153.403 416.02 153.2C416.806 152.891 417.646 152.741 418.49 152.76C419.323 152.612 420.177 152.635 421 152.83Z" fill="#263238"/>
<path d="M430.87 151C430.142 151.441 429.333 151.73 428.49 151.85C427.684 152.108 426.831 152.19 425.99 152.09C427.544 151.455 429.194 151.086 430.87 151V151Z" fill="#263238"/>
<path d="M440.15 147.31C439.521 147.88 438.783 148.315 437.98 148.59C437.253 149.024 436.442 149.297 435.6 149.39C436.234 148.827 436.971 148.393 437.77 148.11C438.5 147.683 439.31 147.41 440.15 147.31Z" fill="#263238"/>
<path d="M448.43 141.73C448.52 141.84 447.75 142.67 446.64 143.5C446.01 144.076 445.258 144.503 444.44 144.75C444.36 144.62 445.23 143.91 446.32 143.09C446.94 142.518 447.653 142.058 448.43 141.73V141.73Z" fill="#263238"/>
<path d="M455.23 134.43C454.963 135.242 454.507 135.978 453.9 136.58C453.02 137.65 452.16 138.39 452.05 138.29C452.417 137.546 452.907 136.87 453.5 136.29C454.38 135.19 455.11 134.35 455.23 134.43Z" fill="#263238"/>
<path d="M459.92 125.63C459.882 126.484 459.642 127.317 459.22 128.06C458.65 129.33 458.01 130.27 457.88 130.2C458.034 129.374 458.325 128.58 458.74 127.85C459.007 127.05 459.406 126.299 459.92 125.63V125.63Z" fill="#263238"/>
<path d="M461.76 115.85C462.007 116.667 462.048 117.533 461.88 118.37C461.879 119.227 461.662 120.069 461.25 120.82C461.156 119.986 461.193 119.142 461.36 118.32C461.365 117.481 461.5 116.648 461.76 115.85V115.85Z" fill="#263238"/>
<path d="M460.32 106C461.144 107.489 461.529 109.181 461.43 110.88C461.064 110.124 460.824 109.313 460.72 108.48C460.447 107.682 460.312 106.843 460.32 106V106Z" fill="#263238"/>
<path d="M456 97C456.12 96.92 456.87 97.77 457.57 99C458.07 99.6923 458.396 100.495 458.52 101.34C457.944 100.727 457.471 100.024 457.12 99.26C456.628 98.5715 456.25 97.8085 456 97V97Z" fill="#263238"/>
<path d="M449 89.89C449.809 90.1646 450.54 90.6313 451.13 91.25C452.18 92.16 452.87 93.07 452.77 93.16C452.67 93.25 451.82 92.53 450.77 91.64C449.72 90.75 449 90 449 89.89Z" fill="#263238"/>
<path d="M440 85.83C441.704 85.845 443.36 86.3902 444.74 87.39C443.108 87.0435 441.519 86.5204 440 85.83V85.83Z" fill="#263238"/>
<path d="M430.05 86C430.777 85.5462 431.613 85.2942 432.47 85.27C433.306 85.0792 434.177 85.1068 435 85.35C434.206 85.6178 433.377 85.7661 432.54 85.79C431.724 85.9774 430.886 86.0481 430.05 86V86Z" fill="#263238"/>
<path d="M421.43 90.82C421.33 90.73 422.02 89.82 423.14 88.96C423.77 88.3712 424.553 87.9725 425.4 87.81C425.47 87.94 424.54 88.55 423.46 89.37C422.38 90.19 421.54 90.93 421.43 90.82Z" fill="#263238"/>
<path d="M417.48 99.8C417.284 98.9606 417.333 98.0826 417.62 97.27C417.752 96.4303 418.115 95.644 418.67 95C418.588 95.8287 418.407 96.6446 418.13 97.43C418.01 98.2434 417.792 99.0392 417.48 99.8Z" fill="#263238"/>
<path d="M419.43 109.49C418.833 108.872 418.411 108.106 418.21 107.27C417.85 106.489 417.709 105.625 417.8 104.77C418.205 105.502 418.508 106.286 418.7 107.1C419.055 107.858 419.301 108.663 419.43 109.49V109.49Z" fill="#263238"/>
<path d="M426 116.93C425.181 116.676 424.442 116.21 423.86 115.58C422.81 114.65 422.15 113.71 422.26 113.58C422.37 113.45 423.18 114.24 424.21 115.15C425.24 116.06 426.05 116.81 426 116.93Z" fill="#263238"/>
<path d="M435 121C434.148 121.052 433.297 120.894 432.52 120.54C431.689 120.345 430.919 119.947 430.28 119.38C431.916 119.718 433.502 120.263 435 121Z" fill="#263238"/>
<path d="M445 121.94C444.203 122.238 443.346 122.341 442.5 122.24C441.65 122.305 440.797 122.168 440.01 121.84C440.83 121.654 441.676 121.614 442.51 121.72C443.347 121.656 444.188 121.73 445 121.94V121.94Z" fill="#263238"/>
<path d="M454.76 120.13C453.287 120.968 451.615 121.393 449.92 121.36C450.661 120.96 451.467 120.693 452.3 120.57C453.088 120.28 453.92 120.131 454.76 120.13V120.13Z" fill="#263238"/>
<path d="M463.83 116C463.91 116.12 462.97 116.75 461.75 117.4C461.043 117.87 460.246 118.19 459.41 118.34C460.706 117.263 462.211 116.466 463.83 116V116Z" fill="#263238"/>
<path d="M471.85 110C471.95 110.11 471.16 110.91 470.08 111.79C469.481 112.39 468.767 112.863 467.98 113.18C467.9 113.06 468.69 112.26 469.75 111.39C470.352 110.793 471.066 110.321 471.85 110V110Z" fill="#263238"/>
<path d="M478.66 102.7C478.77 102.79 478.14 103.7 477.23 104.77C476.32 105.84 475.52 106.6 475.41 106.51C475.745 105.732 476.231 105.029 476.84 104.44C477.73 103.39 478.55 102.62 478.66 102.7Z" fill="#263238"/>
<path d="M484.16 94.36C483.961 95.1845 483.597 95.9602 483.09 96.64C482.38 97.83 481.7 98.73 481.58 98.64C481.78 97.8159 482.144 97.0405 482.65 96.36C483.35 95.19 484 94.29 484.16 94.36Z" fill="#263238"/>
<path d="M488.21 85.23C488.16 86.0749 487.932 86.8996 487.54 87.65C487.324 88.4694 486.924 89.2286 486.37 89.87C486.45 89.0312 486.684 88.2142 487.06 87.46C487.291 86.6474 487.682 85.8892 488.21 85.23V85.23Z" fill="#263238"/>
<path d="M491 75.63C491.044 76.4772 490.915 77.3245 490.62 78.12C490.496 78.9566 490.196 79.7575 489.74 80.47C489.701 79.6231 489.831 78.7768 490.12 77.98C490.249 77.1445 490.548 76.3445 491 75.63V75.63Z" fill="#263238"/>
<path d="M492.76 65.79C492.891 66.6261 492.85 67.4802 492.64 68.3C492.596 69.1455 492.378 69.9728 492 70.73C491.87 69.8938 491.91 69.0399 492.12 68.22C492.167 67.3752 492.385 66.5486 492.76 65.79Z" fill="#263238"/>
<path d="M493.68 55.83C493.875 56.6531 493.898 57.5074 493.75 58.34C493.771 59.1878 493.621 60.0311 493.31 60.82C493.115 59.9972 493.088 59.1436 493.23 58.31C493.215 57.4618 493.368 56.619 493.68 55.83V55.83Z" fill="#263238"/>
<path d="M494 45.84C494.24 46.6537 494.311 47.5077 494.21 48.35C494.273 49.1924 494.168 50.0389 493.9 50.84C493.662 50.0294 493.59 49.179 493.69 48.34C493.615 47.4941 493.721 46.642 494 45.84V45.84Z" fill="#263238"/>
<path d="M493.92 35.84C494.193 36.6434 494.295 37.4949 494.22 38.34C494.315 39.1797 494.24 40.0297 494 40.84C493.727 40.0366 493.625 39.1851 493.7 38.34C493.607 37.5003 493.682 36.6504 493.92 35.84Z" fill="#263238"/>
<path d="M493.78 29.69C493.92 29.69 494.04 29.94 494.05 30.26C494.06 30.58 493.95 30.84 493.81 30.84C493.67 30.84 493.54 30.59 493.53 30.27C493.52 29.95 493.63 29.7 493.78 29.69Z" fill="#263238"/>
<path d="M515.685 0.00542791L447.715 7.38934L452.693 53.2098L520.663 45.8258L515.685 0.00542791Z" fill="#2977C9"/>
<path d="M452.67 53.25L447.67 7.41L515.67 0.03V0L520.67 45.85L452.67 53.25ZM447.74 7.43L452.74 53.2L520.67 45.82L515.67 0.05L447.74 7.43Z" fill="#263238"/>
<path d="M516 0.549988C515.838 0.796016 515.651 1.02399 515.44 1.22999L513.69 3.09999L507.3 9.87999L486 32.14L485.82 32.33L485.61 32.19L485.09 31.86L458.79 15.05L450.85 9.89999L448.71 8.46999C448.458 8.31091 448.217 8.13378 447.99 7.93999C448.265 8.05703 448.529 8.19755 448.78 8.35999L451 9.68999L459 14.69L485.41 31.35L485.93 31.68H485.54L507 9.57999L513.53 2.92999L515.33 1.14999C515.536 0.931434 515.76 0.730717 516 0.549988V0.549988Z" fill="#263238"/>
<path d="M453 53.75C452.85 53.66 457.28 46.82 462.89 38.49C468.5 30.16 473.15 23.49 473.3 23.57C473.45 23.65 469.01 30.5 463.4 38.83C457.79 47.16 453.11 53.85 453 53.75Z" fill="#263238"/>
<path d="M495.8 20.54C495.92 20.42 501.65 26.11 508.59 33.24C515.53 40.37 521.06 46.24 520.94 46.37C520.82 46.5 515.09 40.81 508.15 33.67C501.21 26.53 495.68 20.66 495.8 20.54Z" fill="#263238"/>
<path d="M239.27 192C239.41 192 239.62 192.51 239.74 193.19C239.86 193.87 239.83 194.44 239.69 194.47C239.55 194.5 239.34 193.96 239.23 193.28C239.12 192.6 239.13 192.07 239.27 192Z" fill="#263238"/>
<path d="M237.67 182.28C238.05 183.027 238.271 183.844 238.32 184.68C238.536 185.492 238.584 186.339 238.46 187.17C238.086 186.421 237.865 185.605 237.81 184.77C237.594 183.958 237.546 183.111 237.67 182.28V182.28Z" fill="#263238"/>
<path d="M236.24 172.5C236.612 173.25 236.817 174.073 236.84 174.91C237.038 175.725 237.068 176.572 236.93 177.4C236.362 175.832 236.127 174.164 236.24 172.5V172.5Z" fill="#263238"/>
<path d="M235.12 162.68C235.639 164.265 235.816 165.942 235.64 167.6C235.298 166.832 235.121 166.001 235.12 165.16C234.953 164.342 234.953 163.498 235.12 162.68V162.68Z" fill="#263238"/>
<path d="M234.43 152.82C234.738 153.598 234.875 154.434 234.83 155.27C234.966 156.096 234.925 156.941 234.71 157.75C234.412 156.969 234.275 156.135 234.31 155.3C234.184 154.474 234.225 153.63 234.43 152.82V152.82Z" fill="#263238"/>
<path d="M234.33 142.93C234.67 144.562 234.67 146.248 234.33 147.88C233.977 146.249 233.977 144.561 234.33 142.93V142.93Z" fill="#263238"/>
<path d="M235 133.07C235.188 133.884 235.205 134.729 235.05 135.55C235.065 136.386 234.908 137.216 234.59 137.99C234.395 137.177 234.374 136.332 234.53 135.51C234.52 134.673 234.68 133.843 235 133.07Z" fill="#263238"/>
<path d="M236.44 123.3C236.549 124.127 236.488 124.968 236.26 125.77C236.203 126.605 235.971 127.42 235.58 128.16C235.458 127.331 235.516 126.485 235.75 125.68C235.814 124.848 236.048 124.037 236.44 123.3V123.3Z" fill="#263238"/>
<path d="M239 113.74C239.011 114.576 238.855 115.406 238.54 116.18C238.381 117.003 238.058 117.785 237.59 118.48C237.55 117.634 237.689 116.788 238 116C238.169 115.184 238.51 114.414 239 113.74V113.74Z" fill="#263238"/>
<path d="M242.65 104.58C242.562 105.409 242.307 106.212 241.9 106.94C241.642 107.739 241.22 108.475 240.66 109.1C240.752 108.267 241.01 107.461 241.42 106.73C242 105.48 242.52 104.51 242.65 104.58Z" fill="#263238"/>
<path d="M247.48 96C247.287 96.8158 246.926 97.5823 246.42 98.25C245.72 99.42 245.05 100.31 244.93 100.25C245.101 99.4349 245.442 98.6649 245.93 97.99C246.69 96.76 247.36 95.87 247.48 96Z" fill="#263238"/>
<path d="M253.4 88.05C253.102 88.8289 252.646 89.5373 252.06 90.13C251.2 91.19 250.42 91.98 250.3 91.9C250.6 91.1175 251.06 90.4058 251.65 89.81C252.51 88.74 253.3 88 253.4 88.05Z" fill="#263238"/>
<path d="M260.43 81.1C260.52 81.21 259.78 82.04 258.78 82.96C257.78 83.88 256.88 84.54 256.78 84.43C256.68 84.32 257.42 83.5 258.43 82.57C259.44 81.64 260.34 81 260.43 81.1Z" fill="#263238"/>
<path d="M268.51 75.42C268.58 75.54 267.71 76.24 266.57 76.97C265.908 77.4849 265.15 77.8623 264.34 78.08C264.26 77.96 265.13 77.27 266.34 76.53C266.978 76.0122 267.717 75.6341 268.51 75.42V75.42Z" fill="#263238"/>
<path d="M277.51 71.37C276.12 72.2862 274.553 72.8995 272.91 73.17C273.556 72.6291 274.309 72.2305 275.12 72C275.863 71.623 276.678 71.4083 277.51 71.37V71.37Z" fill="#263238"/>
<path d="M284.73 69.59C284.73 69.73 284.23 69.95 283.56 70.08C282.89 70.21 282.31 70.19 282.28 70.08C282.25 69.97 282.78 69.72 283.46 69.59C284.14 69.46 284.71 69.44 284.73 69.59Z" fill="#263238"/>
<path d="M231.536 32.0344L213.464 78.7721L282.801 105.583L300.874 58.845L231.536 32.0344Z" fill="#2977C9"/>
<path d="M282.82 105.62L213.44 78.79L231.53 32L300.89 58.82L282.82 105.62ZM213.5 78.76L282.79 105.56L300.85 58.87L231.56 32.07L213.5 78.76Z" fill="#263238"/>
<path d="M300.89 59.5C300.604 59.6483 300.306 59.7721 300 59.87L297.42 60.87L287.86 64.23L256.18 75.05L255.92 75.14L255.78 74.9C255.67 74.72 255.56 74.52 255.44 74.33L238.42 45L233.33 36L232 33.56C231.831 33.2832 231.687 32.992 231.57 32.69C231.778 32.939 231.962 33.2068 232.12 33.49C232.48 34.1 232.97 34.89 233.58 35.88L238.86 44.71L256 74L256.33 74.57L255.93 74.42L287.68 63.74L297.3 60.58L299.93 59.75C300.241 59.6357 300.562 59.5519 300.89 59.5V59.5Z" fill="#263238"/>
<path d="M213.47 79.42C213.38 79.26 221.08 74.87 230.65 69.62C240.22 64.37 248.07 60.24 248.15 60.41C248.23 60.58 240.55 65 231 70.21C221.45 75.42 213.56 79.59 213.47 79.42Z" fill="#263238"/>
<path d="M271.43 68.73C271.61 68.73 274.3 77.03 277.43 87.39C280.56 97.75 282.98 106.18 282.8 106.24C282.62 106.3 279.93 97.94 276.8 87.58C273.67 77.22 271.25 68.79 271.43 68.73Z" fill="#263238"/>
<path d="M210.15 203C210.29 203 210.37 203.57 210.31 204.27C210.25 204.97 210.09 205.51 209.95 205.49C209.81 205.47 209.73 204.91 209.79 204.22C209.85 203.53 210 203 210.15 203Z" fill="#263238"/>
<path d="M210.4 192.82C210.661 193.64 210.75 194.504 210.66 195.36C210.75 196.216 210.658 197.082 210.39 197.9C210.137 197.079 210.052 196.215 210.14 195.36C210.058 194.504 210.147 193.641 210.4 192.82V192.82Z" fill="#263238"/>
<path d="M209.71 182.67C210.051 183.462 210.221 184.318 210.21 185.18C210.382 186.021 210.382 186.889 210.21 187.73C209.715 186.092 209.555 184.371 209.74 182.67H209.71Z" fill="#263238"/>
<path d="M208 172.64C208.407 173.396 208.659 174.225 208.74 175.08C208.992 175.905 209.071 176.773 208.97 177.63C208.566 176.87 208.314 176.037 208.23 175.18C207.983 174.357 207.905 173.494 208 172.64V172.64Z" fill="#263238"/>
<path d="M205.25 162.85C205.742 163.556 206.083 164.356 206.25 165.2C206.587 165.99 206.76 166.841 206.76 167.7C206.273 166.992 205.933 166.192 205.76 165.35C205.432 164.557 205.259 163.708 205.25 162.85V162.85Z" fill="#263238"/>
<path d="M201.36 153.45C201.935 154.096 202.374 154.851 202.65 155.67C203.078 156.414 203.35 157.237 203.45 158.09C202.881 157.445 202.446 156.694 202.17 155.88C201.749 155.128 201.474 154.304 201.36 153.45Z" fill="#263238"/>
<path d="M196.31 144.63C196.43 144.55 197.15 145.44 197.91 146.63C198.428 147.339 198.799 148.145 199 149C198.87 149.07 198.19 148.15 197.47 146.95C196.932 146.262 196.538 145.473 196.31 144.63V144.63Z" fill="#263238"/>
<path d="M190.08 136.59C190.19 136.49 191.01 137.29 191.91 138.38C192.523 138.985 193.009 139.705 193.34 140.5C193.23 140.59 192.41 139.79 191.51 138.71C190.901 138.102 190.415 137.382 190.08 136.59Z" fill="#263238"/>
<path d="M182.78 129.52C182.87 129.41 183.78 130.08 184.84 131.03C185.9 131.98 186.66 132.82 186.56 132.92C186.46 133.02 185.56 132.35 184.49 131.41C183.42 130.47 182.69 129.63 182.78 129.52Z" fill="#263238"/>
<path d="M174.53 123.57C175.354 123.814 176.122 124.219 176.79 124.76C177.96 125.55 178.85 126.27 178.79 126.39C177.966 126.145 177.198 125.741 176.53 125.2C175.34 124.42 174.45 123.69 174.53 123.57Z" fill="#263238"/>
<path d="M165.47 119C166.323 119.115 167.146 119.397 167.89 119.83C168.705 120.109 169.453 120.551 170.09 121.13C168.421 120.742 166.849 120.017 165.47 119V119Z" fill="#263238"/>
<path d="M155.77 115.89C156.632 115.854 157.493 115.993 158.3 116.3C159.151 116.437 159.964 116.746 160.69 117.21C158.977 117.109 157.303 116.66 155.77 115.89V115.89Z" fill="#263238"/>
<path d="M145.69 114.6C147.387 114.301 149.133 114.442 150.76 115.01C149.918 115.18 149.051 115.18 148.21 115.01C147.351 115.038 146.496 114.898 145.69 114.6V114.6Z" fill="#263238"/>
<path d="M135.55 115.29C136.338 114.941 137.188 114.754 138.05 114.74C138.894 114.561 139.766 114.561 140.61 114.74C139.821 115.085 138.971 115.272 138.11 115.29C137.266 115.468 136.394 115.468 135.55 115.29Z" fill="#263238"/>
<path d="M125.73 117.91C127.224 117.07 128.875 116.546 130.58 116.37C129.876 116.858 129.08 117.198 128.24 117.37C127.446 117.71 126.594 117.893 125.73 117.91Z" fill="#263238"/>
<path d="M116.57 122.32C117.883 121.217 119.408 120.394 121.05 119.9C120.443 120.512 119.723 121.001 118.93 121.34C118.215 121.818 117.413 122.151 116.57 122.32V122.32Z" fill="#263238"/>
<path d="M108.45 128.42C108.35 128.32 109.15 127.5 110.24 126.6C111.33 125.7 112.24 125.05 112.36 125.17C112.48 125.29 111.64 126.1 110.57 127C109.967 127.612 109.245 128.095 108.45 128.42Z" fill="#263238"/>
<path d="M101.8 136.1C102.056 135.272 102.497 134.513 103.09 133.88C103.96 132.76 104.81 131.98 104.91 132.08C104.568 132.862 104.095 133.579 103.51 134.2C102.65 135.31 101.92 136.18 101.8 136.1Z" fill="#263238"/>
<path d="M98.0901 142.7C97.9601 142.64 98.0901 142.09 98.4001 141.46C98.7101 140.83 99.0601 140.39 99.1801 140.46C99.3001 140.53 99.1801 141.08 98.8701 141.7C98.5601 142.32 98.2201 142.76 98.0901 142.7Z" fill="#263238"/>
<path d="M88 148.59C88 148.45 88.53 148.26 89.2 148.18C89.87 148.1 90.45 148.18 90.48 148.29C90.51 148.4 89.96 148.61 89.27 148.7C88.58 148.79 88 148.73 88 148.59Z" fill="#263238"/>
<path d="M78.1099 147.47C78.951 147.46 79.7882 147.585 80.5899 147.84C81.4253 147.93 82.2417 148.149 83.0099 148.49C82.1681 148.656 81.2981 148.608 80.4799 148.35C79.6304 148.252 78.8173 147.95 78.1099 147.47V147.47Z" fill="#263238"/>
<path d="M69.16 143C69.9664 143.249 70.7241 143.635 71.4 144.14C72.58 144.84 73.53 145.43 73.46 145.56C72.6136 145.421 71.8139 145.078 71.13 144.56C69.93 143.91 69.08 143.16 69.16 143Z" fill="#263238"/>
<path d="M61.7199 136.36C61.8299 136.26 62.6499 137.03 63.6199 138.01C64.5899 138.99 65.3399 139.81 65.2399 139.92C65.1399 140.03 64.2399 139.37 63.2399 138.37C62.2399 137.37 61.6099 136.45 61.7199 136.36Z" fill="#263238"/>
<path d="M55.8398 128.26C55.9598 128.19 56.6698 129.06 57.4298 130.26C57.9624 130.92 58.3538 131.683 58.5798 132.5C58.4698 132.58 57.7498 131.71 56.9898 130.55C56.4497 129.876 56.0578 129.096 55.8398 128.26V128.26Z" fill="#263238"/>
<path d="M51.52 119.23C52.0696 119.874 52.4844 120.623 52.74 121.43C53.1478 122.175 53.3996 122.995 53.48 123.84C52.9263 123.195 52.5111 122.442 52.26 121.63C51.8468 120.891 51.5946 120.073 51.52 119.23V119.23Z" fill="#263238"/>
<path d="M48.64 109.63C49.0937 110.348 49.3965 111.151 49.53 111.99C49.8263 112.785 49.9556 113.633 49.91 114.48C49.4647 113.759 49.1657 112.957 49.03 112.12C48.729 111.326 48.5962 110.478 48.64 109.63Z" fill="#263238"/>
<path d="M46.9002 99.76C47.2752 100.522 47.4897 101.352 47.5301 102.2C47.7397 103.023 47.7805 103.881 47.6502 104.72C47.2803 103.957 47.0661 103.127 47.0202 102.28C46.8101 101.457 46.7693 100.599 46.9002 99.76V99.76Z" fill="#263238"/>
<path d="M45.9401 89.78C46.258 90.5675 46.4144 91.4109 46.4001 92.26C46.565 93.0919 46.565 93.9481 46.4001 94.78C46.0761 93.994 45.9162 93.1501 45.9301 92.3C45.7648 91.4678 45.7682 90.6109 45.9401 89.78Z" fill="#263238"/>
<path d="M45.53 82.28C45.67 82.28 45.81 82.82 45.85 83.51C45.89 84.2 45.79 84.77 45.65 84.77C45.51 84.77 45.36 84.23 45.33 83.54C45.3 82.85 45.38 82.28 45.53 82.28Z" fill="#263238"/>
<path d="M83.1769 21.6514L0.0292969 25.5726L2.67244 81.6203L85.82 77.6991L83.1769 21.6514Z" fill="#2977C9"/>
<path d="M2.64 81.64L0 25.54L83.2 21.62L85.84 77.69L2.64 81.64ZM0.05 25.64L2.69 81.64L85.79 77.72L83.15 21.72L0.05 25.64Z" fill="#263238"/>
<path d="M83.4698 22.31C83.255 22.5953 83.0103 22.8568 82.7398 23.09L80.5198 25.23L72.2498 33L44.7298 58.47L44.4998 58.68L44.2498 58.5L43.6398 58.06L12.9198 35.68L3.65982 28.82L1.15982 26.93C0.862556 26.7182 0.581753 26.4842 0.319824 26.23C0.647981 26.3926 0.959462 26.5868 1.24982 26.81L3.82982 28.59L13.2298 35.24L44.0798 57.45L44.6898 57.89H44.2098C54.9998 48 64.7698 39.12 71.8898 32.6L80.3198 25L82.6298 23C82.89 22.7469 83.171 22.5161 83.4698 22.31V22.31Z" fill="#263238"/>
<path d="M3.00017 82.27C2.83017 82.15 8.72017 74.17 16.1502 64.46C23.5802 54.75 29.7102 47 29.8802 47.1C30.0502 47.2 24.1502 55.2 16.7202 64.92C9.29017 74.64 3.13017 82.4 3.00017 82.27Z" fill="#263238"/>
<path d="M57.4802 45.1C57.6402 44.96 64.1802 52.3 72.0902 61.48C80.0002 70.66 86.2702 78.22 86.0902 78.35C85.9102 78.48 79.4202 71.16 71.5102 62C63.6002 52.84 57.3302 45.23 57.4802 45.1Z" fill="#263238"/>
<path d="M162.46 213.3L304.29 211.97L308.44 308.39L161.58 307.33L162.46 213.3Z" fill="#2977C9"/>
<path d="M162.46 213.3L229.46 158.84C230.836 157.721 232.556 157.11 234.33 157.11C236.104 157.11 237.824 157.721 239.2 158.84L304.29 212" fill="#2977C9"/>
<g opacity="0.3">
<path d="M162.46 213.3L229.46 158.84C230.836 157.721 232.556 157.11 234.33 157.11C236.104 157.11 237.824 157.721 239.2 158.84L304.29 212" fill="black"/>
</g>
<path d="M161.58 307.33C161.41 307.17 172.73 294.74 186.88 279.59C201.03 264.44 212.65 252.29 212.88 252.45C213.11 252.61 201.68 265 187.52 280.19C173.36 295.38 161.76 307.5 161.58 307.33Z" fill="#263238"/>
<path d="M308.44 308.39C308.26 308.55 297.18 296.39 283.69 281.31C270.2 266.23 259.41 253.81 259.59 253.65C259.77 253.49 270.85 265.65 284.35 280.73C297.85 295.81 308.62 308.23 308.44 308.39Z" fill="#263238"/>
<g opacity="0.5">
<path d="M304.29 211.97L233.19 269.01L162.46 213.3" fill="black"/>
</g>
<path d="M169.62 218.55L169.3 174.25L293.49 172.53L294.99 219.13L233.18 268.27L169.62 218.55Z" fill="#FAFAFA"/>
<path d="M169.62 218.55L170.8 219.43C171.57 220.03 172.7 220.91 174.18 222.04L187 232L233.27 268.07H233.01L294.78 218.9L294.69 219.11C294.4 210.22 294.1 200.89 293.79 191.4C293.59 185.01 293.39 178.7 293.19 172.51L293.45 172.76L169.27 174.39L169.43 174.22C169.49 188.15 169.54 199.22 169.58 206.8C169.58 210.59 169.58 213.51 169.58 215.5C169.58 216.5 169.58 217.23 169.58 217.75C169.58 218.27 169.58 218.52 169.58 218.52C169.58 218.52 169.58 218.27 169.58 217.77C169.58 217.27 169.58 216.51 169.58 215.54C169.58 213.54 169.52 210.64 169.48 206.86C169.41 199.26 169.3 188.18 169.17 174.23V174.06H169.33L293.51 172.24H293.77V172.49C293.97 178.68 294.17 184.99 294.38 191.38C294.68 200.88 294.98 210.2 295.26 219.09V219.22L295.16 219.3L233.32 268.4L233.19 268.51L233.06 268.41L186.84 232.13L174.08 222.13L170.75 219.48L169.62 218.55Z" fill="#263238"/>
<path d="M273.91 194.87C273.91 195.01 254.91 195.29 231.49 195.48C208.07 195.67 189.07 195.71 189.07 195.56C189.07 195.41 208.07 195.15 231.49 194.96C254.91 194.77 273.91 194.73 273.91 194.87Z" fill="#263238"/>
<path d="M273.93 207.38C273.93 207.53 254.93 207.8 231.52 207.99C208.11 208.18 189.1 208.22 189.1 208.07C189.1 207.92 208.1 207.66 231.52 207.47C254.94 207.28 273.93 207.24 273.93 207.38Z" fill="#263238"/>
<path d="M274 221.8C274 221.95 255 222.22 231.59 222.41C208.18 222.6 189.17 222.64 189.17 222.5C189.17 222.36 208.17 222.08 231.59 221.89C255.01 221.7 274 221.66 274 221.8Z" fill="#263238"/>
<path d="M274 236.23C274 236.37 255.89 236.63 233.54 236.82C211.19 237.01 193.07 237.03 193.07 236.89C193.07 236.75 211.18 236.48 233.54 236.29C255.9 236.1 274 236.08 274 236.23Z" fill="#263238"/>
<path d="M258.14 248.92C257.975 248.952 257.808 248.968 257.64 248.97L256.21 249.03L250.97 249.17L233.66 249.48C226.9 249.61 220.77 249.65 216.34 249.64H211.1H209.67C209.504 249.668 209.335 249.668 209.17 249.64C209.334 249.602 209.502 249.586 209.67 249.59L211.09 249.52L216.34 249.39L233.65 249.08C240.41 248.95 246.53 248.91 250.96 248.92H256.21H257.64C257.806 248.893 257.974 248.893 258.14 248.92V248.92Z" fill="#263238"/>
<path d="M242.17 261.12C239.178 261.383 236.173 261.477 233.17 261.4C230.168 261.495 227.162 261.411 224.17 261.15C227.163 260.893 230.167 260.803 233.17 260.88C236.172 260.779 239.177 260.859 242.17 261.12V261.12Z" fill="#263238"/>
</g>
<defs>
<clipPath id="clip0_104_2">
<rect width="520.94" height="308.39" fill="white"/>
</clipPath>
</defs>
</svg>
