<svg xmlns="http://www.w3.org/2000/svg" viewBox="0 0 1400 1050"><defs><style>.cls-1{fill:#fff;}.cls-2{fill:#414042;}.cls-3{opacity:0.6;}.cls-4{fill:#00aeef;}.cls-5{fill:#e6e7e8;}</style></defs><g id="背景"><rect class="cls-1" width="1400" height="1050"/></g><g id="レイヤー_3のコピー_2" data-name="レイヤー 3のコピー 2"><rect class="cls-2" x="596.28" y="793.23" width="216" height="146.73"/><path class="cls-2" d="M498.08,922h412.4a9.8,9.8,0,0,1,9.8,9.8V958a0,0,0,0,1,0,0h-432a0,0,0,0,1,0,0v-26.2A9.8,9.8,0,0,1,498.08,922Z"/><rect class="cls-3" x="596.28" y="795.96" width="216" height="36"/><path class="cls-2" d="M128.28,652h1152a0,0,0,0,1,0,0V766a30,30,0,0,1-30,30h-1092a30,30,0,0,1-30-30V652a0,0,0,0,1,0,0Z"/><path class="cls-2" d="M158.28,76h1092a30,30,0,0,1,30,30V724a0,0,0,0,1,0,0h-1152a0,0,0,0,1,0,0V106A30,30,0,0,1,158.28,76Z"/><rect class="cls-1" x="164.28" y="111.96" width="1080" height="603"/><rect class="cls-4" x="164.28" y="291.96" width="1080" height="243"/><rect class="cls-5" x="191.28" y="570.96" width="603" height="18"/><rect class="cls-5" x="191.28" y="615.96" width="603" height="18"/><rect class="cls-5" x="191.28" y="660.96" width="603" height="18"/><rect class="cls-5" x="821.28" y="570.96" width="396" height="108"/><rect class="cls-5" x="191.28" y="147.96" width="180" height="108"/><rect class="cls-5" x="398.28" y="147.96" width="189" height="108"/><rect class="cls-5" x="614.28" y="147.96" width="603" height="18"/><rect class="cls-5" x="614.28" y="192.96" width="603" height="18"/><rect class="cls-5" x="614.28" y="237.96" width="603" height="18"/></g></svg>