<svg width="1152" height="882" viewBox="0 0 1152 882" fill="none" xmlns="http://www.w3.org/2000/svg">
<path d="M684 717.27H468V864H684V717.27Z" fill="#414042"/>
<path d="M369.8 846H782.2C784.799 846 787.292 847.033 789.13 848.87C790.967 850.708 792 853.201 792 855.8V882H360V855.8C360 853.201 361.033 850.708 362.87 848.87C364.708 847.033 367.201 846 369.8 846V846Z" fill="#414042"/>
<path opacity="0.6" d="M684 720H468V756H684V720Z" fill="black"/>
<path d="M0 576H1152V690C1152 697.956 1148.84 705.587 1143.21 711.213C1137.59 716.839 1129.96 720 1122 720H30C22.0435 720 14.4129 716.839 8.7868 711.213C3.16071 705.587 0 697.956 0 690L0 576Z" fill="#414042"/>
<path d="M30 0H1122C1129.96 0 1137.59 3.16071 1143.21 8.7868C1148.84 14.4129 1152 22.0435 1152 30V648H0V30C0 22.0435 3.16071 14.4129 8.7868 8.7868C14.4129 3.16071 22.0435 0 30 0V0Z" fill="#414042"/>
<path d="M1116 36H36V639H1116V36Z" fill="white"/>
<path d="M1116 216H36V459H1116V216Z" fill="#2977C9"/>
<path d="M377.807 305.31H349.169V296.521C349.169 292.419 348.803 289.807 348.07 288.684C347.338 287.561 346.117 286.999 344.408 286.999C342.553 286.999 341.137 287.756 340.16 289.27C339.232 290.783 338.769 293.078 338.769 296.154C338.769 300.109 339.306 303.088 340.38 305.09C341.405 307.092 344.311 309.509 349.096 312.341C362.816 320.495 371.459 327.185 375.023 332.409C378.588 337.634 380.37 346.057 380.37 357.678C380.37 366.125 379.369 372.351 377.367 376.354C375.414 380.358 371.605 383.728 365.941 386.462C360.277 389.147 353.686 390.49 346.166 390.49C337.914 390.49 330.858 388.928 324.999 385.803C319.188 382.678 315.38 378.698 313.573 373.864C311.767 369.03 310.863 362.17 310.863 353.283V345.52H339.501V359.948C339.501 364.392 339.892 367.248 340.673 368.518C341.503 369.787 342.943 370.422 344.994 370.422C347.045 370.422 348.559 369.616 349.535 368.005C350.561 366.394 351.073 364.001 351.073 360.827C351.073 353.845 350.121 349.279 348.217 347.131C346.264 344.982 341.454 341.394 333.788 336.364C326.122 331.286 321.044 327.6 318.554 325.305C316.063 323.01 313.988 319.836 312.328 315.783C310.717 311.73 309.911 306.555 309.911 300.256C309.911 291.174 311.059 284.533 313.354 280.334C315.697 276.135 319.457 272.863 324.633 270.52C329.809 268.127 336.059 266.931 343.383 266.931C351.391 266.931 358.202 268.225 363.817 270.812C369.481 273.4 373.217 276.672 375.023 280.627C376.879 284.533 377.807 291.198 377.807 300.622V305.31ZM456.249 341.125H417.943V362.146C417.943 366.54 418.261 369.372 418.896 370.642C419.53 371.911 420.751 372.546 422.558 372.546C424.804 372.546 426.293 371.716 427.025 370.056C427.807 368.347 428.197 365.075 428.197 360.241V347.424H456.249V354.602C456.249 360.607 455.858 365.222 455.077 368.444C454.345 371.667 452.587 375.109 449.804 378.771C447.021 382.434 443.48 385.192 439.184 387.048C434.936 388.854 429.589 389.758 423.144 389.758C416.894 389.758 411.376 388.854 406.591 387.048C401.806 385.241 398.07 382.775 395.385 379.65C392.748 376.477 390.917 373.01 389.892 369.25C388.866 365.441 388.354 359.924 388.354 352.697V324.353C388.354 315.856 389.501 309.167 391.796 304.284C394.091 299.353 397.851 295.593 403.075 293.005C408.3 290.368 414.306 289.05 421.093 289.05C429.394 289.05 436.229 290.637 441.601 293.811C447.021 296.936 450.805 301.11 452.953 306.335C455.15 311.511 456.249 318.811 456.249 328.234V341.125ZM426.586 325.305V318.2C426.586 313.171 426.317 309.924 425.78 308.459C425.243 306.994 424.145 306.262 422.484 306.262C420.434 306.262 419.164 306.896 418.676 308.166C418.188 309.387 417.943 312.731 417.943 318.2V325.305H426.586ZM495.58 290.808L494.408 303.552C498.705 294.421 504.931 289.587 513.085 289.05V323.254C507.665 323.254 503.686 323.986 501.146 325.451C498.607 326.916 497.045 328.967 496.459 331.604C495.873 334.191 495.58 340.197 495.58 349.621V388H465.99V290.808H495.58ZM583.69 290.808L569.848 388H531.249L516.381 290.808H542.821L551.098 361.706C551.732 356.53 552.807 343.835 554.32 323.62C555.199 312.341 556.176 301.403 557.25 290.808H583.69ZM618.627 269.421V284.875H588.158V269.421H618.627ZM618.627 290.808V388H588.158V290.808H618.627ZM694.726 327.502H666.82V316.296C666.82 312.39 666.503 309.753 665.868 308.386C665.233 306.97 664.062 306.262 662.353 306.262C660.644 306.262 659.496 306.872 658.91 308.093C658.324 309.313 658.031 312.048 658.031 316.296V362.146C658.031 365.612 658.471 368.225 659.35 369.982C660.229 371.691 661.522 372.546 663.231 372.546C665.233 372.546 666.576 371.643 667.26 369.836C667.992 368.029 668.358 364.611 668.358 359.582V348.01H694.726C694.677 355.773 694.384 361.608 693.847 365.515C693.358 369.372 691.723 373.352 688.939 377.453C686.205 381.506 682.616 384.582 678.173 386.682C673.729 388.732 668.236 389.758 661.693 389.758C653.344 389.758 646.728 388.342 641.845 385.51C636.962 382.629 633.495 378.625 631.444 373.498C629.442 368.322 628.441 360.998 628.441 351.525V323.913C628.441 315.661 629.271 309.436 630.932 305.236C632.592 301.037 636.132 297.302 641.552 294.03C646.972 290.71 653.563 289.05 661.327 289.05C669.042 289.05 675.634 290.686 681.103 293.957C686.571 297.229 690.209 301.354 692.016 306.335C693.822 311.315 694.726 318.371 694.726 327.502ZM770.604 341.125H732.299V362.146C732.299 366.54 732.616 369.372 733.251 370.642C733.886 371.911 735.106 372.546 736.913 372.546C739.159 372.546 740.648 371.716 741.381 370.056C742.162 368.347 742.553 365.075 742.553 360.241V347.424H770.604V354.602C770.604 360.607 770.214 365.222 769.433 368.444C768.7 371.667 766.942 375.109 764.159 378.771C761.376 382.434 757.836 385.192 753.539 387.048C749.291 388.854 743.944 389.758 737.499 389.758C731.249 389.758 725.731 388.854 720.946 387.048C716.161 385.241 712.426 382.775 709.74 379.65C707.104 376.477 705.272 373.01 704.247 369.25C703.222 365.441 702.709 359.924 702.709 352.697V324.353C702.709 315.856 703.856 309.167 706.151 304.284C708.446 299.353 712.206 295.593 717.431 293.005C722.655 290.368 728.661 289.05 735.448 289.05C743.749 289.05 750.585 290.637 755.956 293.811C761.376 296.936 765.16 301.11 767.309 306.335C769.506 311.511 770.604 318.811 770.604 328.234V341.125ZM740.941 325.305V318.2C740.941 313.171 740.673 309.924 740.136 308.459C739.599 306.994 738.5 306.262 736.84 306.262C734.789 306.262 733.52 306.896 733.031 308.166C732.543 309.387 732.299 312.731 732.299 318.2V325.305H740.941ZM840.771 321.862H814.55V316.589C814.55 312.097 814.281 309.265 813.744 308.093C813.256 306.872 811.986 306.262 809.936 306.262C808.275 306.262 807.03 306.823 806.2 307.946C805.37 309.021 804.955 310.656 804.955 312.854C804.955 315.832 805.15 318.029 805.541 319.445C805.98 320.812 807.226 322.326 809.276 323.986C811.376 325.646 815.648 328.063 822.094 331.237C830.688 335.437 836.327 339.392 839.013 343.103C841.698 346.813 843.041 352.209 843.041 359.289C843.041 367.199 842.016 373.181 839.965 377.233C837.914 381.237 834.472 384.338 829.638 386.535C824.853 388.684 819.066 389.758 812.279 389.758C804.76 389.758 798.314 388.586 792.943 386.242C787.621 383.898 783.959 380.725 781.957 376.721C779.955 372.717 778.954 366.662 778.954 358.557V353.869H805.175V360.021C805.175 365.246 805.492 368.64 806.127 370.202C806.811 371.765 808.129 372.546 810.082 372.546C812.182 372.546 813.646 372.033 814.477 371.008C815.307 369.934 815.722 367.712 815.722 364.343C815.722 359.704 815.185 356.799 814.11 355.627C812.987 354.455 807.25 350.988 796.898 345.227C788.207 340.344 782.909 335.925 781.005 331.97C779.101 327.966 778.148 323.229 778.148 317.761C778.148 309.997 779.174 304.284 781.225 300.622C783.275 296.911 786.742 294.055 791.625 292.053C796.557 290.051 802.27 289.05 808.764 289.05C815.209 289.05 820.678 289.88 825.17 291.54C829.711 293.151 833.178 295.3 835.57 297.985C838.012 300.671 839.477 303.161 839.965 305.456C840.502 307.751 840.771 311.34 840.771 316.223V321.862Z" fill="white"/>
<path d="M666 495H63V513H666V495Z" fill="#E6E7E8"/>
<path d="M666 540H63V558H666V540Z" fill="#E6E7E8"/>
<path d="M666 585H63V603H666V585Z" fill="#E6E7E8"/>
<path d="M1089 495H693V603H1089V495Z" fill="#E6E7E8"/>
<path d="M243 72H63V180H243V72Z" fill="#E6E7E8"/>
<path d="M459 72H270V180H459V72Z" fill="#E6E7E8"/>
<path d="M1089 72H486V90H1089V72Z" fill="#E6E7E8"/>
<path d="M1089 117H486V135H1089V117Z" fill="#E6E7E8"/>
<path d="M1089 162H486V180H1089V162Z" fill="#E6E7E8"/>
</svg>
